<svg id="icon-broer" enable-background="new -564 389.9 62 62" version="1.1" viewBox="-564 389.9 62 62" xml:space="preserve" xmlns="http://www.w3.org/2000/svg">
<style type="text/css">
	#icon-broer .st0{fill:#FFFFFF;stroke:currentColor;stroke-width:2;stroke-miterlimit:10;}
	#icon-broer .st1{fill:currentColor;}
</style>
<circle class="st0" cx="-533" cy="420.9" r="29"/>
<path class="st1" d="m-522 429.8c0.5 0 0.8 0.2 1.3 0.7 0.6 0.7 1.4 1.2 2.4 1.1 0.4 0 0.8-0.2 0.8-0.6s-0.2-0.8-0.6-0.8h-0.2c-0.5 0-0.8-0.2-1.3-0.7-1-1.3-2.9-1.5-4.2-0.5-0.2 0.1-0.4 0.3-0.5 0.5-0.5 0.5-0.8 0.7-1.3 0.7s-0.8-0.2-1.3-0.7c-1-1.3-2.9-1.5-4.2-0.5-0.2 0.1-0.4 0.3-0.5 0.5-0.5 0.5-0.8 0.7-1.3 0.7s-0.8-0.2-1.3-0.7c-1-1.3-2.9-1.5-4.2-0.5-0.2 0.1-0.4 0.3-0.5 0.5-0.5 0.5-0.8 0.7-1.3 0.7s-0.8-0.2-1.3-0.7c-1-1.3-2.9-1.5-4.2-0.5-0.2 0.1-0.4 0.3-0.5 0.5-0.5 0.5-0.8 0.7-1.3 0.7-0.4 0-0.8 0.2-0.8 0.6s0.2 0.8 0.6 0.8h0.2c0.9 0 1.8-0.4 2.4-1.1 0.5-0.5 0.8-0.7 1.3-0.7s0.8 0.2 1.3 0.7c1 1.3 2.9 1.5 4.2 0.5 0.2-0.1 0.4-0.3 0.5-0.5 0.5-0.5 0.8-0.7 1.3-0.7s0.8 0.2 1.3 0.7c1 1.3 2.9 1.5 4.2 0.5 0.2-0.1 0.4-0.3 0.5-0.5 0.5-0.5 0.8-0.7 1.3-0.7s0.8 0.2 1.3 0.7c1 1.3 2.9 1.5 4.2 0.5 0.2-0.1 0.4-0.3 0.5-0.5 0.5-0.5 0.7-0.7 1.2-0.7zm-1.1-16.5h3.1v13.1c0 0.4 0.4 0.7 0.8 0.6 0.3 0 0.6-0.3 0.6-0.6v-13.9c0-0.4-0.3-0.7-0.7-0.7h-1.5v-2c0-0.4-0.2-0.8-0.6-0.8s-0.8 0.2-0.8 0.6v0.2 2h-1.6c-0.4 0-0.7 0.3-0.7 0.7v1.1h-0.1c-2.7 1-5.5 1.4-8.3 1.4-2.8 0.1-5.7-0.4-8.4-1.4h-0.1v-1.1c0-0.4-0.3-0.7-0.7-0.7h-1.6v-2c0-0.4-0.2-0.8-0.6-0.8s-0.8 0.2-0.8 0.6v0.2 2h-1.6c-0.4 0-0.7 0.3-0.7 0.7v13.8c0 0.4 0.4 0.7 0.8 0.6 0.3 0 0.6-0.3 0.6-0.6v-13h3v12.6c0 0.4 0.4 0.7 0.8 0.6 0.3 0 0.6-0.3 0.6-0.6v-2.5h17v2.5c0 0.4 0.4 0.7 0.8 0.6 0.3 0 0.6-0.3 0.6-0.6l0.1-12.6zm-1.4 8.6h-3.1v-5.9h0.2c0.9-0.2 1.8-0.4 2.7-0.7l0.2-0.1v6.7zm-4.6 0h-3.1v-5.4h0.1c0.9 0 1.9-0.1 2.7-0.2h0.2l0.1 5.6zm-4.6 0h-3.1v-5.6h0.2c0.9 0.1 1.8 0.2 2.7 0.2h0.1v0.2l0.1 5.2zm-4.6 0h-3.1v-6.7l0.2 0.1c0.9 0.3 1.8 0.5 2.7 0.7h0.1l0.1 5.9z"/>
</svg>
