<svg id="icon-byggeri" enable-background="new 0 10 62 62" version="1.1" viewBox="0 10 62 62" xml:space="preserve" xmlns="http://www.w3.org/2000/svg">
<style type="text/css">
	#icon-byggeri .st0{fill:#FFFFFF;stroke:currentColor;stroke-width:2;stroke-miterlimit:10;}
	#icon-byggeri .st1{fill:currentColor;}
	#icon-byggeri .st2{fill:#FFFFFF;}
</style>
<circle class="st0" cx="31" cy="41" r="29"/>
<path class="st1" d="m19.5 54.1c-0.3 0-0.6 0.3-0.6 0.6s0.3 0.6 0.6 0.6h18.2c0.3 0 0.6-0.3 0.6-0.6s-0.3-0.6-0.6-0.6h-2v-0.1l-3.3-18.7v-5.4h10.5v4.4h-0.1l-5.4 2.9c-0.2 0.1-0.3 0.3-0.3 0.5v7.1c0 0.3 0.3 0.6 0.6 0.6h11.6c0.3 0 0.6-0.3 0.6-0.6v-7c0-0.2-0.1-0.4-0.3-0.5l-5.5-3v-5c0-0.3-0.3-0.6-0.6-0.6h-6.9v-1.4c0-0.2-0.1-0.4-0.3-0.5l-4.6-2.5c-0.1-0.3-0.2-0.3-0.3-0.3h-7c-0.3 0-0.6 0.3-0.6 0.6v3.9h-4.3c-0.3 0-0.6 0.3-0.6 0.6v1.9c0 0.3 0.4 0.6 0.7 0.5 0.3 0 0.5-0.3 0.5-0.5v-1.2h3.6v5.4l-3.3 18.9h-0.9zm14.5 0h-12l0.2-0.2 5.8-5.2 6 5.4zm0.1-1.6-5.1-4.6 3.8-3.4 1.3 8zm-12.1 0 1.4-8 3.8 3.4-5.2 4.6zm6-5.5-3.4-3h6.8l-3.4 3zm20.6-2.9h-10.3v-5.8h10.3v5.8zm-17.1-1.4h-6.9l3.4-3.2 3.5 3.2zm0.7-1-3.3-3 2.4-2.2 0.9 5.2zm-8.4 0 0.9-5.2 2.4 2.2-0.1 0.1-3.2 2.9zm4.2-3.8-2.1-1.9h4.2l-2.1 1.9zm18.8-0.8h-6.6l3.3-1.8 3.3 1.8zm-15.7-2.4h-4.9l4.9-3.7v3.7zm-6.1-0.6v-4.2h5.6l-5.6 4.2zm10.4-5.5h-10.4v-3.3h6.3l4.1 2.3v1z"/>
<path class="st1" d="m27.1 27.1c-0.1 0-0.2-0.1-0.2-0.2s0.1-0.2 0.2-0.2h3.2c0.1 0 0.2 0.1 0.2 0.2s-0.1 0.2-0.2 0.2h-3.2z"/>
<path class="st2" d="m30.4 26.1h-3.2c-0.4 0-0.7 0.3-0.7 0.7s0.3 0.7 0.7 0.7h3.2c0.4 0 0.7-0.3 0.7-0.7 0-0.3-0.3-0.7-0.7-0.7z"/>
</svg>
