<svg id="icon-digitala-losningar" enable-background="new 0 0 62 62" version="1.1" viewBox="0 0 62 62" xml:space="preserve" xmlns="http://www.w3.org/2000/svg">
<style type="text/css">
	#icon-digitala-losningar .st0{fill:#FFFFFF;stroke:currentColor;stroke-width:2;stroke-miterlimit:10;}
	#icon-digitala-losningar .st1{fill:currentColor;}
</style>
<circle class="st0" cx="31" cy="31" r="29"/>
<path class="st1" d="m31 25.3c-0.6 0-1.2 0.3-1.7 0.7-0.4 0.4-0.7 1-0.7 1.7 0 0.6 0.3 1.2 0.7 1.7 0.4 0.4 1 0.7 1.7 0.7s1.3-0.2 1.7-0.7c0.4-0.4 0.7-1 0.7-1.7 0-0.6-0.3-1.2-0.7-1.7-0.4-0.4-1-0.7-1.7-0.7zm1 3.4c-0.2 0.2-0.6 0.4-1 0.4s-0.8-0.2-1-0.4c-0.2-0.3-0.4-0.6-0.4-1s0.2-0.8 0.4-1c0.3-0.2 0.6-0.4 1-0.4s0.8 0.2 1 0.4c0.2 0.3 0.4 0.6 0.4 1s-0.2 0.8-0.4 1z"/>
<path class="st1" d="m36.8 26.6c-0.2-0.1-0.3-0.2-0.5-0.3s-0.5-0.2-0.9-0.4v-0.1c0.2-0.4 0.3-0.7 0.4-0.9s0.1-0.4 0.1-0.6-0.1-0.3-0.1-0.4v-0.1l-1.1-1.1h-0.3-0.2c-0.2 0.1-0.5 0.2-1.2 0.5h-0.1c-0.3-0.6-0.4-1-0.5-1.2-0.1-0.1-0.1-0.2-0.3-0.3-0.1-0.1-0.4-0.1-0.4-0.1h-1.2-0.1c-0.1 0-0.3 0.1-0.4 0.2-0.1 0.2-0.2 0.3-0.3 0.5s-0.2 0.5-0.4 0.9h-0.1c-0.3-0.2-0.6-0.3-0.8-0.4-0.3-0.1-0.5-0.2-0.7-0.2h-0.3l-1 1s-0.1 0.1-0.1 0.2c-0.2 0.2-0.3 0.4-0.3 0.5 0 0.2 0.1 0.4 0.1 0.6 0.1 0.2 0.2 0.5 0.4 0.8v0.1c-0.6 0.3-1 0.4-1.2 0.5-0.1 0.1-0.2 0.1-0.3 0.3-0.1 0.1-0.1 0.4-0.1 0.4v1.2 0.1c0 0.1 0.1 0.3 0.2 0.4 0.2 0.1 0.3 0.2 0.5 0.3s0.5 0.2 0.9 0.4v0.1c-0.2 0.4-0.3 0.7-0.4 0.9s-0.1 0.4-0.1 0.6 0.1 0.3 0.1 0.4v0.1l1.1 1.1h0.3c0.1 0 0.2 0 0.4-0.1s0.5-0.2 1-0.4h0.1c0.3 0.6 0.4 1 0.5 1.2 0.1 0.1 0.1 0.2 0.3 0.3 0.1 0.1 0.4 0.1 0.4 0.1h1.2 0.1c0.1 0 0.3-0.1 0.4-0.2 0.1-0.2 0.2-0.3 0.3-0.5s0.2-0.5 0.4-0.9h0.1c0.3 0.2 0.6 0.3 0.8 0.4 0.3 0.1 0.5 0.2 0.7 0.2h0.3l1-1s0.1-0.1 0.1-0.2c0.1-0.1 0.1-0.2 0.1-0.3 0-0.2-0.1-0.4-0.1-0.6-0.1-0.2-0.2-0.5-0.4-0.8v-0.1c0.6-0.3 1-0.4 1.2-0.5 0.1-0.1 0.2-0.1 0.3-0.3 0.1-0.1 0.1-0.4 0.1-0.4v-1.2-0.1c0.2-0.4 0.1-0.6 0-0.6zm-2.6 5c-0.2-0.1-0.6-0.2-1.2-0.5l-0.2-0.1-0.7 0.3-0.2 0.1-0.1 0.2c-0.3 0.6-0.4 1-0.5 1.2h-0.9c-0.1-0.2-0.3-0.5-0.5-1.2l-0.1-0.2-0.6-0.4h-0.2l-0.2 0.1c-0.6 0.3-0.9 0.4-1.1 0.5l-0.6-0.6c0-0.1 0-0.1 0.1-0.3s0.2-0.5 0.4-1l0.1-0.2-0.3-0.7-0.1-0.2-0.2-0.1c-0.6-0.3-1-0.4-1.2-0.5v-0.9c0.2-0.1 0.5-0.3 1.2-0.5l0.2-0.1 0.3-0.7 0.1-0.2-0.1-0.2c-0.2-0.4-0.4-0.7-0.4-0.9 0-0.1 0-0.1-0.1-0.2l0.6-0.6c0.2 0.1 0.6 0.2 1.2 0.5l0.2 0.1 0.7-0.3h0.2l0.1-0.2c0.3-0.6 0.4-1 0.5-1.2h0.9c0.1 0.2 0.3 0.5 0.5 1.2v0.2l0.7 0.3 0.2 0.1 0.2-0.1c0.6-0.3 0.9-0.4 1.1-0.5l0.6 0.6c0 0.1 0 0.1-0.1 0.3s-0.2 0.5-0.4 1l-0.1 0.2 0.3 0.7 0.1 0.2 0.2 0.1c0.6 0.3 1 0.4 1.2 0.5v0.9c-0.2 0.1-0.5 0.3-1.2 0.5l-0.2 0.1-0.3 0.7-0.1 0.2 0.1 0.2c0.2 0.4 0.4 0.7 0.4 0.9 0 0.1 0 0.1 0.1 0.2l-0.6 0.5z"/>
<path class="st1" d="m44 18.8h-26c-1.4 0-2.6 1.2-2.6 2.6v16c0 1.4 1.2 2.6 2.6 2.6h11.4l-0.8 3.1h-2.3v1h9.5v-1h-2.3l-0.9-3.1h11.4c1.4 0 2.6-1.2 2.6-2.6v-16c0-1.4-1.2-2.6-2.6-2.6zm-14.4 24.3 0.8-3.1h1.1l0.8 3.1h-2.7zm15.8-5.7c0 0.4-0.2 0.7-0.4 1-0.3 0.3-0.6 0.4-1 0.4h-26c-0.4 0-0.7-0.2-1-0.4-0.3-0.3-0.4-0.6-0.4-1v-1h28.9v1zm0-2h-28.8v-14c0-0.8 0.6-1.4 1.4-1.4h26c0.4 0 0.7 0.2 1 0.4 0.3 0.3 0.4 0.6 0.4 1v14z"/>
</svg>
