<svg id="icon-ejendomsudvikling" enable-background="new -564 389.9 62 62" version="1.1" viewBox="-564 389.9 62 62" xml:space="preserve" xmlns="http://www.w3.org/2000/svg">
<style type="text/css">
	#icon-ejendomsudvikling .st0{fill:#FFFFFF;stroke:currentColor;stroke-width:2;stroke-miterlimit:10;}
	#icon-ejendomsudvikling .st1{fill:currentColor;}
	#icon-ejendomsudvikling .st2{fill:none;stroke:currentColor;stroke-width:1.5;stroke-linejoin:round;}
</style>
<circle class="st0" cx="-533" cy="420.9" r="29"/>
<path class="st1" d="m-541.4 410.1c-0.4 0-0.7 0.3-0.7 0.7v26.8c0 0.4 0.3 0.7 0.7 0.7h16.7c0.4 0 0.7-0.3 0.7-0.7v-26.7c0-0.4-0.3-0.7-0.7-0.7h-1.8v-2.7c0-0.4-0.3-0.7-0.7-0.7h-1.4v-2.6c0-0.4-0.3-0.7-0.7-0.7h-7.5c-0.4 0-0.7 0.3-0.7 0.7v2.6h-1.4c-0.4 0-0.7 0.3-0.7 0.7v2.6h-1.8zm16.1 26.8h-5.2v-2.6c0-0.4-0.3-0.7-0.7-0.7h-3.4c-0.4 0-0.7 0.3-0.7 0.7v2.6h-5.3v-25.3h15.3v25.3zm-6.7 0h-2v-1.9h2v1.9zm4.2-26.8h-10.3v-1.9h10.3v1.9zm-2.2-3.3h-6v-1.9h6v1.9z"/>
<rect class="st2" x="-538.5" y="413.6" width="3.7" height="3.7"/>
<rect class="st2" x="-531.2" y="413.6" width="3.7" height="3.7"/>
<rect class="st2" x="-538.5" y="420.1" width="3.7" height="3.7"/>
<rect class="st2" x="-531.2" y="420.1" width="3.7" height="3.7"/>
<rect class="st2" x="-531.2" y="426.5" width="3.7" height="3.7"/>
<rect class="st2" x="-538.5" y="426.5" width="3.7" height="3.7"/>
</svg>
