<svg id="icon-forsyninger" enable-background="new -564 389.9 62 62" version="1.1" viewBox="-564 389.9 62 62" xml:space="preserve" xmlns="http://www.w3.org/2000/svg">
<style type="text/css">
	#icon-forsyninger .st0{fill:#FFFFFF;stroke:currentColor;stroke-width:2;stroke-miterlimit:10;}
	#icon-forsyninger .st1{fill:none;stroke:currentColor;stroke-width:1.3;stroke-linejoin:round;}
	#icon-forsyninger .st2{fill:#FFFFFF;}
	#icon-forsyninger .st3{fill:currentColor;}
</style>
<circle class="st0" cx="-533" cy="420.9" r="29"/>
<path class="st1" d="m-521.5 411.2h-8.1c-12.5 0-11.5 11-11.5 11h3.8c0.5-5.5 5.4-6.4 7.5-6.4h8.4l-0.1-4.6z"/>
<rect class="st1" x="-530.7" y="407.5" width="2.8" height="3.7"/>
<rect class="st1" x="-533.5" y="404.8" width="8.3" height="2.8"/>
<path class="st1" d="m-536.7 428.7c0 1.3-1 2.3-2.3 2.3s-2.3-1-2.3-2.3 2.3-4.6 2.3-4.6 2.3 3.3 2.3 4.6z"/>
<path class="st2" d="m-525.5 435.6c-0.6 0-0.8-0.2-1.4-0.8-0.5-0.8-1.5-1-2.3-0.5-0.2 0.1-0.4 0.3-0.5 0.5-0.6 0.6-0.8 0.8-1.4 0.8s-0.8-0.2-1.4-0.8c-0.5-0.8-1.5-1-2.3-0.5-0.2 0.1-0.4 0.3-0.5 0.5-0.6 0.6-0.9 0.8-1.4 0.8s-0.9-0.2-1.4-0.8c-0.5-0.8-1.5-1-2.3-0.5-0.2 0.1-0.4 0.3-0.5 0.5-0.6 0.6-0.9 0.8-1.4 0.8s-0.9-0.2-1.4-0.8c-0.5-0.8-1.5-1-2.3-0.5-0.2 0.1-0.4 0.3-0.5 0.5-0.6 0.6-0.9 0.8-1.4 0.8 0 0-0.1 0-0.1-0.1s0-0.1 0.1-0.1c0.6 0 1.1-0.3 1.4-0.8 0.6-0.6 0.9-0.8 1.4-0.8s0.9 0.2 1.4 0.8c0.5 0.8 1.5 1 2.3 0.5 0.2-0.1 0.4-0.3 0.5-0.5 0.6-0.6 0.9-0.8 1.4-0.8s0.9 0.2 1.4 0.8c0.5 0.8 1.5 1 2.3 0.5 0.2-0.1 0.4-0.3 0.5-0.5 0.6-0.6 0.9-0.8 1.4-0.8s0.9 0.2 1.4 0.8c0.5 0.8 1.5 1 2.3 0.5 0.2-0.1 0.4-0.3 0.5-0.5 0.6-0.6 0.8-0.8 1.4-0.8s0.8 0.2 1.4 0.8c0.3 0.5 0.8 0.7 1.4 0.8 0 0 0.1 0 0.1 0.1s-0.1 0.1-0.1 0.1z"/>
<path class="st3" d="m-528.3 433.3c-0.7 0-1.4 0.4-1.8 1-0.4 0.5-0.6 0.6-1 0.6s-0.6-0.1-1-0.6c-0.7-1-2-1.2-3-0.6-0.2 0.2-0.4 0.3-0.6 0.6-0.4 0.5-0.6 0.6-1 0.6s-0.6-0.1-1-0.6c-0.7-1-2-1.2-3-0.6-0.2 0.2-0.4 0.3-0.6 0.6-0.4 0.5-0.6 0.6-1 0.6s-0.6-0.1-1-0.6c-0.7-1-2-1.2-3-0.6-0.2 0.2-0.4 0.3-0.6 0.6-0.4 0.5-0.6 0.6-1 0.6-0.3 0-0.6 0.4-0.5 0.7 0 0.3 0.3 0.5 0.5 0.5 0.7 0 1.4-0.4 1.8-1 0.4-0.5 0.6-0.6 1-0.6s0.6 0.1 1 0.6c0.7 1 2 1.2 3 0.6 0.2-0.2 0.4-0.3 0.6-0.6 0.4-0.5 0.6-0.6 1-0.6s0.6 0.1 1 0.6c0.7 1 2 1.2 3 0.6 0.2-0.2 0.4-0.3 0.6-0.6 0.4-0.5 0.6-0.6 1-0.6s0.6 0.1 1 0.6c0.7 1 2 1.2 3 0.6 0.2-0.2 0.4-0.3 0.6-0.6 0.4-0.5 0.6-0.6 1-0.6s0.6 0.1 1 0.6c0.4 0.6 1.1 1 1.8 1 0.3 0 0.6-0.4 0.5-0.7 0-0.3-0.3-0.5-0.5-0.5-0.4 0-0.6-0.1-1-0.6-0.4-0.6-1.1-1-1.8-1z"/>
</svg>
