<svg id="icon-havne" enable-background="new 0 0 62 62" version="1.1" viewBox="0 0 62 62" xml:space="preserve" xmlns="http://www.w3.org/2000/svg">
<style type="text/css">
	#icon-havne .st0{fill:#FFFFFF;stroke:currentColor;stroke-width:2;stroke-miterlimit:10;}
	#icon-havne .st1{fill:currentColor;}
</style>
<circle class="st0" cx="31.3" cy="30.8" r="29"/>
<path class="st1" d="m42.1 43.7c0.5 0 0.8 0.2 1.3 0.7 0.6 0.7 1.4 1.2 2.4 1.1 0.4 0 0.8-0.2 0.8-0.6s-0.2-0.8-0.6-0.8h-0.2c-0.5 0-0.8-0.2-1.3-0.7-1-1.3-2.9-1.5-4.2-0.5l-0.5 0.5c-0.5 0.5-0.8 0.7-1.3 0.7s-0.8-0.2-1.3-0.7c-1-1.3-2.9-1.5-4.2-0.5l-0.5 0.5c-0.5 0.5-0.8 0.7-1.3 0.7s-0.8-0.2-1.3-0.7c-1-1.3-2.9-1.5-4.2-0.5l-0.5 0.5c-0.5 0.5-0.8 0.7-1.3 0.7s-0.8-0.2-1.3-0.7c-1-1.3-2.9-1.5-4.2-0.5l-0.5 0.5c-0.5 0.5-0.8 0.7-1.3 0.7-0.4 0-0.8 0.2-0.8 0.6s0.2 0.8 0.6 0.8h0.2c0.9 0 1.8-0.4 2.4-1.1 0.5-0.5 0.8-0.7 1.3-0.7s0.8 0.2 1.3 0.7c1 1.3 2.9 1.5 4.2 0.5 0.3-0.2 0.3-0.3 0.5-0.5 0.5-0.5 0.8-0.7 1.3-0.7s0.8 0.2 1.3 0.7c1 1.3 2.9 1.5 4.2 0.5 0.2-0.2 0.4-0.3 0.5-0.5 0.5-0.5 0.8-0.7 1.3-0.7s0.8 0.2 1.3 0.7c1 1.3 2.9 1.5 4.2 0.5l0.5-0.5c0.5-0.5 0.7-0.7 1.2-0.7z"/>
<path class="st1" d="m30.8 33.5c-0.1-0.4 0.1-0.8 0.5-0.8l6.2-1.2h0.2l6.2 1.2c0.4 0.1 0.6 0.5 0.5 0.8l-2.4 6.2c-0.1 0.2-0.3 0.4-0.6 0.4h-7.5c-0.3 0-0.5-0.2-0.6-0.4l-2.5-6.2zm1.5 0.2 2.1 5.2h6.6l2.1-5.2-5.4-1.1-5.4 1.1z"/>
<path class="st1" d="m28.3 33.9h-8.1c-0.3 0-0.6-0.3-0.6-0.6s0.3-0.6 0.6-0.6h8.7c0.3 0 0.6 0.3 0.6 0.6v6.2c0 0.3-0.3 0.6-0.6 0.6h-8.7c-0.3 0-0.6-0.3-0.6-0.6s0.3-0.6 0.6-0.6h8.1v-5z"/>
<polygon class="st1" points="22 21.4 22 33.3 20.8 33.3 20.8 20.1 24.5 20.1 24.5 33.3 23.3 33.3 23.3 21.4"/>
<polygon class="st1" points="38.3 39.5 37 39.5 37 32 38.3 32"/>
<path class="st1" d="M33.3,27.6v5c0,0.3-0.3,0.6-0.6,0.6S32,33,32,32.6V27c0-0.3,0.3-0.6,0.6-0.6h10c0.3,0,0.6,0.3,0.6,0.6v5.6   c0,0.3-0.3,0.6-0.6,0.6S42,33,42,32.6v-5H33.3z"/>
<path class="st1" d="m20.2 21.4c-0.3 0-0.6-0.3-0.6-0.6v-5c0-0.3 0.3-0.6 0.6-0.6h5c0.3 0 0.6 0.3 0.6 0.6v5c0 0.3-0.3 0.6-0.6 0.6h-5zm0.6-1.3h3.7v-3.7h-3.7v3.7z"/>
<path class="st1" d="m39.5 17.6h-14.3c-0.3 0-0.6-0.3-0.6-0.6s0.3-0.6 0.6-0.6h15c0.3 0 0.6 0.3 0.6 0.6v2.5c0 0.3-0.3 0.6-0.6 0.6h-15c-0.3 0-0.6-0.3-0.6-0.6s0.3-0.6 0.6-0.6h14.4v-1.3z"/>
<path class="st1" d="m35.8 22c0-0.3 0.3-0.6 0.6-0.6h2.5c0.3 0 0.6 0.3 0.6 0.6v2.5c0 0.3-0.3 0.6-0.6 0.6h-2.5c-0.3 0-0.6-0.3-0.6-0.6v-2.5zm1.2 0.6v1.2h1.2v-1.2h-1.2z"/>
<polygon class="st1" points="38.3 22 37 22 37 18.9 38.3 18.9"/>
<circle class="st0" cx="128" cy="52" r="29"/>
</svg>
