<svg id="icon-kommuner" enable-background="new 0 0 62 62" version="1.1" viewBox="0 0 62 62" xml:space="preserve" xmlns="http://www.w3.org/2000/svg">
<style type="text/css">
	#icon-kommuner .st0{fill:#FFFFFF;stroke:currentColor;stroke-width:2;stroke-miterlimit:10;}
	#icon-kommuner .st1{fill:currentColor;}
</style>
<circle class="st0" cx="31" cy="31" r="29"/>
<path class="st1" d="m48.5 38.6v-11.2c0-0.2-0.1-0.5-0.3-0.6l-4.6-3.3c-0.3-0.2-0.6-0.2-0.9 0l-4.5 3.3c-0.2 0.1-0.3 0.4-0.3 0.6v0.4h-7.5v-0.4-0.3l-3.2-8.7v-2.3c0-0.4-0.3-0.8-0.8-0.8s-0.8 0.3-0.8 0.8v2.3l-3.2 8.7v0.3 2.3l-3.4-2.4c-0.3-0.2-0.6-0.2-0.9 0l-4.5 3.3c-0.2 0.1-0.3 0.4-0.3 0.6v7.4h-2v1.5h39.3v-1.5h-2.1zm-14.4-2.8c-0.4 0-0.8 0.3-0.8 0.8v2.1h-3v-5.3h7.5v5.3h-3v-2.1c0.1-0.5-0.3-0.8-0.7-0.8zm-15.6-0.1c-0.4 0-0.8 0.3-0.8 0.8v2.1h-3v-5.4h7.6v5.4h-3.1v-2.1c0-0.4-0.3-0.8-0.7-0.8zm5.3-6.4h5v9.3h-1.8v-2.1c0-0.4-0.3-0.8-0.8-0.8s-0.8 0.3-0.8 0.8v2.1h-1.7v-9.3zm19.5 6.5c-0.4 0-0.8 0.3-0.8 0.8v2.1h-3.1v-9.3h7.6v9.3h-3v-2.1c0-0.5-0.3-0.8-0.7-0.8zm-3.9-8 3.8-2.7 3.8 2.7v0.1l-7.6-0.1zm-1.5 1.5v2.5h-7.5v-2.5h7.5zm-11.6-8.6 2.5 6.8v0.3h-5v-0.3l2.5-6.8zm-7.8 8.1 3.8 2.7v0.1h-7.6v-0.1l3.8-2.7z"/>
<path class="st1" d="m45 33.9c0.4 0 0.8-0.3 0.8-0.8v-1.5c0-0.4-0.3-0.8-0.8-0.8s-0.8 0.3-0.8 0.8v1.5c0 0.5 0.4 0.8 0.8 0.8z"/>
<path class="st1" d="m41.5 30.9c-0.4 0-0.8 0.3-0.8 0.8v1.5c0 0.4 0.3 0.8 0.8 0.8s0.8-0.3 0.8-0.8v-1.5c0-0.5-0.4-0.8-0.8-0.8z"/>
</svg>
