<svg id="icon-offshore" enable-background="new 0 0 62 62" version="1.1" viewBox="0 0 62 62" xml:space="preserve" xmlns="http://www.w3.org/2000/svg">
<style type="text/css">
	#icon-offshore .st0{fill:#FFFFFF;stroke:currentColor;stroke-width:2;stroke-miterlimit:10;}
	#icon-offshore .st1{fill:currentColor;}
	#icon-offshore .st2{fill:currentColor;stroke:currentColor;stroke-linecap:round;stroke-linejoin:round;stroke-miterlimit:10;}
</style>
<circle class="st0" cx="31.1" cy="31" r="29"/>
<path class="st1" d="m39.4 16.8m1.1 0.8m-7.2 6.4c0.4 0.4 1 0.4 1.4 0l5.6-6.2-0.7-0.8-6.2 5.6c-0.4 0.4-0.4 1-0.1 1.4zm0.7 1.3c-1.1 0-2-0.9-2-2 0-0.6 0.2-1.1 0.7-1.5l6.4-5.8c0.3-0.2 0.7-0.2 1 0l1.1 1.1c0.3 0.3 0.3 0.8 0 1.1l-5.8 6.4c-0.3 0.4-0.8 0.7-1.4 0.7z"/>
<path class="st1" d="m22.8 16.8m-1.1 0.8m0.2 0.2 5.6 6.2c0.3 0.5 0.9 0.6 1.4 0.4s0.6-0.9 0.4-1.4c-0.1-0.1-0.2-0.3-0.4-0.4l-6.3-5.6-0.7 0.8zm7.3 6.6m-1 1c-0.6 0-1.1-0.3-1.5-0.7l-5.8-6.4c-0.3-0.3-0.3-0.8 0-1.1l1.2-1.2c0.3-0.2 0.7-0.2 1 0l6.4 5.8c0.8 0.7 0.9 2 0.2 2.8-0.4 0.5-1 0.7-1.5 0.8z"/>
<path class="st1" d="m31.1 24.2c-1.2 0-2.1 0.9-2.1 2.1s0.9 2.1 2.1 2.1 2.1-0.9 2.1-2.1-0.9-2.1-2.1-2.1m0 5.2c-1.7 0-3.1-1.4-3.1-3.1s1.4-3.1 3.1-3.1 3.1 1.4 3.1 3.1-1.4 3.1-3.1 3.1"/>
<path class="st1" d="m22 34.9 0.8 0.8 6.2-5.6c0.5-0.3 0.6-0.9 0.4-1.4-0.3-0.5-0.9-0.6-1.4-0.4-0.1 0.1-0.3 0.2-0.4 0.4l-5.6 6.2zm0.8 1.8c-0.3 0-0.5-0.1-0.7-0.3l-0.9-0.9c-0.3-0.4-0.3-1 0-1.3l5.7-6.3c0.8-0.8 2.1-0.8 2.8 0 0.8 0.8 0.8 2.1 0 2.8l-6.3 5.7c-0.1 0.2-0.3 0.3-0.6 0.3z"/>
<path class="st1" d="m33.2 28.6c-0.4 0.4-0.4 1 0 1.4l6.2 5.6 0.8-0.8-5.6-6.2c-0.5-0.3-1.1-0.3-1.4 0zm6.3 7.1m0 1c-0.2 0-0.5-0.1-0.7-0.2l-6.3-5.6c-0.8-0.8-0.8-2.1 0-2.8s2.1-0.8 2.8 0l5.7 6.3c0.3 0.4 0.3 1 0 1.3l-0.9 0.9c-0.1 0-0.4 0.1-0.6 0.1z"/>
<path class="st1" d="m39.5 44.7c0.4 0 0.6 0.1 1 0.6 0.4 0.6 1.1 1 1.8 1 0.3 0 0.6-0.4 0.5-0.7 0-0.3-0.3-0.5-0.5-0.5-0.4 0-0.6-0.1-1-0.6-0.7-1-2-1.2-3-0.6-0.2 0.2-0.4 0.3-0.6 0.6-0.4 0.5-0.6 0.6-1 0.6s-0.6-0.1-1-0.6c-0.7-1-2-1.2-3-0.6-0.2 0.2-0.4 0.3-0.6 0.6-0.4 0.5-0.6 0.6-1 0.6s-0.6-0.1-1-0.6c-0.7-1-2-1.2-3-0.6-0.2 0.2-0.4 0.3-0.6 0.6-0.4 0.5-0.6 0.6-1 0.6s-0.6-0.1-1-0.6c-0.7-1-2-1.2-3-0.6-0.2 0.2-0.4 0.3-0.6 0.6-0.4 0.5-0.6 0.6-1 0.6-0.3 0-0.6 0.4-0.5 0.7 0 0.3 0.3 0.5 0.5 0.5 0.7 0 1.4-0.4 1.8-1 0.4-0.5 0.6-0.6 1-0.6s0.6 0.1 1 0.6c0.7 1 2 1.2 3 0.6 0.2-0.2 0.4-0.3 0.6-0.6 0.4-0.5 0.6-0.6 1-0.6s0.6 0.1 1 0.6c0.7 1 2 1.2 3 0.6 0.2-0.2 0.4-0.3 0.6-0.6 0.4-0.5 0.6-0.6 1-0.6s0.6 0.1 1 0.6c0.7 1 2 1.2 3 0.6 0.2-0.2 0.4-0.3 0.6-0.6 0.4-0.4 0.6-0.6 1-0.6z"/>
<line class="st2" x1="29.8" x2="28.5" y1="29" y2="41.8"/>
<line class="st2" x1="33.5" x2="32.2" y1="41.8" y2="29"/>
</svg>
