<svg id="icon-privatkunder" enable-background="new -564 389.9 62 62" version="1.1" viewBox="-564 389.9 62 62" xml:space="preserve" xmlns="http://www.w3.org/2000/svg">
<style type="text/css">
	#icon-privatkunder .st0{fill:#FFFFFF;stroke:currentColor;stroke-width:2;stroke-miterlimit:10;}
	#icon-privatkunder .st1{fill:currentColor;}
</style>
<circle class="st0" cx="-533" cy="420.9" r="29"/>
<path class="st1" d="m-548.4 430.2c-0.4 0-0.7 0.4-0.7 0.8s0.3 0.6 0.7 0.7h31.6c0.4 0 0.7-0.4 0.7-0.8s-0.3-0.6-0.7-0.7h-1.7v-11.3h1.7c0.4 0 0.8-0.3 0.8-0.8 0-0.1 0-0.2-0.1-0.3l-5.9-12.8c-0.1-0.3-0.4-0.4-0.7-0.4h-19.7c-0.3 0-0.6 0.2-0.7 0.4l-5.9 12.8c-0.2 0.4 0 0.8 0.4 1 0.1 0 0.2 0.1 0.3 0.1h1.7v11.3h-1.8zm28.4 0h-2.5v-8.1c0-0.4-0.3-0.8-0.8-0.8h-5.4c-0.4 0-0.8 0.3-0.8 0.8v8.1h-2.4v-8.1c0-0.4-0.3-0.8-0.8-0.8h-9.3c-0.4 0-0.8 0.3-0.8 0.8v8.1h-2.4v-11.3h25.2v11.3zm-4 0h-3.9v-7.4h3.9v7.4zm-9.4 0h-7.8v-1.4h7.9l-0.1 1.4zm0-3h-7.8v-1.4h7.9l-0.1 1.4zm0-3h-7.8v-1.4h7.9l-0.1 1.4zm15.4-6.8h-4.5v-3.5c0-1.9-1.6-3.5-3.5-3.5s-3.5 1.6-3.5 3.5v3.4h-6.4v-3.4c0-1.9-1.6-3.5-3.5-3.5s-3.5 1.6-3.5 3.5v3.4h-4.5l0.1-0.1 5.3-11.1h18.8l5.2 11.3zm-6 0h-3.9v-3.5c-0.3-1.1 0.4-2.2 1.5-2.4 1.1-0.3 2.2 0.4 2.4 1.5 0.1 0.3 0.1 0.7 0 1v3.4zm-13.3 0h-3.9v-3.5c-0.2-1.1 0.5-2.1 1.5-2.4s2.1 0.5 2.4 1.5c0.1 0.3 0.1 0.6 0 0.8v3.6z"/>
</svg>
