<svg id="icon-vedvarende-energi" enable-background="new 0 0 62 62" version="1.1" viewBox="0 0 62 62" xml:space="preserve" xmlns="http://www.w3.org/2000/svg">
<style type="text/css">
	#icon-vedvarende-energi .st0{fill:#FFFFFF;stroke:currentColor;stroke-width:2;stroke-miterlimit:10;}
	#icon-vedvarende-energi .st1{fill:none;stroke:currentColor;stroke-width:1.3;stroke-linecap:round;stroke-linejoin:round;stroke-miterlimit:10;}
	#icon-vedvarende-energi path {fill:currentColor}
</style>
<circle class="st0" cx="31" cy="31.2" r="29"/>
<circle class="st1" cx="24.1" cy="19" r="3.5"/>
<line class="st1" x1="24.1" x2="24.1" y1="11.6" y2="13.1"/>
<line class="st1" x1="18.9" x2="20" y1="13.8" y2="14.8"/>
<line class="st1" x1="16.8" x2="18.3" y1="19" y2="19"/>
<line class="st1" x1="18.9" x2="20" y1="24.2" y2="23.1"/>
<line class="st1" x1="24.1" x2="24.1" y1="26.3" y2="24.9"/>
<line class="st1" x1="29.4" x2="28.3" y1="24.2" y2="23.1"/>
<line class="st1" x1="31.5" x2="30" y1="19" y2="19"/>
<line class="st1" x1="29.4" x2="28.3" y1="13.8" y2="14.8"/>
<path d="m48.6 44c-0.1 0.2-0.3 0.3-0.5 0.3h-12.3v2.4h2.1c0.3 0 0.6 0.3 0.6 0.6s-0.3 0.6-0.6 0.6h-13.9c-0.3 0-0.6-0.3-0.6-0.6s0.3-0.6 0.6-0.6h2v-2.4h-12.3c-0.3 0-0.6-0.3-0.6-0.6 0-0.1 0-0.2 0.1-0.3l7.3-13c0.1-0.2 0.3-0.3 0.5-0.3h19.9c0.2 0 0.4 0.1 0.5 0.3l7.3 13c0 0.2 0 0.4-0.1 0.6zm-6.5-9.8h-4.7l0.8 2.9h5.5l-1.6-2.9zm-5.5-2.9 0.5 1.7h4.4l-1-1.7h-3.9zm-5.1 1.7h4.4l-0.5-1.7h-3.9v1.7zm0 4.1h5.5l-0.8-2.9h-4.8v2.9zm-5.6-4.1h4.4v-1.7h-3.9l-0.5 1.7zm-0.3 1.2-0.8 2.9h5.6v-2.9h-4.8zm-5.3-1.2h4.4l0.5-1.7h-3.9l-1 1.7zm-2.3 4.1h5.5l0.8-2.9h-4.7l-1.6 2.9zm3.8 6 1.4-4.9h-5.8l-2.7 4.8 7.1 0.1zm8.5 0v-4.9h-5.9l-1.4 4.8 7.3 0.1zm4.3 1.2h-7.4v2.4h7.5l-0.1-2.4zm4.1-1.2-1.4-4.8h-5.9v4.8h7.3zm8.4 0-2.7-4.8h-5.8l1.4 4.8h7.1z"/>
</svg>
