<?xml version="1.0" standalone="no"?>
<!DOCTYPE svg PUBLIC "-//W3C//DTD SVG 20010904//EN"
 "http://www.w3.org/TR/2001/REC-SVG-20010904/DTD/svg10.dtd">
<svg version="1.0" xmlns="http://www.w3.org/2000/svg"
 width="1863.000000pt" height="1863.000000pt" viewBox="0 0 1863.000000 1863.000000"
 preserveAspectRatio="xMidYMid meet">
<metadata>
Created by potrace 1.14, written by Peter Selinger 2001-2017
</metadata>
<g transform="translate(0.000000,1863.000000) scale(0.100000,-0.100000)"
fill="#000000" stroke="none">
<path d="M15320 14351 c0 -14 33 -91 39 -91 4 0 17 23 28 50 l21 50 -44 -2
c-24 0 -44 -4 -44 -7z"/>
<path d="M14597 14314 c-2 -2 -44 -6 -93 -9 -86 -4 -190 -11 -324 -20 -36 -2
-112 -7 -170 -10 -58 -3 -130 -8 -160 -10 -30 -2 -102 -6 -160 -10 -58 -3
-127 -8 -155 -10 -27 -3 -99 -7 -160 -10 -60 -4 -134 -8 -164 -10 -29 -2 -101
-6 -160 -10 -165 -10 -181 -12 -186 -17 -6 -5 -11 -80 -20 -298 -3 -74 -8
-180 -10 -235 -12 -256 -16 -368 -20 -460 -4 -96 -10 -210 -20 -435 -3 -58 -7
-159 -10 -225 -3 -66 -7 -167 -10 -225 -3 -58 -7 -163 -10 -235 -3 -71 -7
-170 -10 -220 -2 -49 -7 -148 -10 -220 -3 -71 -8 -172 -11 -223 l-5 -94 163 7
c183 7 349 12 578 20 85 3 211 7 280 10 153 6 330 13 560 21 278 10 282 10
350 29 85 23 99 25 205 29 97 4 177 -6 183 -22 2 -7 39 -9 100 -7 129 6 377
14 592 21 96 3 200 7 230 9 30 2 61 4 68 4 14 1 13 9 -8 111 -6 30 -13 66 -16
80 -10 51 -35 134 -259 840 -29 93 -64 203 -124 395 -44 139 -74 264 -86 350
-2 16 -6 44 -9 60 -3 17 -8 50 -11 75 -8 61 -16 104 -18 106 -1 1 -24 12 -52
25 -27 13 -54 25 -58 27 -12 6 31 -69 64 -110 17 -21 28 -38 25 -38 -15 0 -93
35 -110 49 -19 16 -19 16 0 -17 10 -19 34 -50 53 -69 l34 -35 -44 6 -44 7 50
-46 c28 -25 63 -53 78 -61 42 -22 26 -30 -47 -24 -36 3 -66 4 -66 1 0 -7 63
-115 92 -159 l29 -43 -28 7 c-15 3 -49 16 -74 28 l-47 22 10 -26 c5 -14 20
-44 34 -67 23 -39 23 -43 7 -43 -11 0 -36 9 -58 20 -22 11 -40 20 -41 20 -4 0
6 -80 17 -123 6 -26 9 -50 7 -52 -3 -3 -23 11 -45 30 -52 44 -85 111 -85 170
0 25 -2 45 -4 45 -3 0 -22 -9 -44 -20 -22 -11 -41 -20 -44 -20 -5 0 1 66 10
93 4 12 15 34 26 49 l19 27 -52 -15 c-28 -8 -53 -14 -54 -12 -9 9 19 98 46
146 16 28 27 52 25 52 -2 0 -33 -16 -69 -35 -36 -19 -68 -35 -72 -35 -12 0 5
102 24 145 10 22 32 55 50 73 17 17 29 32 27 32 -2 0 -29 -11 -60 -25 l-56
-25 6 28 c4 15 16 45 27 67 l19 40 -28 -26 c-16 -14 -47 -41 -68 -60 -21 -19
-45 -40 -52 -47 -11 -10 -14 -6 -20 23 -9 48 -20 52 -29 9 -7 -41 -45 -124
-56 -124 -4 0 -16 11 -27 25 -24 31 -27 31 -29 3 -3 -44 -14 -88 -21 -88 -4 0
-16 16 -26 35 -21 38 -35 45 -37 18 -4 -49 -14 -103 -31 -161 l-13 -44 -27 54
c-15 29 -34 62 -42 73 -13 18 -15 16 -22 -30 -4 -28 -8 -87 -8 -132 -1 -98
-12 -96 -62 12 l-33 70 5 -170 c4 -155 3 -168 -11 -150 -9 11 -25 50 -36 87
-12 38 -25 66 -29 63 -4 -3 -12 -29 -16 -58 -4 -28 -9 -55 -10 -59 -1 -5 -2
-32 -3 -60 -1 -47 -2 -50 -14 -33 -37 55 -60 236 -42 330 16 82 28 125 52 185
84 210 281 441 482 565 34 21 61 41 62 44 5 34 5 51 1 51 -3 0 -20 -18 -39
-40 -19 -21 -47 -48 -62 -60 l-29 -20 8 34 c4 18 11 40 15 47 8 13 -17 -5 -52
-38 -35 -32 -101 -83 -107 -83 -5 0 -6 18 -3 41 l5 41 -32 -38 c-17 -21 -40
-48 -51 -60 -20 -21 -75 -60 -75 -53 0 3 9 29 20 59 25 67 25 83 2 49 -39 -57
-86 -108 -127 -138 -58 -42 -67 -40 -61 12 5 36 4 39 -7 23 -39 -60 -98 -133
-117 -144 -20 -12 -21 -12 -15 7 3 12 8 33 11 48 3 15 7 30 10 35 3 4 -18 8
-45 8 -28 0 -51 4 -51 10 0 15 68 139 98 181 77 104 189 199 290 245 117 54
286 78 417 61 42 -6 54 -4 75 14 l25 20 -63 -6 c-35 -3 -71 -9 -80 -11 -9 -3
4 15 30 39 l48 45 -58 -14 c-81 -19 -89 -18 -67 6 18 19 17 20 -4 20 -12 0
-48 -13 -81 -30 -72 -36 -77 -37 -57 -6 13 20 14 25 3 29 -8 3 -16 4 -19 1z"/>
<path d="M16311 14260 c27 -48 36 -50 37 -10 0 24 -5 33 -24 40 -37 14 -37 14
-13 -30z"/>
<path d="M16180 14214 c6 -16 16 -34 22 -41 15 -19 -2 -17 -55 6 l-45 20 14
-36 15 -35 -48 5 c-52 7 -77 12 -108 22 -13 4 -8 -4 15 -24 19 -17 29 -31 23
-31 -34 0 -6 -18 54 -34 72 -19 158 -58 220 -100 l38 -26 5 32 c3 18 6 73 5
121 l0 88 -65 23 c-36 13 -73 27 -83 31 -15 6 -16 4 -7 -21z"/>
<path d="M12087 14194 c-1 -1 -49 -5 -107 -8 -58 -4 -127 -9 -155 -11 -27 -2
-88 -7 -135 -10 -47 -3 -105 -8 -130 -10 -25 -2 -92 -7 -150 -10 -58 -3 -121
-8 -140 -10 -32 -4 -70 -6 -295 -20 -38 -2 -99 -7 -135 -10 -36 -3 -101 -7
-145 -10 -44 -3 -107 -7 -140 -10 -33 -3 -96 -7 -140 -10 -44 -3 -105 -8 -135
-10 -30 -2 -95 -6 -145 -10 -49 -3 -112 -7 -140 -10 -27 -3 -90 -7 -140 -10
-49 -4 -110 -8 -135 -10 -25 -2 -90 -6 -145 -10 -55 -3 -122 -8 -150 -10 -27
-3 -88 -7 -135 -10 -83 -5 -127 -8 -280 -20 -111 -8 -195 -14 -290 -20 -47 -3
-110 -8 -140 -10 -129 -10 -217 -17 -279 -20 -76 -4 -215 -14 -281 -20 -25 -2
-90 -7 -145 -10 -55 -3 -118 -8 -140 -10 -22 -2 -85 -7 -140 -10 -55 -4 -116
-8 -135 -10 -19 -2 -87 -6 -150 -10 -126 -8 -170 -12 -175 -17 -2 -2 -6 -34
-9 -73 -4 -38 -9 -92 -11 -120 -3 -27 -7 -86 -10 -130 -3 -44 -8 -100 -10
-125 -2 -25 -7 -85 -10 -135 -3 -49 -8 -101 -10 -115 -2 -14 -6 -76 -10 -139
-4 -62 -8 -121 -10 -131 -2 -9 -6 -64 -10 -123 -3 -58 -8 -121 -10 -139 -2
-18 -6 -73 -10 -123 -3 -49 -8 -112 -10 -140 -8 -93 -19 -237 -30 -390 -3 -44
-8 -98 -10 -120 -3 -22 -7 -76 -10 -120 -3 -44 -7 -107 -10 -140 -2 -33 -7
-98 -10 -145 -3 -47 -8 -103 -10 -125 -2 -22 -7 -75 -10 -117 l-6 -78 143 5
c79 3 181 7 228 10 47 2 155 7 240 10 85 3 202 8 260 11 57 2 159 7 225 9 66
3 170 7 230 10 61 3 171 7 245 10 74 3 180 8 235 10 55 3 168 7 250 10 83 3
191 7 240 10 50 2 155 7 235 10 80 3 186 8 235 10 50 2 162 7 250 10 88 3 196
8 240 10 44 3 152 7 240 10 88 3 205 8 260 10 55 3 159 7 230 10 159 6 334 13
480 20 61 3 160 7 220 10 288 11 410 17 413 20 6 5 10 44 16 155 4 63 9 133
11 155 2 22 7 81 10 130 6 87 8 118 20 290 4 44 8 107 10 140 7 100 15 227 20
290 9 115 16 210 20 285 3 41 7 103 10 136 3 34 7 97 10 140 6 103 14 218 20
274 2 25 7 92 10 150 3 58 8 125 10 150 2 25 7 88 10 140 3 52 8 115 10 140 2
25 7 89 10 144 4 54 8 112 10 128 l4 29 -70 -3 c-39 -1 -71 -3 -72 -4z"/>
<path d="M15852 13855 c-1 -15 5 -28 17 -35 31 -16 32 -12 10 25 -12 19 -22
35 -23 35 -1 0 -3 -11 -4 -25z"/>
<path d="M15958 13793 c3 -18 36 -58 87 -108 94 -93 157 -179 214 -290 30 -59
40 -74 41 -55 1 14 3 64 6 113 4 85 4 89 -26 132 -17 25 -40 64 -51 88 l-20
42 6 -40 c3 -22 8 -56 11 -75 l6 -35 -30 29 c-17 15 -45 56 -64 90 -32 58 -33
60 -36 31 -2 -16 -7 -34 -12 -38 -8 -9 -120 118 -120 135 0 4 -4 8 -9 8 -4 0
-6 -12 -3 -27z"/>
<path d="M6588 13785 c-2 -2 -43 -6 -93 -9 -49 -3 -112 -8 -140 -10 -27 -3
-81 -8 -120 -11 -121 -10 -178 -14 -250 -20 -38 -4 -95 -8 -125 -10 -30 -3
-82 -7 -115 -10 -33 -2 -91 -7 -130 -10 -38 -3 -83 -8 -100 -10 -16 -2 -73 -7
-125 -10 -52 -4 -111 -8 -130 -10 -19 -2 -71 -6 -115 -10 -44 -3 -100 -8 -125
-10 -25 -2 -79 -7 -120 -10 -41 -4 -95 -8 -120 -10 -25 -2 -76 -7 -115 -10
-38 -3 -95 -8 -125 -10 -30 -3 -84 -7 -120 -10 -36 -3 -92 -7 -125 -10 -119
-10 -251 -22 -355 -30 -36 -3 -90 -8 -120 -10 -30 -3 -84 -7 -120 -10 -36 -3
-90 -7 -120 -10 -30 -2 -89 -7 -130 -10 -139 -11 -175 -16 -181 -27 -4 -5 -12
-56 -18 -112 -6 -57 -13 -111 -15 -122 -2 -10 -7 -46 -11 -79 -8 -68 -13 -114
-20 -165 -5 -38 -12 -96 -20 -162 -3 -24 -8 -54 -10 -68 -3 -14 -7 -50 -10
-80 -5 -49 -8 -74 -20 -160 -4 -27 -23 -173 -29 -230 -3 -19 -10 -73 -16 -120
-13 -100 -17 -137 -25 -205 -4 -27 -8 -61 -10 -75 -2 -14 -6 -50 -10 -80 -3
-30 -8 -66 -10 -80 -2 -14 -7 -50 -10 -80 -4 -30 -8 -66 -10 -80 -4 -29 -14
-99 -20 -152 -3 -21 -7 -55 -10 -75 -7 -64 -15 -121 -20 -160 -18 -134 -34
-277 -31 -280 6 -6 53 -6 176 1 69 4 175 9 235 11 173 7 350 14 470 20 188 9
325 15 455 20 69 3 170 7 225 10 55 3 152 7 215 10 148 6 337 14 470 21 58 2
157 7 220 9 136 5 327 13 460 20 52 3 151 7 220 10 164 7 314 16 316 18 1 1 5
27 8 57 4 30 8 71 10 90 4 33 8 68 22 208 3 31 7 68 9 82 2 14 6 54 10 90 4
36 8 76 10 90 2 14 7 57 10 95 4 39 9 84 11 100 2 17 6 58 9 93 3 35 7 75 9
90 3 15 8 56 11 92 3 36 8 79 10 95 2 17 6 59 10 95 3 36 8 76 10 90 2 14 7
54 10 90 6 64 8 86 20 185 3 28 7 73 10 101 2 27 9 88 14 135 6 46 15 134 21
194 6 61 12 126 15 145 2 19 7 60 10 90 9 84 15 142 20 180 2 19 7 64 10 100
4 36 8 77 11 92 4 27 3 27 -50 27 -30 -1 -56 -2 -58 -4z"/>
<path d="M15440 13745 c13 -14 25 -23 27 -21 8 8 -22 46 -36 46 -10 0 -7 -8 9
-25z"/>
<path d="M15546 13665 c5 -58 17 -133 59 -370 2 -11 10 -49 19 -85 8 -36 18
-81 21 -100 26 -152 109 -415 300 -945 26 -71 48 -134 49 -140 1 -5 4 -14 8
-20 17 -29 100 -307 124 -415 14 -69 30 -129 34 -133 14 -16 46 2 46 26 1 38
15 330 19 377 2 25 6 110 9 190 7 138 9 179 21 385 2 50 7 146 11 215 3 69 7
158 9 198 l4 72 -48 45 c-52 49 -89 114 -107 190 -6 28 -14 43 -17 35 -3 -8
-8 -23 -11 -32 -9 -28 -26 -21 -76 30 -32 34 -51 65 -64 106 l-19 59 -14 -33
-13 -33 -30 28 c-33 32 -58 80 -75 145 l-12 45 -17 -40 -17 -40 -19 25 c-11
14 -32 54 -47 90 -27 67 -43 93 -43 73 0 -7 -5 -24 -11 -40 l-11 -28 -16 30
c-9 17 -29 59 -45 95 l-27 65 6 -70z"/>
<path d="M15430 13653 c0 -8 63 -123 69 -128 6 -3 0 68 -7 90 -1 3 -2 11 -2
19 0 8 -13 16 -30 18 -16 3 -30 3 -30 1z"/>
<path d="M15767 11173 c-2 -2 -265 -11 -542 -18 -389 -11 -426 -14 -470 -35
-41 -20 -103 -33 -159 -33 -26 -1 -27 -2 -12 -11 67 -40 67 -42 -22 -70 -46
-14 -90 -26 -98 -26 -30 0 -12 -19 24 -25 30 -5 50 0 97 23 82 41 239 90 316
99 95 11 210 6 281 -12 79 -21 186 -77 224 -117 16 -17 23 -28 17 -24 -18 10
-109 33 -163 40 l-45 7 30 -23 c51 -39 100 -86 95 -91 -3 -3 -25 4 -50 15 -25
12 -85 36 -135 54 l-89 34 57 -56 c32 -31 56 -58 53 -61 -3 -3 -33 4 -68 16
-79 26 -148 41 -148 32 0 -3 21 -28 46 -55 25 -26 44 -49 42 -51 -2 -1 -39 3
-83 11 -121 20 -122 20 -90 -18 31 -37 25 -43 -34 -29 -45 10 -49 6 -26 -26
10 -15 12 -24 5 -28 -13 -8 -147 -8 -161 0 -5 4 -9 4 -9 1 0 -3 19 -14 43 -25
33 -15 38 -21 25 -26 -30 -12 -20 -21 20 -20 20 0 71 -5 113 -11 227 -35 426
-190 543 -422 15 -30 26 -56 23 -58 -2 -2 -24 -4 -50 -5 -46 -2 -46 -2 -40
-33 3 -17 10 -39 15 -49 33 -64 -50 6 -109 92 -44 65 -49 63 -27 -11 16 -53
-97 23 -168 114 -27 33 -48 58 -48 56 0 -2 11 -32 24 -66 15 -39 20 -62 13
-62 -6 0 -42 32 -80 70 l-69 70 5 -35 c3 -21 1 -35 -6 -35 -14 0 -74 47 -122
95 -21 22 -36 32 -32 22 4 -10 7 -25 7 -33 0 -7 45 -43 101 -79 162 -106 287
-243 370 -407 35 -69 84 -214 94 -277 l7 -44 -31 6 c-53 11 -136 57 -180 99
-22 22 -54 67 -70 100 l-28 60 -7 -35 c-6 -34 -7 -35 -38 -24 -40 15 -111 84
-136 132 l-19 38 -11 -32 c-10 -27 -14 -31 -30 -22 -31 17 -83 81 -107 133
-23 50 -35 47 -35 -9 0 -15 -5 -23 -12 -21 -13 5 -76 80 -115 139 l-23 34 0
-38 c0 -20 -5 -37 -10 -37 -11 0 -100 117 -100 131 0 5 -4 9 -9 9 -15 0 -6
-60 10 -71 10 -6 5 -9 -18 -9 -19 0 -33 -5 -33 -12 0 -21 63 -148 73 -148 6 0
8 -3 4 -6 -19 -19 163 -305 310 -485 41 -50 191 -220 263 -299 14 -15 62 -67
106 -116 45 -49 95 -103 110 -120 16 -16 69 -75 119 -130 88 -97 239 -252 301
-307 l30 -27 74 25 c117 40 175 32 269 -34 49 -34 86 -46 126 -42 6 1 11 20
11 44 1 37 9 247 19 497 2 47 6 153 10 235 3 83 8 193 10 245 2 52 7 174 10
270 3 96 8 216 10 265 25 527 25 775 0 815 -2 3 -6 23 -9 45 -3 22 -8 51 -11
65 -7 33 -13 63 -25 130 -6 30 -13 69 -16 85 -3 17 -7 41 -8 55 l-3 25 -157 0
c-87 0 -158 -1 -159 -2z"/>
<path d="M14157 11124 c-2 -3 -109 -7 -512 -19 -168 -5 -509 -16 -610 -20 -49
-2 -140 -4 -202 -5 -95 -2 -113 -4 -117 -18 -3 -10 -7 -73 -11 -142 -3 -69 -8
-152 -10 -185 -3 -33 -7 -105 -10 -160 -5 -108 -11 -217 -20 -360 -3 -49 -7
-133 -10 -185 -3 -52 -8 -126 -10 -165 -3 -38 -8 -115 -10 -170 -3 -55 -7
-136 -10 -180 -7 -107 -13 -218 -20 -345 -3 -58 -8 -134 -10 -170 -5 -85 -14
-243 -20 -350 -3 -47 -8 -125 -10 -175 -3 -49 -8 -133 -10 -185 -3 -52 -7
-127 -10 -166 -5 -70 -5 -72 20 -76 14 -3 30 1 36 8 23 28 115 43 304 49 167
5 438 16 515 20 30 2 116 6 190 10 74 4 160 8 190 10 30 2 114 6 185 9 72 4
162 8 200 11 74 5 232 13 380 20 50 3 126 7 170 9 247 14 353 19 383 19 17 0
32 2 32 5 0 2 -11 17 -25 34 -27 32 -48 98 -39 122 10 25 76 37 243 43 86 2
157 5 158 6 0 1 -51 56 -115 123 -172 178 -414 451 -552 623 -19 24 -47 58
-61 75 -126 154 -274 380 -370 569 -35 69 -66 117 -74 117 -8 0 -17 0 -20 0
-3 0 -19 7 -36 16 -17 8 -32 14 -34 12 -5 -5 75 -90 105 -112 l25 -18 -45 5
c-25 3 -57 10 -72 16 -16 6 -28 9 -28 6 0 -2 28 -27 62 -56 57 -48 59 -51 32
-49 -74 5 -66 -4 55 -65 62 -31 88 -49 64 -43 -18 4 -144 -15 -137 -21 5 -3
32 -33 59 -66 28 -33 61 -70 75 -83 l25 -23 -65 6 c-36 4 -70 11 -77 17 -34
28 0 -28 56 -91 11 -13 21 -26 21 -28 0 -5 -76 5 -104 14 -16 4 -18 1 -12 -23
4 -16 19 -55 35 -86 15 -32 25 -58 22 -58 -3 0 -30 14 -58 30 -58 33 -96 82
-113 148 -6 23 -14 42 -17 42 -4 0 -19 -12 -34 -26 -15 -14 -32 -23 -38 -20
-16 10 -13 91 4 132 l15 35 -47 -25 c-25 -15 -48 -24 -50 -22 -11 11 -3 97 15
149 10 31 17 57 14 57 -6 0 -105 -82 -114 -94 -11 -15 -25 55 -21 104 2 25 16
71 32 102 l30 58 -44 -30 c-46 -32 -67 -38 -60 -17 2 6 7 29 10 51 3 21 8 42
11 47 3 5 3 9 0 9 -2 0 -22 -24 -43 -52 -21 -29 -49 -66 -62 -81 l-25 -28 -15
48 -14 48 -13 -89 c-15 -97 -23 -115 -45 -94 -43 40 -44 40 -43 -23 1 -32 -1
-59 -4 -59 -3 0 -21 14 -39 32 l-32 31 0 -74 c1 -41 1 -93 0 -117 -1 -49 -1
-50 -68 36 -37 47 -42 50 -45 30 -4 -31 14 -182 29 -233 l6 -20 -23 20 c-13
11 -40 47 -62 79 -21 33 -38 55 -38 50 0 -15 30 -154 51 -238 11 -43 18 -80
16 -83 -7 -7 -52 56 -80 110 -13 27 -26 43 -29 35 -6 -18 -3 -121 5 -183 7
-47 6 -49 -9 -30 -9 11 -29 47 -45 81 -137 296 -12 729 303 1053 66 67 75 81
71 105 -6 28 -6 28 -34 -20 -16 -27 -40 -62 -54 -79 l-26 -30 5 48 c3 26 3 47
1 47 -2 0 -17 -19 -33 -42 -48 -69 -88 -111 -100 -104 -6 3 -9 15 -7 25 2 10
0 24 -5 31 -6 9 -10 6 -15 -10 -10 -31 -69 -122 -90 -140 -16 -13 -17 -10 -11
48 3 34 4 62 2 62 -1 0 -18 -30 -37 -66 -18 -37 -54 -87 -79 -113 l-45 -46 -3
55 -3 55 -26 -65 c-25 -61 -77 -150 -89 -150 -3 0 -4 25 -1 55 5 61 2 64 -61
46 l-33 -10 6 37 c9 59 35 132 77 211 122 235 324 367 603 395 46 5 66 12 85
32 l25 25 -27 -5 c-14 -2 -48 -14 -74 -25 -25 -12 -48 -21 -50 -21 -12 0 0 24
27 55 18 20 30 37 28 40 -3 2 -30 -9 -62 -24 -45 -22 -56 -24 -51 -12 3 9 9
24 12 35 5 18 4 18 -24 0 -16 -10 -51 -36 -78 -58 l-48 -40 7 35 c4 18 14 46
21 61 8 15 14 29 14 32 0 7 -113 -21 -169 -43 l-50 -19 14 29 c9 16 29 44 46
63 l30 34 -33 -5 c-18 -3 -50 -11 -70 -18 -21 -7 -38 -11 -38 -8 0 10 24 50
43 70 19 21 19 23 3 29 -10 4 -49 7 -86 8 -78 1 -78 9 -2 53 47 28 132 39 165
21 27 -14 32 -3 19 39 -6 20 -9 39 -6 42 9 10 80 -22 109 -50 l30 -28 -4 50
c-3 50 -2 51 20 44 34 -11 105 -61 123 -87 24 -34 26 -18 6 55 l-19 67 21 0
c52 0 133 -59 175 -126 10 -16 11 -14 7 16 -2 19 -6 45 -8 56 -4 18 -1 21 16
16 29 -7 124 -103 142 -143 l14 -34 1 58 c1 31 4 57 7 57 10 0 114 -115 151
-167 20 -29 39 -53 43 -53 3 0 12 27 18 60 25 118 88 285 134 351 l18 27 -30
4 c-17 3 -31 3 -33 2z"/>
<path d="M11947 11033 c-1 -1 -85 -4 -187 -8 -102 -3 -223 -8 -270 -10 -47 -2
-164 -7 -260 -10 -96 -3 -218 -8 -270 -10 -52 -2 -162 -7 -245 -10 -82 -3
-208 -8 -280 -10 -177 -7 -352 -14 -525 -20 -80 -3 -197 -7 -260 -10 -63 -2
-185 -7 -270 -10 -85 -3 -204 -8 -265 -10 -60 -3 -173 -7 -250 -10 -77 -2
-198 -7 -270 -10 -71 -2 -200 -7 -285 -10 -85 -3 -198 -8 -250 -10 -92 -4
-302 -12 -520 -20 -307 -10 -684 -26 -687 -29 -3 -2 -18 -173 -28 -321 -3 -44
-8 -102 -10 -130 -3 -27 -7 -86 -10 -130 -8 -107 -14 -187 -20 -265 -3 -36 -8
-94 -10 -130 -3 -36 -7 -101 -10 -145 -3 -44 -7 -100 -10 -125 -2 -25 -7 -83
-10 -130 -3 -47 -7 -105 -10 -130 -2 -25 -7 -83 -10 -130 -3 -47 -8 -105 -10
-130 -2 -25 -7 -88 -10 -140 -3 -52 -8 -111 -10 -130 -2 -19 -7 -75 -10 -125
-3 -49 -8 -106 -10 -125 -2 -19 -7 -78 -10 -130 -3 -52 -7 -115 -10 -140 -2
-25 -7 -85 -10 -135 -4 -49 -8 -107 -10 -128 -4 -32 -1 -39 19 -47 27 -10 202
-46 269 -55 27 -4 56 -8 66 -10 9 -2 59 -6 111 -10 52 -4 111 -9 130 -11 48
-5 624 -5 680 0 25 3 92 7 150 11 144 8 274 20 350 30 19 2 55 7 80 10 25 4
56 8 70 10 14 2 45 7 70 10 25 3 56 8 70 10 29 4 113 18 120 20 61 16 100 14
166 -9 39 -14 82 -27 95 -29 13 -3 42 -10 64 -15 22 -6 56 -14 75 -17 19 -3
42 -8 50 -10 95 -26 641 -26 740 0 8 2 42 6 75 10 234 25 529 117 664 209 49
33 59 37 100 31 109 -14 258 -32 321 -39 25 -3 86 -10 135 -16 50 -6 110 -13
135 -16 25 -3 56 -7 70 -9 14 -3 52 -7 85 -10 33 -4 71 -8 85 -11 14 -2 55 -6
92 -10 l68 -6 1 33 c0 19 2 57 4 84 2 28 6 100 10 160 3 61 8 135 10 165 4 53
12 181 20 320 5 86 15 239 20 320 3 36 7 108 10 160 3 52 8 131 10 175 3 44 7
112 10 150 3 39 8 113 11 165 3 52 7 124 9 160 2 36 6 104 9 153 3 48 8 126
11 175 3 48 8 116 10 152 3 36 7 110 10 165 23 377 26 429 31 437 7 11 -18 23
-49 23 -16 0 -29 -1 -30 -2z"/>
<path d="M14376 10901 l-29 -6 26 -14 c23 -12 28 -11 53 8 l27 21 -24 -1 c-13
-1 -37 -4 -53 -8z"/>
<path d="M6167 10833 c-1 0 -76 -4 -167 -8 -91 -4 -203 -8 -250 -11 -47 -2
-148 -6 -225 -9 -77 -3 -180 -7 -230 -10 -49 -2 -160 -6 -245 -10 -85 -3 -198
-7 -250 -10 -184 -9 -336 -15 -475 -20 -77 -3 -178 -7 -225 -10 -82 -4 -316
-14 -470 -20 -264 -10 -442 -17 -490 -20 -30 -2 -99 -5 -153 -6 -55 -1 -101
-7 -106 -13 -5 -6 -12 -45 -15 -86 -11 -119 -16 -173 -21 -205 -3 -17 -7 -57
-10 -90 -3 -33 -8 -76 -10 -95 -2 -19 -7 -62 -10 -95 -7 -71 -15 -150 -20
-185 -2 -14 -6 -56 -10 -95 -6 -68 -12 -123 -20 -195 -3 -19 -7 -62 -10 -95
-3 -33 -8 -76 -10 -95 -3 -19 -7 -64 -10 -100 -3 -36 -8 -76 -10 -90 -3 -14
-7 -55 -10 -90 -3 -36 -7 -81 -10 -100 -2 -19 -6 -64 -10 -100 -3 -36 -8 -81
-11 -101 -2 -20 -7 -56 -9 -80 -14 -142 -17 -166 -20 -189 -2 -14 -7 -58 -10
-98 -4 -41 -8 -81 -10 -90 -1 -9 -6 -53 -10 -97 -3 -44 -8 -93 -10 -110 -11
-88 -18 -153 -20 -175 -5 -64 -17 -178 -21 -202 -5 -34 -3 -34 44 -5 79 50
207 92 342 113 79 11 210 4 308 -17 23 -5 57 -11 75 -14 17 -3 59 -9 92 -14
59 -9 480 -8 520 2 29 7 139 21 148 19 4 -1 49 7 99 19 101 22 166 47 186 71
19 23 65 15 221 -36 249 -83 392 -105 641 -101 91 2 185 6 210 9 25 3 72 8
105 11 63 6 133 14 175 20 99 14 136 19 140 20 6 2 110 17 130 20 8 1 36 5 62
10 l47 7 5 62 c3 33 8 97 11 141 9 124 15 214 20 280 3 33 7 96 10 140 4 44 8
100 11 125 2 25 6 88 10 140 3 52 7 111 9 130 2 19 6 76 10 125 3 50 8 113 10
140 5 63 14 190 20 275 2 36 7 99 10 140 3 41 8 98 10 125 2 28 7 91 10 140 3
50 8 113 10 140 2 28 7 88 10 135 3 47 8 103 10 125 2 22 7 87 10 145 3 58 8
121 10 140 2 19 7 79 11 132 l6 96 -82 -1 c-45 -1 -82 -3 -83 -4z"/>
<path d="M14610 10382 c0 -21 13 -35 44 -46 20 -7 20 -7 0 16 -43 50 -44 51
-44 30z"/>
<path d="M14240 10091 c0 -5 6 -14 14 -20 12 -10 13 -8 9 8 -5 21 -23 30 -23
12z"/>
<path d="M6083 7080 c-186 -37 -329 -149 -413 -323 -82 -168 -88 -439 -14
-622 79 -194 243 -329 444 -364 55 -9 233 -8 280 2 56 13 140 42 140 49 0 5 6
8 13 8 41 0 166 124 210 208 35 66 71 181 59 183 -4 1 -35 2 -69 3 -62 3 -62
3 -69 -28 -41 -187 -206 -307 -424 -308 -103 0 -162 13 -239 52 -165 83 -263
268 -262 490 2 207 84 378 225 467 168 107 439 86 573 -45 49 -48 90 -122 99
-181 4 -23 12 -41 18 -42 15 -1 87 -1 110 0 19 1 19 -2 1 91 -10 53 -76 168
-122 213 -111 108 -216 148 -398 152 -66 2 -139 -1 -162 -5z"/>
<path d="M12058 7075 c-2 -2 -18 -5 -36 -8 -283 -44 -497 -306 -507 -620 -11
-339 197 -624 497 -682 113 -22 275 -14 366 18 167 58 276 157 361 323 43 85
63 175 66 291 11 403 -265 690 -657 682 -48 -1 -89 -3 -90 -4z m259 -144 c218
-66 356 -270 354 -521 -1 -36 -3 -72 -5 -80 -1 -8 -6 -33 -10 -55 -4 -22 -25
-76 -47 -120 -90 -186 -262 -287 -474 -279 -224 9 -401 156 -465 387 -27 95
-22 254 10 344 24 70 81 162 129 210 123 123 328 169 508 114z"/>
<path d="M15385 7066 c-127 -30 -235 -118 -275 -223 -48 -126 -23 -270 60
-352 63 -62 68 -65 131 -88 58 -22 99 -29 224 -38 44 -4 87 -8 95 -10 8 -3 30
-7 48 -10 82 -14 168 -78 194 -144 15 -40 11 -117 -10 -164 -46 -102 -152
-157 -312 -161 -98 -3 -159 8 -223 37 -94 43 -144 117 -156 230 -1 4 -31 7
-67 7 l-67 0 6 -57 c18 -169 159 -300 358 -332 74 -12 235 -8 302 8 124 29
238 117 284 219 36 77 38 203 6 275 -41 88 -141 167 -251 197 -47 12 -72 16
-172 25 -181 18 -217 27 -269 71 -112 94 -83 290 53 361 75 39 199 49 293 24
91 -25 166 -110 179 -203 l7 -48 67 0 67 0 -4 43 c-14 167 -120 286 -294 331
-67 17 -205 18 -274 2z"/>
<path d="M1269 7062 c-12 -2 -14 -95 -13 -635 1 -347 2 -634 3 -637 2 -8 497
-4 556 4 111 15 207 81 252 174 25 52 27 67 27 167 0 95 -3 117 -24 159 -24
50 -92 112 -149 135 l-31 13 32 18 c46 24 95 91 113 153 19 70 13 197 -13 258
-40 93 -115 152 -229 178 -45 11 -480 22 -524 13z m525 -141 c83 -41 122 -119
114 -225 -8 -90 -41 -147 -106 -180 -48 -25 -59 -26 -242 -28 l-165 -1 -3 219
c-1 120 -1 223 2 229 2 7 62 10 178 10 160 -2 179 -4 222 -24z m57 -578 c174
-98 136 -390 -56 -430 -22 -5 -121 -9 -220 -8 l-180 0 -3 225 c-1 123 -1 229
2 235 2 7 70 11 204 10 l199 -2 54 -30z"/>
<path d="M2731 6424 l0 -634 369 0 370 0 0 60 c0 41 -4 60 -12 61 -7 0 -142 1
-300 1 l-288 1 -1 36 c0 46 0 391 0 411 1 14 36 15 271 15 l270 -1 0 61 0 61
-270 -1 -269 -1 -3 161 c-2 88 -2 187 0 220 l3 61 289 -1 290 -1 0 63 0 63
-359 -1 -359 -1 -1 -634z"/>
<path d="M4450 7041 c-5 -10 -50 -131 -101 -267 -50 -137 -104 -285 -121 -328
-57 -153 -238 -646 -238 -652 0 -3 30 -4 67 -2 l67 3 69 190 c37 105 72 194
77 199 7 7 478 12 595 7 17 -1 33 -35 95 -201 l75 -200 67 0 c38 0 68 3 68 8
0 4 -108 288 -239 632 l-238 625 -116 2 c-105 2 -118 0 -127 -16z m180 -182
c93 -251 191 -507 200 -521 6 -10 7 -18 3 -19 -37 -5 -506 -3 -509 3 -3 4 4
31 14 60 113 316 195 534 203 544 6 7 22 11 36 10 22 -3 30 -13 53 -77z"/>
<path d="M7404 7048 c-4 -6 -7 -291 -7 -632 l0 -621 66 -3 67 -3 1 113 c0 62
0 191 0 286 l0 172 368 0 369 0 0 -262 c1 -145 1 -273 1 -285 1 -21 5 -23 66
-23 l65 0 0 635 0 634 -65 0 -65 -1 -1 -71 c0 -40 0 -170 0 -289 l-1 -218
-368 0 -369 0 0 248 c0 136 0 266 -1 290 l0 42 -59 0 c-35 0 -63 -5 -67 -12z"/>
<path d="M9892 6414 l0 -634 68 0 68 0 1 233 c0 127 0 255 1 283 l0 51 365 0
c325 0 365 -2 366 -16 0 -9 1 -136 1 -283 l1 -268 67 0 68 0 -2 633 -1 632
-66 1 -66 1 -1 -271 c0 -149 -1 -280 -1 -291 -1 -20 -8 -20 -361 -19 -198 1
-363 4 -366 7 -3 3 -6 133 -7 289 l-2 283 -67 1 -66 2 0 -634z"/>
<path d="M13406 7042 c-7 -12 1 -875 8 -907 41 -184 145 -305 306 -356 86 -28
246 -34 341 -14 148 30 255 111 316 237 53 109 59 174 58 633 l0 410 -66 1
-67 1 0 -421 c0 -359 -2 -431 -16 -486 -43 -165 -154 -252 -336 -263 -214 -13
-361 87 -401 273 -6 30 -11 219 -12 472 l-2 423 -62 2 c-35 1 -65 -2 -67 -5z"/>
<path d="M16633 6413 l0 -633 366 2 366 3 2 58 c2 48 -1 57 -15 57 -9 1 -144
1 -299 1 -258 0 -283 2 -284 17 -3 107 -1 434 3 438 3 3 126 5 272 6 l267 0
-3 61 -3 60 -267 -1 c-200 0 -268 2 -269 11 0 7 -1 105 -2 220 -2 178 0 207
13 208 8 1 134 3 280 4 146 1 271 3 278 4 8 1 12 20 12 59 l0 59 -359 0 -358
0 0 -634z"/>
<path d="M4275 4574 l0 -294 221 0 221 0 -3 28 c-1 15 -2 30 -3 34 -1 3 -72 6
-158 6 -87 0 -168 0 -179 1 -20 1 -21 6 -22 91 0 52 5 93 11 97 5 3 81 6 168
6 l157 -1 -1 31 -2 32 -165 0 -165 0 -2 98 -1 97 182 0 183 0 -1 33 -1 32
-220 1 -220 1 0 -293z"/>
<path d="M5049 4866 c-1 -1 -2 -133 -3 -293 l-1 -293 37 0 38 0 0 226 0 227
38 -44 c21 -24 107 -126 191 -226 139 -167 155 -183 184 -183 l32 0 0 294 0
295 -37 -1 -38 0 -1 -47 c0 -25 -1 -127 -1 -225 l0 -180 -30 35 c-16 19 -41
48 -55 64 -14 17 -86 103 -161 192 -118 142 -138 161 -163 161 -16 -1 -30 -1
-30 -2z"/>
<path d="M5875 4862 c-3 -3 -5 -18 -5 -34 l0 -28 93 -1 c50 -1 100 -1 110 0
16 2 17 -16 17 -259 l0 -261 38 3 37 3 2 240 c1 132 2 248 2 258 1 16 11 18
94 17 132 -2 124 -5 119 33 l-4 33 -248 1 c-137 0 -252 -2 -255 -5z"/>
<path d="M6690 4574 l0 -294 220 0 220 0 0 34 0 33 -171 -1 c-94 -1 -175 2
-180 5 -5 3 -10 46 -11 95 l-1 89 165 3 c151 2 166 4 171 21 11 43 -3 47 -172
46 l-161 -1 0 26 c-1 14 -2 58 -3 98 l-2 72 183 0 182 0 0 33 0 33 -220 1
-220 1 0 -294z"/>
<path d="M7459 4862 c0 -4 -1 -136 -2 -295 l-2 -287 40 0 41 0 -1 108 0 107
45 2 c45 2 46 1 160 -107 115 -109 115 -110 165 -110 l50 0 -55 51 c-153 142
-172 162 -158 170 7 5 18 7 24 5 22 -8 118 49 137 82 26 44 29 127 7 172 -41
82 -94 101 -297 105 -84 2 -153 1 -154 -3z m321 -78 c64 -26 92 -108 54 -162
-29 -42 -70 -55 -188 -56 l-110 -1 -1 118 -1 117 103 0 c71 0 115 -5 143 -16z"/>
<path d="M8205 4862 c-3 -3 -5 -18 -5 -34 0 -24 4 -28 28 -29 15 0 63 -1 107
-2 l80 -2 2 -230 c0 -126 2 -242 2 -257 1 -25 4 -28 39 -28 l38 0 -1 248 c-1
136 0 252 3 259 2 8 34 11 95 11 51 0 97 0 103 1 7 1 14 16 16 34 l4 34 -253
0 c-139 0 -255 -2 -258 -5z"/>
<path d="M9163 4863 c-7 -3 -13 -9 -13 -14 0 -5 -18 -51 -41 -101 -22 -51 -47
-108 -55 -125 -8 -18 -20 -48 -28 -65 -46 -104 -116 -269 -116 -273 0 -3 18
-5 40 -5 33 0 42 4 49 23 5 12 19 43 30 68 l22 46 154 1 155 0 16 -36 c9 -21
22 -52 30 -69 12 -29 18 -33 54 -33 22 0 40 2 40 4 0 2 -11 28 -24 57 -13 30
-52 119 -86 199 -34 80 -73 170 -87 200 -14 30 -32 71 -40 91 -13 33 -18 37
-51 37 -20 0 -43 -2 -49 -5z m105 -235 c34 -76 58 -139 54 -141 -4 -2 -59 -3
-122 -2 -95 1 -114 3 -112 15 2 8 20 56 42 105 21 50 46 107 55 129 9 21 18
37 20 35 2 -2 30 -66 63 -141z"/>
<path d="M9799 4868 c-1 -2 -2 -135 -3 -295 l-1 -293 37 0 c36 0 38 2 39 33 1
33 0 522 -1 545 0 7 -14 12 -35 12 -19 0 -36 -1 -36 -2z"/>
<path d="M10229 4865 c-1 0 -2 -132 -3 -292 l-1 -293 37 0 38 0 2 226 3 225
110 -132 c61 -73 115 -137 120 -143 6 -6 41 -48 79 -93 59 -71 74 -83 100 -83
l31 0 -1 288 c-1 158 -2 290 -3 294 0 3 -17 6 -36 6 l-35 0 -2 -225 -3 -226
-90 109 c-49 60 -92 111 -95 114 -4 3 -41 47 -83 98 -109 131 -110 132 -140
130 -15 -1 -28 -3 -28 -3z"/>
<path d="M11144 4822 c-5 -26 -9 -49 -9 -52 -1 -6 -15 -85 -21 -120 -2 -14 -6
-36 -9 -50 -2 -13 -7 -40 -10 -60 -3 -20 -7 -45 -9 -55 -2 -11 -7 -40 -11 -65
-9 -57 -13 -79 -21 -112 -5 -27 -4 -28 35 -28 26 0 41 5 42 13 1 16 7 52 18
107 6 25 13 68 16 95 4 28 11 69 16 92 5 22 12 65 15 95 6 51 10 66 17 57 2
-2 37 -105 79 -229 l75 -225 33 0 33 0 76 227 c42 125 80 230 85 235 5 4 6 3
3 -3 -3 -6 -2 -26 3 -45 5 -19 11 -52 14 -74 7 -51 13 -85 37 -222 10 -61 19
-114 19 -117 0 -3 18 -6 41 -6 39 0 40 1 35 28 -4 15 -8 38 -11 52 -9 53 -46
276 -51 305 -2 17 -6 41 -9 55 -3 14 -7 41 -10 60 -14 90 -12 88 -60 87 -31 0
-45 -5 -48 -16 -3 -9 -33 -95 -67 -191 -34 -96 -66 -190 -71 -207 -6 -18 -13
-33 -18 -33 -4 0 -42 100 -85 223 l-77 223 -44 1 -44 2 -7 -47z"/>
<path d="M12059 4866 c-1 0 -2 -133 -3 -293 l-1 -293 221 0 221 0 -1 33 -1 32
-150 2 c-83 1 -165 2 -182 2 l-33 1 0 95 c0 92 1 95 23 96 12 0 88 1 170 1
l147 0 0 29 c0 16 -6 30 -12 30 -7 1 -78 3 -158 4 -80 1 -151 3 -157 4 -10 1
-13 27 -13 96 l0 95 184 0 183 0 -1 33 -1 32 -218 1 c-119 1 -218 1 -218 0z"/>
<path d="M12823 4576 l-1 -296 38 0 38 0 0 193 c1 105 1 208 1 227 l1 35 33
-39 c336 -404 347 -416 380 -416 l32 0 0 294 0 294 -37 0 -38 1 -1 -92 c0 -51
0 -152 -1 -224 0 -73 -1 -133 -3 -133 -2 0 -34 37 -72 83 -37 45 -80 96 -94
112 -15 17 -68 79 -119 140 -78 93 -97 110 -124 113 l-33 3 0 -295z"/>
<path d="M13650 4834 l0 -34 109 0 109 0 -2 -260 -1 -260 40 0 40 0 -1 248 c0
147 4 252 9 260 7 9 37 12 104 11 52 -1 97 1 100 5 13 13 8 56 -7 60 -8 2
-124 4 -257 4 l-243 -1 0 -33z"/>
</g>
</svg>
