<?xml version="1.0" encoding="utf-8"?>
<!-- Generator: Adobe Illustrator 22.0.1, SVG Export Plug-In . SVG Version: 6.00 Build 0)  -->
<svg version="1.1" id="Layer_1" xmlns="http://www.w3.org/2000/svg" xmlns:xlink="http://www.w3.org/1999/xlink" x="0px" y="0px"
	 width="62px" height="62px" viewBox="0 0 62 62" style="enable-background:new 0 0 62 62;" xml:space="preserve">
<style type="text/css">
	.st0{fill:#FFFFFF;stroke:#CC0000;stroke-width:2;stroke-miterlimit:10;}
	.st1{fill:#CC0000;}
</style>
<title>Broer, jernbaner, veje-icon</title>
<g>
	<g id="Layer_2_3_">
		<g id="Offshore_2_">
			<circle class="st0" cx="31" cy="31" r="29"/>
		</g>
	</g>
</g>
<path class="st1" d="M31,25.3c-0.6,0-1.2,0.3-1.7,0.7c-0.4,0.4-0.7,1-0.7,1.7c0,0.6,0.3,1.2,0.7,1.7c0.4,0.4,1,0.7,1.7,0.7
	c0.7,0,1.3-0.2,1.7-0.7c0.4-0.4,0.7-1,0.7-1.7c0-0.6-0.3-1.2-0.7-1.7C32.3,25.6,31.7,25.3,31,25.3z M32,28.7c-0.2,0.2-0.6,0.4-1,0.4
	c-0.4,0-0.8-0.2-1-0.4c-0.2-0.3-0.4-0.6-0.4-1c0-0.4,0.2-0.8,0.4-1c0.3-0.2,0.6-0.4,1-0.4c0.4,0,0.8,0.2,1,0.4
	c0.2,0.3,0.4,0.6,0.4,1C32.4,28.1,32.2,28.5,32,28.7z"/>
<path class="st1" d="M36.8,26.6c-0.2-0.1-0.3-0.2-0.5-0.3c-0.2-0.1-0.5-0.2-0.9-0.4l0-0.1c0.2-0.4,0.3-0.7,0.4-0.9
	c0.1-0.2,0.1-0.4,0.1-0.6c0-0.2-0.1-0.3-0.1-0.4l0-0.1l-0.9-0.9l-0.1-0.1l-0.1-0.1h-0.3l-0.2,0c-0.2,0.1-0.5,0.2-1.2,0.5l-0.1,0
	c-0.3-0.6-0.4-1-0.5-1.2c-0.1-0.1-0.1-0.2-0.3-0.3c-0.1-0.1-0.4-0.1-0.4-0.1h-1.2l-0.1,0c-0.1,0-0.3,0.1-0.4,0.2
	c-0.1,0.2-0.2,0.3-0.3,0.5c-0.1,0.2-0.2,0.5-0.4,0.9l-0.1,0c-0.3-0.2-0.6-0.3-0.8-0.4c-0.3-0.1-0.5-0.2-0.7-0.2h-0.1h-0.2l-1,1
	c0,0-0.1,0.1-0.1,0.2C26.1,24,26,24.2,26,24.3c0,0.2,0.1,0.4,0.1,0.6c0.1,0.2,0.2,0.5,0.4,0.8l0,0.1c-0.6,0.3-1,0.4-1.2,0.5
	c-0.1,0.1-0.2,0.1-0.3,0.3c-0.1,0.1-0.1,0.4-0.1,0.4v1.2l0,0.1c0,0.1,0.1,0.3,0.2,0.4c0.2,0.1,0.3,0.2,0.5,0.3
	c0.2,0.1,0.5,0.2,0.9,0.4l0,0.1c-0.2,0.4-0.3,0.7-0.4,0.9c-0.1,0.2-0.1,0.4-0.1,0.6c0,0.2,0.1,0.3,0.1,0.4l0,0.1l0.9,0.9l0.1,0.1
	l0.1,0.1h0.3c0.1,0,0.2,0,0.4-0.1c0.2-0.1,0.5-0.2,1-0.4l0.1,0c0.3,0.6,0.4,1,0.5,1.2c0.1,0.1,0.1,0.2,0.3,0.3
	c0.1,0.1,0.4,0.1,0.4,0.1h1.2l0.1,0c0.1,0,0.3-0.1,0.4-0.2c0.1-0.2,0.2-0.3,0.3-0.5c0.1-0.2,0.2-0.5,0.4-0.9l0.1,0
	c0.3,0.2,0.6,0.3,0.8,0.4c0.3,0.1,0.5,0.2,0.7,0.2h0.1h0.2l1-1l0,0c0,0,0.1-0.1,0.1-0.2c0.1-0.1,0.1-0.2,0.1-0.3
	c0-0.2-0.1-0.4-0.1-0.6c-0.1-0.2-0.2-0.5-0.4-0.8l0-0.1c0.6-0.3,1-0.4,1.2-0.5c0.1-0.1,0.2-0.1,0.3-0.3c0.1-0.1,0.1-0.4,0.1-0.4
	v-1.2l0-0.1C37,26.8,36.9,26.6,36.8,26.6z M34.2,31.6c-0.2-0.1-0.6-0.2-1.2-0.5L32.8,31l-0.7,0.3l-0.2,0.1l-0.1,0.2
	c-0.3,0.6-0.4,1-0.5,1.2h-0.9c-0.1-0.2-0.3-0.5-0.5-1.2l-0.1-0.2L29.2,31L29,31l-0.2,0.1c-0.6,0.3-0.9,0.4-1.1,0.5l0,0L27.1,31
	c0-0.1,0-0.1,0.1-0.3c0.1-0.2,0.2-0.5,0.4-1l0.1-0.2l-0.3-0.7l-0.1-0.2l-0.2-0.1c-0.6-0.3-1-0.4-1.2-0.5v-0.9
	c0.2-0.1,0.5-0.3,1.2-0.5l0.2-0.1l0.3-0.7l0.1-0.2l-0.1-0.2c-0.2-0.4-0.4-0.7-0.4-0.9c0-0.1,0-0.1-0.1-0.2l0.6-0.6
	c0.2,0.1,0.6,0.2,1.2,0.5l0.2,0.1l0.7-0.3L30,24l0.1-0.2c0.3-0.6,0.4-1,0.5-1.2h0.9c0.1,0.2,0.3,0.5,0.5,1.2L32,24l0.7,0.3l0.2,0.1
	l0.2-0.1c0.6-0.3,0.9-0.4,1.1-0.5l0,0l0.6,0.6c0,0.1,0,0.1-0.1,0.3c-0.1,0.2-0.2,0.5-0.4,1l-0.1,0.2l0.3,0.7l0.1,0.2l0.2,0.1
	c0.6,0.3,1,0.4,1.2,0.5v0.9c-0.2,0.1-0.5,0.3-1.2,0.5l-0.2,0.1l-0.3,0.7l-0.1,0.2l0.1,0.2c0.2,0.4,0.4,0.7,0.4,0.9
	c0,0.1,0,0.1,0.1,0.2L34.2,31.6z"/>
<path class="st1" d="M44,18.8H18c-1.4,0-2.6,1.2-2.6,2.6v16c0,1.4,1.2,2.6,2.6,2.6h11.4l-0.8,3.1h-2.3v1h2.1h5.3h2.1v-1h-2.3l0,0
	L32.6,40H44c1.4,0,2.6-1.2,2.6-2.6v-16C46.6,20,45.4,18.8,44,18.8z M29.6,43.1l0.8-3.1h1.1l0.8,3.1H29.6L29.6,43.1z M45.4,37.4
	c0,0.4-0.2,0.7-0.4,1c-0.3,0.3-0.6,0.4-1,0.4H18c-0.4,0-0.7-0.2-1-0.4c-0.3-0.3-0.4-0.6-0.4-1v-1h28.9V37.4z M45.4,35.4H16.6v-14
	c0-0.8,0.6-1.4,1.4-1.4h26c0.4,0,0.7,0.2,1,0.4c0.3,0.3,0.4,0.6,0.4,1V35.4z"/>
</svg>
