<?xml version="1.0" encoding="utf-8"?>
<!-- Generator: Adobe Illustrator 22.1.0, SVG Export Plug-In . SVG Version: 6.00 Build 0)  -->
<svg version="1.1" id="Layer_1" xmlns="http://www.w3.org/2000/svg" xmlns:xlink="http://www.w3.org/1999/xlink" x="0px" y="0px"
	 viewBox="0 0 64 64" style="enable-background:new 0 0 64 64;" xml:space="preserve">
<style type="text/css">
	.st0{fill:#FFFFFF;stroke:#000000;stroke-miterlimit:10;}
	.st1{fill:none;stroke:#000000;stroke-width:2;stroke-miterlimit:10;}
</style>
<circle class="st0" cx="32" cy="32" r="31.5"/>
<path class="st1" d="M25.5,36.5"/>
<g>
	<path d="M49.5,39.5V28.3c0-0.2-0.1-0.5-0.3-0.6l-4.6-3.3c-0.3-0.2-0.6-0.2-0.9,0l-4.5,3.3c-0.2,0.1-0.3,0.4-0.3,0.6v0.4h-7.5v-0.4
		c0-0.1,0-0.2,0-0.3l-3.2-8.7V17c0-0.4-0.3-0.8-0.8-0.8s-0.8,0.3-0.8,0.8v2.3L23.4,28c0,0.1,0,0.2,0,0.3v2.3l-3.4-2.4
		c-0.3-0.2-0.6-0.2-0.9,0l-4.5,3.3c-0.2,0.1-0.3,0.4-0.3,0.6v7.4h-2V41h39.3v-1.5H49.5z M35.1,36.6c-0.4,0-0.8,0.3-0.8,0.8v2.1h-3
		v-5.3h7.5v5.3h-3v-2.1C35.9,37,35.5,36.6,35.1,36.6z M19.5,36.6c-0.4,0-0.8,0.3-0.8,0.8v2.1h-3V34h7.6v5.4h-3.1v-2.1
		C20.2,36.9,19.9,36.6,19.5,36.6z M24.8,30.2h5v9.3h-1.8v-2.1c0-0.4-0.3-0.8-0.8-0.8s-0.8,0.3-0.8,0.8v2.1h-1.7V30.2z M44.3,36.6
		c-0.4,0-0.8,0.3-0.8,0.8v2.1h-3.1v-9.3H48v9.3h-3v-2.1C45,37,44.7,36.6,44.3,36.6z M40.4,28.6l3.8-2.7l3.8,2.7v0.1L40.4,28.6
		L40.4,28.6z M38.9,30.2v2.5h-7.5v-2.5H38.9z M27.3,21.6l2.5,6.8v0.3h-5v-0.3L27.3,21.6z M19.5,29.7l3.8,2.7v0.1h-7.6v-0.1
		L19.5,29.7z"/>
	<path d="M46,34.8c0.4,0,0.8-0.3,0.8-0.8v-1.5c0-0.4-0.3-0.8-0.8-0.8s-0.8,0.3-0.8,0.8V34C45.2,34.4,45.6,34.8,46,34.8z"/>
	<path d="M42.5,31.8c-0.4,0-0.8,0.3-0.8,0.8V34c0,0.4,0.3,0.8,0.8,0.8s0.8-0.3,0.8-0.8v-1.5C43.3,32.1,42.9,31.8,42.5,31.8z"/>
</g>
</svg>
