<?xml version="1.0" encoding="utf-8"?>
<!-- Generator: Adobe Illustrator 23.0.2, SVG Export Plug-In . SVG Version: 6.00 Build 0)  -->
<svg version="1.1" id="Layer_1" xmlns="http://www.w3.org/2000/svg" xmlns:xlink="http://www.w3.org/1999/xlink" x="0px" y="0px"
	 viewBox="0 0 62 62" style="enable-background:new 0 0 62 62;" xml:space="preserve">
<style type="text/css">
	.st0{fill:#FFFFFF;stroke:#CC0000;stroke-width:2;stroke-miterlimit:10;}
	.st1{fill:#CC0000;stroke:#CC0000;stroke-width:0.2551;stroke-miterlimit:10;}
	.st2{fill:#CC0000;stroke:#CC0000;stroke-width:0.5102;stroke-miterlimit:10;}
	.st3{fill:#FFFFFF;stroke:#CC0000;stroke-width:1.1339;stroke-miterlimit:10;}
</style>
<title>Åbneland-icon</title>
<circle class="st0" cx="31" cy="31" r="29"/>
<path class="st1" d="M44,18c-0.4-0.4-0.4-1.1-0.1-1.5c0.1-0.1,0.1-0.2,0.1-0.3c0-0.1-0.1-0.2-0.2-0.3c-0.8-0.5-1.6-0.9-2.5-1.1
	c-0.1,0-0.2,0-0.3,0.1s-0.2,0.2-0.2,0.3c-0.1,0.6-0.5,1-1.1,1s-1.1-0.4-1.1-1c0-0.1-0.1-0.2-0.2-0.3c-0.1-0.1-0.2-0.1-0.3-0.1
	c-0.9,0.2-1.8,0.5-2.5,1.1c-0.1,0.1-0.2,0.2-0.2,0.3s0,0.2,0.1,0.3c0.4,0.5,0.3,1.1-0.1,1.5c-0.4,0.4-1.1,0.4-1.5,0.1
	C33.8,18,33.7,18,33.6,18s-0.2,0.1-0.3,0.2c-0.5,0.8-0.9,1.6-1.1,2.5c0,0.1,0,0.2,0.1,0.3c0.1,0.1,0.2,0.2,0.3,0.2
	c0.6,0.1,1,0.5,1,1.1s-0.4,1.1-1,1.1c-0.1,0-0.2,0.1-0.3,0.2s-0.1,0.2-0.1,0.3c0.2,0.9,0.5,1.8,1.1,2.5c0.1,0.1,0.2,0.2,0.3,0.2
	s0.2,0,0.3-0.1c0.4-0.4,1.1-0.3,1.5,0.1s0.4,1.1,0.1,1.5c-0.1,0.1-0.1,0.2-0.1,0.3c0,0.1,0.1,0.2,0.2,0.3c0.8,0.5,1.6,0.9,2.5,1.1
	c0.1,0,0.2,0,0.3-0.1s0.2-0.2,0.2-0.3c0.1-0.6,0.5-1,1.1-1s1.1,0.4,1.1,1c0,0.1,0.1,0.2,0.2,0.3c0.1,0.1,0.2,0.1,0.2,0.1h0.1
	c0.9-0.2,1.8-0.5,2.5-1.1c0.1-0.1,0.2-0.2,0.2-0.3c0-0.1,0-0.2-0.1-0.3c-0.4-0.5-0.3-1.1,0.1-1.5c0.4-0.4,1.1-0.4,1.5-0.1
	c0.1,0.1,0.2,0.1,0.3,0.1s0.2-0.1,0.3-0.2c0.5-0.8,0.9-1.6,1.1-2.5c0-0.1,0-0.2-0.1-0.3c-0.1-0.1-0.2-0.2-0.3-0.2
	c-0.6-0.1-1-0.5-1-1.1s0.4-1.1,1-1.1c0.1,0,0.2-0.1,0.3-0.2s0.1-0.2,0.1-0.3c-0.2-0.9-0.5-1.8-1.1-2.5c0-0.2-0.1-0.2-0.2-0.2
	s-0.2,0-0.3,0.1C45.1,18.4,44.4,18.4,44,18z M45.7,18.9c0.3,0.5,0.5,1,0.6,1.5c-0.8,0.3-1.3,1-1.3,1.8s0.5,1.6,1.3,1.8
	c-0.1,0.5-0.4,1.1-0.6,1.5c-0.7-0.3-1.6-0.2-2.2,0.4c-0.6,0.6-0.7,1.5-0.4,2.2c-0.5,0.3-1,0.5-1.5,0.6c-0.3-0.8-1-1.3-1.8-1.3
	s-1.6,0.5-1.8,1.3c-0.5-0.1-1.1-0.4-1.5-0.6c0.3-0.7,0.2-1.6-0.4-2.2c-0.6-0.6-1.5-0.7-2.2-0.4c-0.3-0.5-0.5-1-0.6-1.5
	c0.8-0.3,1.3-1,1.3-1.8s-0.5-1.6-1.3-1.8c0.1-0.5,0.4-1.1,0.6-1.5c0.7,0.3,1.6,0.2,2.2-0.4c0.6-0.6,0.7-1.5,0.4-2.2
	c0.5-0.3,1-0.5,1.5-0.6c0.3,0.8,1,1.3,1.8,1.3s1.6-0.5,1.8-1.3c0.5,0.1,1.1,0.4,1.5,0.6c-0.3,0.7-0.2,1.6,0.4,2.2
	C44,19.1,44.9,19.3,45.7,18.9z"/>
<path class="st2" d="M19.5,27.7c0.6,0.7,0.5,1.8-0.1,2.5c-0.7,0.7-1.7,0.7-2.5,0.1c-0.1-0.1-0.2-0.1-0.3-0.1c-0.1,0-0.2,0.1-0.3,0.2
	c-0.7,1.1-1.2,2.3-1.5,3.6c0,0.1,0,0.2,0.1,0.3s0.2,0.2,0.3,0.2c0.9,0.1,1.6,0.9,1.6,1.8c0,0.9-0.7,1.7-1.6,1.8
	c-0.1,0-0.2,0.1-0.3,0.2c-0.1,0.1-0.1,0.2-0.1,0.3c0.3,1.3,0.8,2.5,1.5,3.6c0.1,0.1,0.2,0.2,0.3,0.2c0.1,0,0.2,0,0.3-0.1
	c0.7-0.6,1.8-0.5,2.5,0.1c0.7,0.7,0.7,1.7,0.1,2.5c-0.1,0.1-0.1,0.2-0.1,0.3s0.1,0.2,0.2,0.3c1.1,0.7,2.3,1.2,3.6,1.5h0.1
	c0.1,0,0.2,0,0.2-0.1c0.1-0.1,0.2-0.2,0.2-0.3c0.1-0.9,0.9-1.6,1.8-1.6s1.7,0.7,1.8,1.6c0,0.1,0.1,0.2,0.2,0.3s0.2,0.1,0.3,0.1
	c1.3-0.3,2.5-0.8,3.6-1.5c0.1-0.1,0.2-0.2,0.2-0.3s0-0.2-0.1-0.3c-0.6-0.7-0.5-1.8,0.1-2.5c0.7-0.7,1.7-0.7,2.5-0.1
	c0.1,0.1,0.2,0.1,0.3,0.1s0.2-0.1,0.3-0.2c0.7-1.1,1.2-2.3,1.5-3.6c0-0.1,0-0.2-0.1-0.3s-0.2-0.2-0.3-0.2c-0.9-0.1-1.6-0.9-1.6-1.8
	c0-0.9,0.7-1.7,1.6-1.8c0.1,0,0.2-0.1,0.3-0.2c0.1-0.1,0.1-0.2,0.1-0.3c-0.3-1.3-0.8-2.5-1.5-3.6c-0.1-0.1-0.2-0.2-0.3-0.2
	s-0.2,0-0.3,0.1c-0.7,0.6-1.8,0.5-2.5-0.1c-0.7-0.7-0.7-1.7-0.1-2.5c0.1-0.1,0.1-0.2,0.1-0.3c0-0.1-0.1-0.2-0.2-0.3
	c-1.1-0.7-2.3-1.2-3.6-1.5c-0.1,0-0.2,0-0.3,0.1c-0.1,0.1-0.2,0.2-0.2,0.3c-0.1,0.9-0.9,1.6-1.8,1.6s-1.7-0.7-1.8-1.6
	c0-0.1-0.1-0.2-0.2-0.3c-0.1-0.1-0.2-0.1-0.3-0.1c-1.3,0.3-2.5,0.8-3.6,1.5c-0.1,0.1-0.2,0.2-0.2,0.3C19.4,27.5,19.4,27.7,19.5,27.7
	z M20,30.8c0.9-0.9,1-2.1,0.4-3.2c0.8-0.5,1.7-0.9,2.6-1.1c0.3,1.1,1.3,1.9,2.6,1.9s2.2-0.8,2.6-1.9c0.9,0.2,1.8,0.6,2.6,1.1
	c-0.6,1-0.4,2.3,0.4,3.2c0.9,0.9,2.1,1,3.2,0.4c0.5,0.8,0.9,1.7,1.1,2.6c-1.1,0.3-1.9,1.3-1.9,2.6c0,1.2,0.8,2.2,1.9,2.6
	c-0.2,0.9-0.6,1.8-1.1,2.6c-1-0.6-2.3-0.4-3.2,0.4c-0.9,0.9-1,2.1-0.4,3.2c-0.8,0.5-1.7,0.9-2.6,1.1c-0.3-1.1-1.3-1.9-2.6-1.9
	s-2.2,0.8-2.6,1.9c-0.9-0.2-1.8-0.6-2.6-1.1c0.6-1,0.4-2.3-0.4-3.2c-0.9-0.9-2.1-1-3.2-0.4c-0.5-0.8-0.9-1.7-1.1-2.6
	c1.1-0.3,1.9-1.3,1.9-2.6c0-1.2-0.8-2.2-1.9-2.6c0.2-0.9,0.6-1.8,1.1-2.6C17.8,31.8,19.1,31.6,20,30.8z"/>
<circle class="st3" cx="39.7" cy="22.3" r="3.2"/>
<circle class="st3" cx="25.5" cy="36.4" r="4.9"/>
</svg>
