<?xml version="1.0" encoding="utf-8"?>
<!-- Generator: Adobe Illustrator 21.1.0, SVG Export Plug-In . SVG Version: 6.00 Build 0)  -->
<svg version="1.1" id="Layer_1" xmlns="http://www.w3.org/2000/svg" xmlns:xlink="http://www.w3.org/1999/xlink" x="0px" y="0px"
	 viewBox="0 0 18.5 18.5" style="enable-background:new 0 0 18.5 18.5;" xml:space="preserve">
<style type="text/css">
	.st0{fill:#FFFFFF;}
</style>
<title>Search-icon</title>
<path class="st0" d="M16.3,2.2C14.8,0.8,13,0,11,0S7.1,0.8,5.7,2.2S3.5,5.5,3.5,7.5C3.5,9.2,4,10.7,5,12l-5,5l1.4,1.4l5-5
	c1.3,1,2.9,1.5,4.5,1.5c1.9,0,3.8-0.7,5.3-2.2C19.2,9.9,19.2,5.1,16.3,2.2z M14.9,11.4c-2.1,2.1-5.6,2.1-7.8,0c-1-1-1.6-2.4-1.6-3.9
	C5.5,6,6,4.7,7.1,3.6S9.5,2,11,2s2.9,0.6,3.9,1.6C17,5.8,17,9.2,14.9,11.4z"/>
</svg>
