<?xml version="1.0" encoding="utf-8"?>
<!-- Generator: Adobe Illustrator 19.1.0, SVG Export Plug-In . SVG Version: 6.00 Build 0)  -->
<svg version="1.1" id="Layer_1" xmlns="http://www.w3.org/2000/svg" xmlns:xlink="http://www.w3.org/1999/xlink" x="0px" y="0px"
	 viewBox="0 0 62 80" style="enable-background:new 0 0 62 80;" xml:space="preserve">
<path d="M54.5,29.7c-1.2,0-2.2,0.3-3.3,0.7c-1.4-2-3.8-3.1-6.3-3.1c-1.3,0-2.5,0.3-3.6,0.9c-1.4-1.7-3.6-2.8-6-2.8
	c-0.6,0-1.2,0.1-1.7,0.2V7.9c0-4.3-3.5-7.9-7.9-7.9s-7.9,3.5-7.9,7.9v32.8l-3.8-5.7c-1.1-1.6-2.9-2.8-4.8-3c-2-0.3-3.9,0.2-5.7,1.3
	c-1.7,1.2-2.9,2.8-3.4,4.7c-0.5,2-0.2,4,0.9,5.6c0.2,0.3,15.6,23.7,18.3,27.7c3.4,4.9,10.1,8.4,16.4,8.4h6.1c11,0,20-8.8,20.1-19.8
	V37.5C62,33,58.8,29.7,54.5,29.7z M57.5,59.4v0.4c-0.1,8.5-7.1,15.3-15.6,15.3h-6.1c-5.4,0-10.5-3.3-12.6-6.4
	C20.5,64.7,5.1,41.2,4.9,41c-0.4-0.6-0.4-1.3-0.3-2.1c0.2-0.8,0.8-1.6,1.5-2.1c0.6-0.4,1.3-0.6,2.1-0.6c0.2,0,0.4,0,0.5,0
	c0.8,0.1,1.4,0.5,1.8,1.1l7.9,12c0.5,0.8,1.6,1.2,2.5,0.9c1-0.3,1.6-1.2,1.6-2.1V7.8c0-1.9,1.5-3.4,3.4-3.4s3.4,1.5,3.4,3.4v32
	c0,1.3,1,2.2,2.2,2.2c1.3,0,2.2-1,2.2-2.2v-9.5c0.5-0.4,1.1-0.5,1.7-0.5c1.3,0,2.5,0.8,3,2.1v8.5c0,1.3,1,2.2,2.2,2.2
	c1.3,0,2.2-1,2.2-2.2v-8c0.6-0.4,1.3-0.7,2.1-0.7c1.4,0,2.8,1,3.2,2.3v7.4c0,1.3,1,2.2,2.2,2.2s2.2-1,2.2-2.2v-6.7
	c0.5-0.4,1.3-0.6,1.9-0.6c2,0,2.9,1.7,2.9,3.4L57.5,59.4L57.5,59.4z"/>
</svg>
