<?xml version="1.0" encoding="UTF-8"?><svg id="Layer_1" xmlns="http://www.w3.org/2000/svg" viewBox="0 0 446.94 310.98"><defs>
 <style>
      .cls-1{fill:#ffffff;stroke-width:0px;}
    </style>
</defs><polygon class="cls-1" points="70.57 116.93 78.44 55.01 160.72 48.19 153.77 113.27 70.57 116.93"/><polygon class="cls-1" points="166.1 112.54 288.53 107.45 293.39 38.36 171.15 47.02 166.1 112.54"/><path class="cls-1" d="m165.26,189.08c12.15,1.9,32.37,1.24,48.68-2,2.2.95,6.71,2.49,13.65,2.86,11.06.59,26.27-1.88,31.52-6.64,8.32,1,16.64,2.01,24.95,3.01l4.45-71.91-124.09,4.7-5.24,68.61c2.26.71,4.57,1.14,6.07,1.37Z"/><path class="cls-1" d="m33.3,240.31h-3.16v-30.6h3.16v30.6Zm6.44-14.72h-7.23v-2.08h7.77c1.91,0,3.33-.52,4.24-1.56s1.37-2.35,1.37-3.93-.46-2.97-1.37-3.99c-.91-1.03-2.33-1.54-4.24-1.54h-7.77v-2.78h7.23c3.13,0,5.47.71,7.03,2.12,1.55,1.41,2.33,3.37,2.33,5.86v.5c0,1.75-.39,3.17-1.16,4.26-.78,1.09-1.86,1.89-3.26,2.39-1.4.5-3.04.75-4.93.75Zm1.21,14.72h-8.44v-2.78h8.9c1.8,0,3.21-.52,4.22-1.56,1.01-1.04,1.52-2.42,1.52-4.14s-.5-3.06-1.5-4.09c-1-1.04-2.41-1.56-4.24-1.56h-8.9v-2.08h8.44c1.83,0,3.45.26,4.86.77,1.41.51,2.52,1.32,3.33,2.43.8,1.11,1.21,2.56,1.21,4.37v.5c0,1.64-.35,3.07-1.04,4.3-.69,1.23-1.73,2.18-3.12,2.85-1.39.67-3.13,1-5.24,1Z"/><path class="cls-1" d="m68.79,240.19h-3.16v-30.35h3.16v30.35Zm13.97-27.48h-14.72v-2.87h14.72v2.87Zm-.96,13.47h-13.76v-2.83h13.76v2.83Zm1.41,14.01h-15.17v-2.87h15.17v2.87Z"/><path class="cls-1" d="m98.89,240.19h-3.16l11.18-30.35h5.65l11.56,30.35h-3.24l-10.77-28.35,1.7.87h-4.36l1.79-.87-10.35,28.35Zm19.04-9.64h-16.21l1.04-2.87h14.09l1.08,2.87Z"/><path class="cls-1" d="m149.61,240.9c-2.72,0-5.04-.48-6.96-1.43-1.93-.96-3.49-2.21-4.7-3.76-1.21-1.55-2.09-3.24-2.64-5.05-.55-1.81-.83-3.58-.83-5.3v-.79c0-1.86.28-3.71.85-5.55.57-1.84,1.45-3.51,2.66-5.01,1.21-1.5,2.75-2.7,4.64-3.6,1.88-.9,4.12-1.35,6.69-1.35s4.86.46,6.75,1.37c1.9.91,3.42,2.2,4.55,3.84,1.14,1.65,1.83,3.6,2.08,5.84h-3.2c-.22-1.8-.8-3.31-1.75-4.51-.94-1.2-2.14-2.11-3.6-2.72-1.45-.61-3.07-.91-4.84-.91-1.91,0-3.6.34-5.05,1.02-1.46.68-2.67,1.62-3.64,2.83-.97,1.21-1.7,2.59-2.2,4.16-.5,1.57-.75,3.24-.75,5.01s.24,3.31.73,4.86c.49,1.55,1.23,2.95,2.22,4.18,1,1.23,2.24,2.2,3.74,2.91,1.5.71,3.24,1.06,5.24,1.06,2.77,0,5.1-.7,6.98-2.1,1.88-1.4,3.05-3.41,3.49-6.05h3.2c-.3,2.08-1.03,3.96-2.16,5.63s-2.67,3-4.59,3.97c-1.93.97-4.23,1.45-6.92,1.45Z"/><path class="cls-1" d="m180.72,240.19h-3.16v-30.35h3.16v30.35Zm18.42-13.64h-19.12v-2.83h19.12v2.83Zm2.45,13.64h-3.16v-30.35h3.16v30.35Z"/><path class="cls-1" d="m240.62,240.46h-3.16v-30.35h3.16v30.35Zm18.42-13.64h-19.12v-2.83h19.12v2.83Zm2.45,13.64h-3.16v-30.35h3.16v30.35Z"/><path class="cls-1" d="m291.86,241.17c-2.63,0-4.92-.47-6.86-1.41-1.94-.94-3.55-2.19-4.82-3.74-1.27-1.55-2.23-3.24-2.87-5.07-.64-1.83-.96-3.62-.96-5.36v-.75c0-1.86.33-3.71.98-5.55.65-1.84,1.63-3.51,2.93-5.01,1.3-1.5,2.92-2.7,4.86-3.6,1.94-.9,4.18-1.35,6.73-1.35s4.83.45,6.75,1.35c1.93.9,3.54,2.1,4.84,3.6,1.3,1.5,2.28,3.17,2.93,5.01.65,1.84.98,3.69.98,5.55v.79c0,1.75-.31,3.53-.94,5.34-.62,1.82-1.58,3.5-2.87,5.05-1.29,1.55-2.9,2.8-4.84,3.74-1.94.94-4.23,1.41-6.86,1.41Zm0-2.91c1.94,0,3.67-.35,5.2-1.06,1.52-.71,2.81-1.68,3.87-2.91,1.05-1.23,1.86-2.63,2.41-4.18.55-1.55.83-3.17.83-4.86,0-1.77-.28-3.44-.83-4.99-.55-1.55-1.37-2.93-2.43-4.14-1.07-1.21-2.36-2.15-3.89-2.85-1.52-.69-3.24-1.04-5.15-1.04s-3.59.35-5.11,1.04c-1.52.69-2.82,1.64-3.89,2.85s-1.88,2.58-2.45,4.14c-.57,1.55-.85,3.22-.85,4.99s.28,3.31.83,4.86c.55,1.55,1.36,2.95,2.41,4.18,1.05,1.23,2.35,2.2,3.89,2.91,1.54.71,3.26,1.06,5.18,1.06Z"/><path class="cls-1" d="m334.08,241.17c-2.77,0-5.07-.53-6.9-1.58-1.83-1.05-3.2-2.53-4.12-4.43-.91-1.9-1.37-4.08-1.37-6.55v-18.5h3.16v18.87c0,1.86.34,3.48,1.02,4.86.68,1.39,1.71,2.47,3.08,3.24,1.37.78,3.08,1.16,5.13,1.16s3.71-.38,5.07-1.14c1.36-.76,2.38-1.84,3.08-3.24.69-1.4,1.04-3.03,1.04-4.88v-18.87h3.16v18.5c0,2.47-.46,4.65-1.37,6.55-.91,1.9-2.28,3.37-4.09,4.43-1.82,1.05-4.11,1.58-6.88,1.58Z"/><path class="cls-1" d="m372.48,241.17c-2.55,0-4.7-.41-6.44-1.23-1.75-.82-3.07-1.95-3.97-3.41-.9-1.45-1.35-3.1-1.35-4.93h3.16c0,1.16.28,2.25.85,3.26.57,1.01,1.48,1.83,2.74,2.45,1.26.62,2.93.93,5.01.93,1.91,0,3.5-.28,4.76-.83s2.2-1.3,2.83-2.24.93-2,.93-3.16c0-1.47-.58-2.7-1.73-3.68s-2.87-1.57-5.18-1.77l-3.49-.33c-2.61-.22-4.68-1.03-6.22-2.43-1.54-1.4-2.31-3.25-2.31-5.55,0-1.75.42-3.28,1.25-4.61.83-1.33,2.02-2.38,3.55-3.16,1.54-.78,3.39-1.16,5.55-1.16s4.07.39,5.63,1.18c1.56.79,2.76,1.88,3.6,3.26.83,1.39,1.25,2.99,1.25,4.82h-3.16c0-1.11-.25-2.15-.75-3.12-.5-.97-1.29-1.75-2.37-2.35-1.08-.6-2.48-.89-4.2-.89s-2.99.28-4.05.83c-1.07.55-1.86,1.29-2.37,2.2-.51.91-.77,1.91-.77,2.99,0,1.36.48,2.51,1.46,3.45.97.94,2.37,1.48,4.2,1.62l3.49.33c2.05.17,3.8.62,5.26,1.35,1.46.73,2.57,1.69,3.35,2.87.78,1.18,1.16,2.56,1.16,4.14,0,1.77-.48,3.35-1.43,4.74-.96,1.39-2.31,2.47-4.05,3.24-1.75.78-3.81,1.16-6.19,1.16Z"/><path class="cls-1" d="m402.37,240.46h-3.16v-30.35h3.16v30.35Zm13.97-27.48h-14.72v-2.87h14.72v2.87Zm-.96,13.47h-13.76v-2.83h13.76v2.83Zm1.41,14.01h-15.17v-2.87h15.17v2.87Z"/><path class="cls-1" d="m102.63,262.44h10.53v1.53h-8.73v4.76h8.06v1.42h-8.06v4.76h8.73v1.53h-10.53v-14Z"/><path class="cls-1" d="m121.09,276.43v-14h1.48l9.19,10.94v-10.94h1.78v14h-1.48l-9.21-11.01v11.01h-1.76Z"/><path class="cls-1" d="m146.17,276.43v-12.43h-5.2v-1.57h12.2v1.57h-5.2v12.43h-1.8Z"/><path class="cls-1" d="m160.57,262.44h10.53v1.53h-8.73v4.76h8.06v1.42h-8.06v4.76h8.73v1.53h-10.53v-14Z"/><path class="cls-1" d="m179.03,276.43v-14h4.89c4.18,0,6.29,1.44,6.29,4.39,0,2.67-1.65,4.07-5.01,4.34l5.58,5.26h-2.21l-5.54-5.22h-2.23v5.22h-1.76Zm1.76-12.51v5.79h3.13c3.11,0,4.51-.86,4.51-2.88s-1.4-2.88-4.49-2.9h-3.15Z"/><path class="cls-1" d="m202.06,276.43v-12.43h-5.2v-1.57h12.2v1.57h-5.2v12.43h-1.8Z"/><path class="cls-1" d="m219.87,262.44h2.05l6.08,14h-1.92l-1.42-3.3h-7.52l-1.42,3.3h-1.92l6.08-14Zm4.14,9.17l-3.11-7.16-3.11,7.16h6.22Z"/><path class="cls-1" d="m235.14,276.43v-14h1.8v14h-1.8Z"/><path class="cls-1" d="m245.43,276.43v-14h1.48l9.19,10.94v-10.94h1.78v14h-1.48l-9.21-11.01v11.01h-1.76Z"/><path class="cls-1" d="m265.27,276.43l2.38-14h2.05l3.91,11.24,3.93-11.24h2.03l2.38,14h-1.78l-1.98-11.53-3.82,11.53h-1.5l-3.82-11.53-1.96,11.53h-1.8Z"/><path class="cls-1" d="m289.32,262.44h10.53v1.53h-8.73v4.76h8.06v1.42h-8.06v4.76h8.73v1.53h-10.53v-14Z"/><path class="cls-1" d="m307.78,276.43v-14h1.48l9.19,10.94v-10.94h1.78v14h-1.48l-9.21-11.01v11.01h-1.76Z"/><path class="cls-1" d="m332.86,276.43v-12.43h-5.2v-1.57h12.2v1.57h-5.2v12.43h-1.8Z"/><path class="cls-1" d="m73.48,188.55c4.47-.06,6.02,1.37,13.1,1.51,7.61.15,17.38-1.27,18.58-2.8.16-.2.18-.42.78-.47,2.34-.2,6.8,2.64,13.79,3.42,4.89.55,13.01.3,27.11-2.18l5.11-68.94-82.89,3.5-7.32,69.5c2.45-1.83,7.07-3.49,11.74-3.55Z"/><path class="cls-1" d="m382.89,39.31l1.75,1.42s-.4.14-1.07.36c3.55.57,6.26,1.94,8.33,3.62l.3-5.81c-1.04-.32-3.07-.97-4.1-1.51l.98,2.05s-1.41-.34-2.53-1l.56,1.67s-1.99.08-4.22-.83Z"/><path class="cls-1" d="m363.06,51.08h-.01s-.01.02-.02.02c.01,0,.02-.02.03-.02Z"/><path class="cls-1" d="m371.77,51.75l-1.41-.28s.77,1.74,1.73,3.25c-.11-1.01-.22-2-.32-2.97Z"/><path class="cls-1" d="m369.92,48.58s.68.71,1.49,1.53c-.25-.4-.5-.85-.76-1.31l-.73-.21Z"/><path class="cls-1" d="m390.66,69.02c-3.87-2.5-3.9-6.77-3.9-6.77l-.67,1.81c-3.16-1.65-3.58-5.23-3.58-5.23l-.74,1.51c-2.44-1.7-2.68-5.41-2.68-5.41l-.81,2.15c-1.41-1.28-2.47-4.93-2.47-4.93l-.63,2.01c-1.07-1.14-2.05-4.39-2.05-4.39l-.12.62c.05.48.11.96.16,1.43.11.1.21.19.3.27l-.27-.05c.76,5.98,2.11,11.31,2.95,15.32,1.22,5.8,8.55,24.89,9.92,29.62.38,1.3.95,3.83,1.72,7.36l1.08-.04,1.8-35.27Z"/><path class="cls-1" d="m392.24,38.13l.08-1.61c-.48-.22-.96-.4-1.39-.51l1.31,2.12Z"/><path class="cls-1" d="m357.4,38.38c.47-.43,1.01-.83,1.59-1.01,0,0-2.62.1-4.26.72.85.04,1.75.14,2.68.29Z"/><path class="cls-1" d="m361.32,104.82l-.29.46,24.2-.87c-.61-3.09-1.15-5.64-1.6-7.14-1.68-5.65-7.02-21.99-9.31-29.62-.86-2.88-1.55-7.28-2.08-11.64-.91-.23-2.23-.69-2.98-1.5,0,0,1.31,2.56,2.67,3.85,0,0-1.6-.14-3.26-1.37,0,0,1.64,2.65,2.67,3.06l-2.26-.32s2,2.1,4.11,3.24c0,0-2.95.13-3.83-.31,0,0,1.74,3.88,3.25,5.14,0,0-3.59-.68-3.96-1.7,0,0,.83,2.5,2.01,3.67,0,0-2.74-.38-3.08-1.25,0,0-.08,2.68.96,4.67,0,0-4.32-1.94-3.5-6.34l-2.25,1.25s-.4-2.74,1.34-4.2l-2.65.86s-.07-2.65,2.09-5.13l-3.67,2.01s-.86-3.43,2.5-6.16l-2.89,1.22s.17-1.56,1.22-3.21c-2.16,2.09-3.9,3.5-3.9,3.5l-.36-2.58c-.43,2.74-1.69,4.66-1.69,4.66l-1.31-1.55c-.02,1.5-.52,3.09-.52,3.09l-1.44-2.19c-.12,1.85-1.15,5.7-1.15,5.7l-1.93-3.75c-.69,2.29-.48,6.56-.48,6.56-1.15-.76-2.18-4.19-2.18-4.19-.21,2.2.23,8.4.23,8.4-1.18-.92-1.93-4.58-1.93-4.58-.82,1.66-.89,6.15-.89,6.15,0,0-5.19-8.38,3.87-19.85,2.83-3.58,6.03-6.09,9.09-7.85l.14-1.49s-2.07,2.64-3.27,3.15l.58-2.25s-2.87,2.98-3.95,3.21l.18-2.08s-1.96,3.19-3.84,3.75l1.19-3.33s-2.76,4.35-5.28,4.83l.5-2.45s-2.1,3.96-3.85,4.58l.76-2.68h-2.48s4.17-12.76,17.88-12.12c.07-.12.83-1.32,2.44-2.2,0,0-2.9.34-3.66,1.05l.93-1.43-.84.05c-.91.38-2.24,1-3.31,1.8,0,0,.34-.82.77-1.64l-42.38,2.65-3.06,68.91,44.7-1.6c5.67-2.17,11.03-.85,11.03-.85Z"/><path class="cls-1" d="m391.14,59.69l.28-5.44c-1.41-1.73-2.37-4.12-2.37-4.12l.56,3.49c-1.75-.9-3.09-4.39-3.09-4.39l-.2,2.08c-1.03-.42-3.3-3.87-3.3-3.87l.11,1.55c4.26,3.26,6.67,7.16,8.03,10.7Z"/><path class="cls-1" d="m381.61,47.92c-.61-.94-1.09-1.86-1.09-1.86l-.1,1.11c.41.24.81.49,1.19.75Z"/><path class="cls-1" d="m369.76,34.55l-2.19.14c.4.77.77,1.61,1.07,2.47.35-.93.73-1.78,1.11-2.61Z"/><path class="cls-1" d="m388.86,110.78h-.29c.08.39.16.78.24,1.17l.05-1.17Z"/><path class="cls-1" d="m342.54,137.99c-.17-.39-.33-.77-.48-1.13h-.36s.34.48.84,1.13Z"/><path class="cls-1" d="m344.35,117.72l1.2.6c.51-.37,1.04-.74,1.6-1.09-1.32.33-2.81.49-2.81.49Z"/><path class="cls-1" d="m383.45,176.87c.84.69,1.78.9,2.77.78l2.12-53.61c-.84-4.18-1.69-8.84-2.49-13.17l-31.24.98.29.06c-1.5,1.33-5.32,1.3-5.32,1.3l1.9.97c-.78.82-4.91,1.69-4.91,1.69l1.87.59c1.43-.8,3.02-1.51,4.77-2.09,12.05-3.98,17.33,2.75,17.33,2.75,0,0-3.68-1.28-5.27-1.11,0,0,2.76,1.7,3.15,2.94,0,0-4.92-2.21-6.78-2.69,0,0,2.49,1.87,2.76,3.03,0,0-3.41-1.44-5.49-1.57l2.48,2.69s-3.45-.31-4.99-.76l1.35,1.83s-1.45-.07-2.67-.49l.87,1.53s-1.94.46-4.3,0l1.99,1.06s-.36.22-.98.56c13.31-.43,17.49,11.97,17.49,11.97l-2.48.04.78,2.67c-1.75-.6-3.89-4.54-3.89-4.54l.52,2.45c-2.52-.45-5.32-4.78-5.32-4.78l1.22,3.32c-1.89-.54-3.88-3.71-3.88-3.71l.2,2.08c-1.09-.21-3.98-3.17-3.98-3.17l.4,1.5c12.41,6.17,13.56,18.83,13.56,18.83-6.3-.87-7.43-6.51-7.43-6.51l-.32,1.91c-3.42-1.02-4.52-4.45-4.52-4.45l-.43,1.62c-2.72-1.2-3.66-4.8-3.66-4.8l-.39,2.27c-1.63-.99-3.37-4.37-3.37-4.37l-.24,2.1c-1.27-.91-2.85-3.92-2.85-3.92v1.72c.28.19.55.36.78.49h-1.75c.45,1.18.95,2.32,1.48,3.43.27.26.55.49.81.67,0,0-.19,0-.48,0,4.84,9.68,12.73,17.08,23.24,28.78,2.21,2.46,4.45,4.64,6.66,6.58,3.44-1.26,5.5-2.08,8.63.52Z"/><path class="cls-1" d="m334.46,137.87h-.01s0,.02-.01.03c.01,0,.02-.02.03-.03Z"/><path class="cls-1" d="m326.47,126.49c.38-.51.84-1.01,1.36-1.29,0,0-2.56.6-4.05,1.52.85-.12,1.74-.2,2.68-.23Z"/><path class="cls-1" d="m341.04,134.33c-.03-.07-.05-.14-.08-.2l-.25-.02s.12.09.32.23Z"/><path class="cls-1" d="m350.64,129.6l.11,1.11c.45.16.89.33,1.31.51-.78-.8-1.43-1.61-1.43-1.61Z"/><path class="cls-1" d="m361.91,178.91c-.57-2.21,5.47-1.51,9.78-1.89-5.56-5.57-13.28-14.04-19.71-22.53-3.47-4.58-6.18-9.53-8.1-13.58-.88-.09-1.95-.32-2.68-.86,0,0,1.77,2.26,3.36,3.26,0,0-1.6.16-3.46-.72,0,0,2.12,2.28,3.2,2.5l-2.28.12s2.36,1.68,4.66,2.39c0,0-2.87.7-3.82.42,0,0,2.45,3.48,4.17,4.42,0,0-3.65.02-4.21-.91,0,0,1.29,2.29,2.67,3.22,0,0-2.77.15-3.26-.64,0,0,.44,2.65,1.83,4.4,0,0-4.61-1.08-4.65-5.56l-1.98,1.65s-.92-2.61.51-4.37l-2.44,1.35s-.58-2.59,1.07-5.44l-3.22,2.67s-1.5-3.2,1.28-6.53l-2.6,1.75s-.13-1.56.58-3.38c-1.72,2.47-3.16,4.19-3.16,4.19l-.85-2.46c.1,2.77-.77,4.89-.77,4.89l-1.58-1.28c.26,1.47.08,3.13.08,3.13l-1.83-1.87c.24,1.84-.03,5.82-.03,5.82l-2.61-3.31c-.24,2.38.79,6.53.79,6.53-1.27-.53-2.94-3.7-2.94-3.7.21,2.2,1.84,8.2,1.84,8.2-1.33-.68-2.77-4.12-2.77-4.12-.49,1.78.3,6.21.3,6.21,0,0-6.7-7.24,0-20.22,2.09-4.06,4.75-7.14,7.42-9.44l-.15-1.48s-1.52,2.99-2.61,3.72l.14-2.32s-2.25,3.48-3.27,3.9l-.22-2.08s-1.31,3.5-3.05,4.41l.53-3.5s-1.88,4.8-4.25,5.75l.02-2.5s-1.31,4.29-2.9,5.23l.23-2.77-2.44.46s1.65-13.31,15.23-15.31c.05-.13.56-1.46,1.98-2.63,0,0-2.78.89-3.39,1.73l.8-1.98s-2.36,1.34-3.87,3.01c0,0,.55-2.72,1.15-3.41,0,0-3.92.7-5.41,1.79,0,0,1.43-3.11,2.44-3.21,0,0-2.46.18-3.79.99,0,0,.97-2.41,1.84-2.52,0,0-2.42-.68-4.46-.19,0,0,2.74-3.49,6.56-1.74l-.62-2.33s2.58.25,3.51,2.17l-.18-2.6s2.43.53,4.19,3.06l-.99-3.79s3.32,0,5.03,3.67l-.45-2.9s3.12,1.14,4.28,4.5l-.02-3.03s3.05,2.61,4.93,5.82c.8-4.65,2.22-8.17,3.95-10.85l-36.06,1.13-4.16,72.61c.72.01,1.2.05,1.2.05.17-1.22,5.42-1.52,12.29-1.52l49.29-2.57s-1.17-.34-1.87-3.07Z"/></svg>