<svg xmlns="http://www.w3.org/2000/svg" viewBox="0 0 1152 607"><defs><style>.cls-1{fill:#900;}.cls-2{fill:#ae0000;}.cls-3{fill:#ad0000;}.cls-4{fill:none;stroke:#fff;stroke-miterlimit:10;stroke-width:2.5px;}</style></defs><title>Illustration-Offshore</title><g id="Layer_2" data-name="Layer 2"><g id="Illustration-Offshore"><rect class="cls-1" x="159.99" width="12" height="12"/><rect class="cls-1" x="159.99" y="16" width="12" height="12"/><rect class="cls-1" x="159.99" y="32" width="12" height="12"/><rect class="cls-1" x="175.99" y="32" width="12" height="12"/><rect class="cls-1" x="159.99" y="48" width="12" height="12"/><rect class="cls-1" x="175.99" y="48" width="12" height="12"/><rect class="cls-2" x="256" y="48.38" width="12" height="12"/><rect class="cls-2" x="272" y="48.38" width="12" height="12"/><rect class="cls-2" x="288" y="48.38" width="12" height="12"/><rect class="cls-2" x="304" y="48.38" width="12" height="12"/><rect class="cls-2" x="320" y="48.38" width="12" height="12"/><rect class="cls-2" x="336" y="48.38" width="12" height="12"/><rect class="cls-2" x="352" y="48.38" width="12" height="12"/><rect class="cls-2" x="368" y="48.38" width="12" height="12"/><rect class="cls-1" x="159.99" y="64" width="12" height="12"/><rect class="cls-1" x="175.99" y="64" width="12" height="12"/><rect class="cls-2" x="256" y="64.38" width="12" height="12"/><rect class="cls-2" x="272" y="64.38" width="12" height="12"/><rect class="cls-2" x="288" y="64.38" width="12" height="12"/><rect class="cls-2" x="208" y="48.38" width="12" height="12"/><rect class="cls-2" x="224" y="48.38" width="12" height="12"/><rect class="cls-2" x="240" y="48.38" width="12" height="12"/><rect class="cls-2" x="208" y="64.38" width="12" height="12"/><rect class="cls-2" x="192" y="48.38" width="12" height="12"/><rect class="cls-2" x="192" y="64.38" width="12" height="12"/><rect class="cls-2" x="224" y="64.38" width="12" height="12"/><rect class="cls-2" x="240" y="64.38" width="12" height="12"/><rect class="cls-2" x="304" y="64.38" width="12" height="12"/><rect class="cls-2" x="320" y="64.38" width="12" height="12"/><rect class="cls-2" x="336" y="64.38" width="12" height="12"/><rect class="cls-2" x="352" y="64.38" width="12" height="12"/><rect class="cls-2" x="368" y="64.38" width="12" height="12"/><rect class="cls-1" x="159.99" y="80" width="12" height="12"/><rect class="cls-1" x="175.99" y="80" width="12" height="12"/><rect class="cls-2" x="256" y="80.38" width="12" height="12"/><rect class="cls-2" x="272" y="80.38" width="12" height="12"/><rect class="cls-2" x="288" y="80.38" width="12" height="12"/><rect class="cls-1" x="159.99" y="96" width="12" height="12"/><rect class="cls-1" x="175.99" y="96" width="12" height="12"/><rect class="cls-2" x="256" y="96.38" width="12" height="12"/><rect class="cls-2" x="272" y="96.38" width="12" height="12"/><rect class="cls-2" x="288" y="96.38" width="12" height="12"/><rect class="cls-1" x="159.99" y="112" width="12" height="12"/><rect class="cls-1" x="175.99" y="112" width="12" height="12"/><rect class="cls-2" x="256" y="112.38" width="12" height="12"/><rect class="cls-2" x="272" y="112.38" width="12" height="12"/><rect class="cls-2" x="288" y="112.38" width="12" height="12"/><rect class="cls-1" x="159.99" y="128" width="12" height="12"/><rect class="cls-1" x="175.99" y="128" width="12" height="12"/><rect class="cls-1" x="191.99" y="128" width="12" height="12"/><rect class="cls-1" x="207.99" y="128" width="12" height="12"/><rect class="cls-1" x="223.99" y="128" width="12" height="12"/><rect class="cls-1" x="239.99" y="128" width="12" height="12"/><rect class="cls-1" x="255.99" y="128" width="12" height="12"/><rect class="cls-1" x="271.99" y="128" width="12" height="12"/><rect class="cls-1" x="287.99" y="128" width="12" height="12"/><rect class="cls-1" x="303.99" y="128" width="12" height="12"/><rect class="cls-1" x="159.99" y="144" width="12" height="12"/><rect class="cls-1" x="175.99" y="144" width="12" height="12"/><rect class="cls-1" x="191.99" y="144" width="12" height="12"/><rect class="cls-1" x="207.99" y="144" width="12" height="12"/><rect class="cls-1" x="223.99" y="144" width="12" height="12"/><rect class="cls-1" x="239.99" y="144" width="12" height="12"/><rect class="cls-1" x="255.99" y="144" width="12" height="12"/><rect class="cls-1" x="271.99" y="144" width="12" height="12"/><rect class="cls-1" x="287.99" y="144" width="12" height="12"/><rect class="cls-1" x="303.99" y="144" width="12" height="12"/><rect class="cls-1" x="159.99" y="160" width="12" height="12"/><rect class="cls-1" x="175.99" y="160" width="12" height="12"/><rect class="cls-1" x="191.99" y="160" width="12" height="12"/><rect class="cls-1" x="207.99" y="160" width="12" height="12"/><rect class="cls-1" x="223.99" y="160" width="12" height="12"/><rect class="cls-1" x="239.99" y="160" width="12" height="12"/><rect class="cls-1" x="255.99" y="160" width="12" height="12"/><rect class="cls-1" x="271.99" y="160" width="12" height="12"/><rect class="cls-1" x="287.99" y="160" width="12" height="12"/><rect class="cls-1" x="303.99" y="160" width="12" height="12"/><rect class="cls-1" x="159.99" y="176" width="12" height="12"/><rect class="cls-1" x="175.99" y="176" width="12" height="12"/><rect class="cls-1" x="223.99" y="176" width="12" height="12"/><rect class="cls-3" x="239.99" y="176" width="12" height="12"/><rect class="cls-1" x="287.99" y="176" width="12" height="12"/><rect class="cls-1" x="303.99" y="176" width="12" height="12"/><rect class="cls-1" x="159.99" y="192" width="12" height="12"/><rect class="cls-1" x="175.99" y="192" width="12" height="12"/><rect class="cls-1" x="223.99" y="192" width="12" height="12"/><rect class="cls-3" x="239.99" y="192" width="12" height="12"/><rect class="cls-1" x="287.99" y="192" width="12" height="12"/><rect class="cls-1" x="303.99" y="192" width="12" height="12"/><rect class="cls-1" x="159.99" y="208" width="12" height="12"/><rect class="cls-1" x="175.99" y="208" width="12" height="12"/><rect class="cls-3" x="191.99" y="208" width="12" height="12"/><rect class="cls-3" x="207.99" y="208" width="12" height="12"/><rect class="cls-1" x="223.99" y="208" width="12" height="12"/><rect class="cls-3" x="239.99" y="208" width="12" height="12"/><rect class="cls-3" x="255.99" y="208" width="12" height="12"/><rect class="cls-3" x="271.99" y="208" width="12" height="12"/><rect class="cls-1" x="287.99" y="208" width="12" height="12"/><rect class="cls-1" x="303.99" y="208" width="12" height="12"/><rect class="cls-1" x="159.99" y="224" width="12" height="12"/><rect class="cls-1" x="175.99" y="224" width="12" height="12"/><rect class="cls-1" x="223.99" y="224" width="12" height="12"/><rect class="cls-3" x="239.99" y="224" width="12" height="12"/><rect class="cls-1" x="287.99" y="224" width="12" height="12"/><rect class="cls-1" x="303.99" y="224" width="12" height="12"/><rect class="cls-1" x="159.99" y="240" width="12" height="12"/><rect class="cls-1" x="175.99" y="240" width="12" height="12"/><rect class="cls-1" x="223.99" y="240" width="12" height="12"/><rect class="cls-3" x="239.99" y="240" width="12" height="12"/><rect class="cls-1" x="287.99" y="240" width="12" height="12"/><rect class="cls-1" x="303.99" y="240" width="12" height="12"/><rect class="cls-1" x="159.99" y="256" width="12" height="12"/><rect class="cls-1" x="175.99" y="256" width="12" height="12"/><rect class="cls-1" x="191.99" y="256" width="12" height="12"/><rect class="cls-1" x="207.99" y="256" width="12" height="12"/><rect class="cls-1" x="223.99" y="256" width="12" height="12"/><rect class="cls-1" x="239.99" y="256" width="12" height="12"/><rect class="cls-1" x="255.99" y="256" width="12" height="12"/><rect class="cls-1" x="271.99" y="256" width="12" height="12"/><rect class="cls-1" x="287.99" y="256" width="12" height="12"/><rect class="cls-1" x="303.99" y="256" width="12" height="12"/><rect class="cls-1" x="159.99" y="272" width="12" height="12"/><rect class="cls-1" x="175.99" y="272" width="12" height="12"/><rect class="cls-1" x="191.99" y="272" width="12" height="12"/><rect class="cls-1" x="207.99" y="272" width="12" height="12"/><rect class="cls-1" x="223.99" y="272" width="12" height="12"/><rect class="cls-1" x="239.99" y="272" width="12" height="12"/><rect class="cls-1" x="255.99" y="272" width="12" height="12"/><rect class="cls-1" x="271.99" y="272" width="12" height="12"/><rect class="cls-1" x="287.99" y="272" width="12" height="12"/><rect class="cls-1" x="288" y="288.38" width="12" height="12"/><rect class="cls-1" x="288.01" y="303.77" width="12" height="12"/><rect class="cls-1" x="288.02" y="320.15" width="12" height="12"/><rect class="cls-1" x="303.99" y="272" width="12" height="12"/><rect class="cls-1" x="303.99" y="288" width="12" height="12"/><rect class="cls-1" x="303.99" y="304" width="12" height="12"/><rect class="cls-1" x="303.99" y="320" width="12" height="12"/><rect class="cls-1" x="303.99" y="352" width="12" height="12"/><rect class="cls-1" x="303.99" y="368" width="12" height="12"/><rect class="cls-1" x="303.99" y="384" width="12" height="12"/><rect class="cls-1" x="303.99" y="400" width="12" height="12"/><rect class="cls-1" x="304" y="435" width="12" height="12"/><rect class="cls-1" x="175.99" y="288" width="12" height="12"/><rect class="cls-1" x="191.99" y="288" width="12" height="12"/><rect class="cls-1" x="207.99" y="288" width="12" height="12"/><rect class="cls-1" x="223.99" y="288" width="12" height="12"/><rect class="cls-3" x="239.99" y="288" width="12" height="12"/><rect class="cls-1" x="191.99" y="304" width="12" height="12"/><rect class="cls-1" x="207.99" y="304" width="12" height="12"/><rect class="cls-1" x="223.99" y="304" width="12" height="12"/><rect class="cls-3" x="239.99" y="304" width="12" height="12"/><rect class="cls-1" x="191.99" y="320" width="12" height="12"/><rect class="cls-1" x="207.99" y="320" width="12" height="12"/><rect class="cls-1" x="223.99" y="320" width="12" height="12"/><rect class="cls-3" x="239.99" y="320" width="12" height="12"/><rect class="cls-1" x="175.99" y="368" width="12" height="12"/><polyline class="cls-1" points="235.99 352 235.99 364 223.99 364 223.99 352"/><rect class="cls-3" x="239.99" y="352" width="12" height="12"/><rect class="cls-3" x="239.99" y="370" width="12" height="12"/><rect class="cls-3" x="224" y="469" width="12" height="12"/><rect class="cls-3" x="240" y="501" width="12" height="12"/><rect class="cls-3" x="240" y="485" width="12" height="12"/><rect class="cls-3" x="239.99" y="574" width="12" height="12"/><rect class="cls-2" x="384" y="48.38" width="12" height="12"/><rect class="cls-2" x="384" y="64.38" width="12" height="12"/><rect class="cls-1" x="319.99" y="128" width="12" height="12"/><rect class="cls-1" x="319.99" y="144" width="12" height="12"/><rect class="cls-1" x="319.99" y="160" width="12" height="12"/><rect class="cls-1" x="335.99" y="144" width="12" height="12"/><rect class="cls-1" x="351.99" y="144" width="12" height="12"/><rect class="cls-1" x="367.99" y="144" width="12" height="12"/><rect class="cls-1" x="336" y="128.38" width="12" height="12"/><rect class="cls-1" x="352" y="128.38" width="12" height="12"/><rect class="cls-1" x="368" y="128.38" width="12" height="12"/><rect class="cls-1" x="335.99" y="160" width="12" height="12"/><rect class="cls-1" x="351.99" y="160" width="12" height="12"/><rect class="cls-1" x="367.99" y="160" width="12" height="12"/><rect class="cls-2" x="1041.99" y="595" width="12" height="12"/><rect class="cls-1" x="1028" y="336.38" width="12" height="12"/><rect class="cls-1" x="1028" y="352.38" width="12" height="12"/><rect class="cls-1" x="1027.99" y="368" width="12" height="12"/><rect class="cls-1" x="1027.99" y="384" width="12" height="12"/><rect class="cls-1" x="1027.99" y="416" width="12" height="12"/><rect class="cls-1" x="1027.99" y="432" width="12" height="12"/><rect class="cls-1" x="1027.99" y="450" width="12" height="12"/><rect class="cls-1" x="1027.99" y="466" width="12" height="12"/><rect class="cls-1" x="1027.99" y="514" width="12" height="12"/><rect class="cls-2" x="1057.99" y="579" width="12" height="12"/><rect class="cls-2" x="1057.99" y="595" width="12" height="12"/><rect class="cls-1" x="1044" y="336.38" width="12" height="12"/><rect class="cls-1" x="1044" y="352.38" width="12" height="12"/><rect class="cls-1" x="1043.99" y="368" width="12" height="12"/><rect class="cls-1" x="1043.99" y="384" width="12" height="12"/><rect class="cls-1" x="1043.99" y="400" width="12" height="12"/><rect class="cls-1" x="1043.99" y="416" width="12" height="12"/><rect class="cls-1" x="1043.99" y="432" width="12" height="12"/><rect class="cls-1" x="1043.99" y="464" width="12" height="12"/><rect class="cls-1" x="1043.99" y="480" width="12" height="12"/><rect class="cls-2" x="1043.99" y="497" width="12" height="12"/><rect class="cls-2" x="1043.99" y="514" width="12" height="12"/><rect class="cls-2" x="1044" y="530.38" width="12" height="12"/><rect class="cls-2" x="1073.99" y="579" width="12" height="12"/><rect class="cls-2" x="1073.99" y="595" width="12" height="12"/><rect class="cls-1" x="1060" y="336.38" width="12" height="12"/><rect class="cls-1" x="1060" y="352.38" width="12" height="12"/><rect class="cls-1" x="1059.99" y="368" width="12" height="12"/><rect class="cls-1" x="1028" y="320.38" width="12" height="12"/><rect class="cls-1" x="1028" y="336.38" width="12" height="12"/><rect class="cls-1" x="1044" y="320.38" width="12" height="12"/><rect class="cls-1" x="1044" y="336.38" width="12" height="12"/><rect class="cls-1" x="1060" y="320.38" width="12" height="12"/><polyline class="cls-1" points="1072 336.38 1072 348.38 1060 348.38"/><rect class="cls-3" x="1012" y="304.38" width="12" height="12"/><rect class="cls-3" x="1028" y="304.38" width="12" height="12"/><rect class="cls-1" x="1044" y="304.38" width="12" height="12"/><rect class="cls-3" x="1060" y="304.38" width="12" height="12"/><rect class="cls-3" x="1076" y="304.38" width="12" height="12"/><rect class="cls-3" x="1012" y="272.38" width="12" height="12"/><rect class="cls-3" x="1012" y="288.38" width="12" height="12"/><rect class="cls-1" x="1028" y="256.38" width="12" height="12"/><rect class="cls-3" x="1028" y="272.38" width="12" height="12"/><rect class="cls-3" x="1028" y="288.38" width="12" height="12"/><rect class="cls-1" x="1044" y="256.38" width="12" height="12"/><rect class="cls-1" x="1044" y="272.38" width="12" height="12"/><rect class="cls-3" x="1044" y="288.38" width="12" height="12"/><rect class="cls-1" x="1060" y="256.38" width="12" height="12"/><rect class="cls-3" x="1060" y="272.38" width="12" height="12"/><rect class="cls-3" x="1060" y="288.38" width="12" height="12"/><rect class="cls-3" x="1076" y="272.38" width="12" height="12"/><rect class="cls-3" x="1076" y="288.38" width="12" height="12"/><rect class="cls-3" x="1012" y="208.38" width="12" height="12"/><rect class="cls-3" x="1012" y="224.38" width="12" height="12"/><rect class="cls-3" x="1012" y="240.38" width="12" height="12"/><rect class="cls-3" x="1028" y="224.38" width="12" height="12"/><rect class="cls-3" x="1028" y="240.38" width="12" height="12"/><rect class="cls-1" x="1044" y="240.38" width="12" height="12"/><rect class="cls-3" x="1076" y="224.38" width="12" height="12"/><rect class="cls-3" x="1060" y="224.38" width="12" height="12"/><rect class="cls-3" x="1060" y="240.38" width="12" height="12"/><rect class="cls-3" x="1092" y="224.38" width="12" height="12"/><rect class="cls-3" x="1076" y="240.38" width="12" height="12"/><rect class="cls-3" x="1076" y="208.38" width="12" height="12"/><rect class="cls-3" x="1092" y="192.38" width="12" height="12"/><rect class="cls-3" x="1092" y="208.38" width="12" height="12"/><rect class="cls-2" x="948" y="336.38" width="12" height="12"/><rect class="cls-2" x="964" y="320.38" width="12" height="12"/><rect class="cls-1" x="964" y="336.38" width="12" height="12"/><rect class="cls-2" x="964" y="352.38" width="12" height="12"/><rect class="cls-2" x="980" y="320.38" width="12" height="12"/><rect class="cls-2" x="980" y="336.38" width="12" height="12"/><rect class="cls-2" x="996" y="320.38" width="12" height="12"/><rect class="cls-2" x="980" y="304.38" width="12" height="12"/><rect class="cls-2" x="996" y="304.38" width="12" height="12"/><rect class="cls-2" x="996" y="288.38" width="12" height="12"/><rect class="cls-3" x="981" y="209.38" width="12" height="12"/><rect class="cls-2" x="980" y="192.38" width="12" height="12"/><rect class="cls-2" x="996" y="192.38" width="12" height="12"/><rect class="cls-3" x="996" y="208.38" width="12" height="12"/><rect class="cls-2" x="1108" y="320.38" width="12" height="12"/><rect class="cls-2" x="1108" y="336.38" width="12" height="12"/><rect class="cls-3" x="1124" y="320.38" width="12" height="12"/><rect class="cls-1" x="1124" y="336.38" width="12" height="12"/><rect class="cls-3" x="1124" y="352.38" width="12" height="12"/><rect class="cls-2" x="1140" y="336.38" width="12" height="12"/><rect class="cls-2" x="1108" y="304.38" width="12" height="12"/><rect class="cls-3" x="1092" y="304.38" width="12" height="12"/><rect class="cls-3" x="1092" y="320.38" width="12" height="12"/><rect class="cls-3" x="1092" y="288.38" width="12" height="12"/><rect class="cls-2" x="1108" y="192.38" width="12" height="12"/><rect class="cls-3" x="1108" y="208.38" width="12" height="12"/><rect class="cls-2" x="1124" y="192.38" width="12" height="12"/><rect class="cls-2" x="948" y="176.38" width="12" height="12"/><rect class="cls-1" x="964" y="176.38" width="12" height="12"/><rect class="cls-2" x="980" y="176.38" width="12" height="12"/><rect class="cls-2" x="964" y="160.38" width="12" height="12"/><rect class="cls-2" x="1108" y="178.38" width="12" height="12"/><rect class="cls-1" x="1124" y="178.38" width="12" height="12"/><rect class="cls-2" x="1140" y="178.38" width="12" height="12"/><rect class="cls-2" x="1124" y="162.38" width="12" height="12"/><rect class="cls-1" x="1059.99" y="384" width="12" height="12"/><rect class="cls-3" x="1108" y="530.38" width="12" height="12"/><rect class="cls-3" x="1092" y="530.38" width="12" height="12"/><rect class="cls-3" x="1076" y="530.38" width="12" height="12"/><rect class="cls-3" x="1108" y="513.38" width="12" height="12"/><rect class="cls-3" x="1092" y="513.38" width="12" height="12"/><rect class="cls-3" x="1076" y="513.38" width="12" height="12"/><rect class="cls-3" x="1124.01" y="513.77" width="12" height="12"/><rect class="cls-3" x="1108" y="497.38" width="12" height="12"/><rect class="cls-3" x="1092" y="497.38" width="12" height="12"/><rect class="cls-3" x="1076" y="497.38" width="12" height="12"/><rect class="cls-3" x="1124.01" y="497.77" width="12" height="12"/><rect class="cls-3" x="1140" y="497.38" width="12" height="12"/><rect class="cls-3" x="1108" y="480.38" width="12" height="12"/><rect class="cls-3" x="1124" y="480" width="12" height="12"/><rect class="cls-3" x="1140" y="480" width="12" height="12"/><rect class="cls-3" x="1092" y="480.38" width="12" height="12"/><rect class="cls-3" x="1076" y="480.38" width="12" height="12"/><rect class="cls-3" x="1092" y="463.38" width="12" height="12"/><rect class="cls-3" x="1076" y="463.38" width="12" height="12"/><rect class="cls-3" x="1092" y="446.38" width="12" height="12"/><rect class="cls-3" x="1076" y="446.38" width="12" height="12"/><rect class="cls-1" x="1059.99" y="400" width="12" height="12"/><rect class="cls-1" x="1059.99" y="416" width="12" height="12"/><rect class="cls-1" x="1059.99" y="447" width="12" height="12"/><rect class="cls-1" x="1059.99" y="464" width="12" height="12"/><rect class="cls-2" x="1059.99" y="480" width="12" height="12"/><rect class="cls-2" x="1059.99" y="497" width="12" height="12"/><rect class="cls-2" x="1060" y="530.38" width="12" height="12"/><rect class="cls-2" x="1089.99" y="579" width="12" height="12"/><rect class="cls-2" x="1089.99" y="595" width="12" height="12"/><path class="cls-4" d="M441,552.88"/><path class="cls-4" d="M339.16,552.88"/><rect class="cls-2" x="16" y="64" width="12" height="12"/><rect class="cls-1" x="16" y="144" width="12" height="12"/><rect class="cls-1" x="16" y="160" width="12" height="12"/><rect class="cls-1" x="16" y="176" width="12" height="12"/><rect class="cls-2" x="16" y="192" width="12" height="12"/><rect class="cls-2" x="16" y="208.38" width="12" height="12"/><rect class="cls-2" x="32.22" y="255.69" width="12" height="12"/><rect class="cls-2" x="32.22" y="272" width="12" height="12"/><rect class="cls-2" x="32" y="32" width="12" height="12"/><rect class="cls-2" x="32" y="48" width="12" height="12"/><rect class="cls-2" x="16" y="48" width="12" height="12"/><rect class="cls-2" x="16" y="32" width="12" height="12"/><rect class="cls-2" x="32" y="64" width="12" height="12"/><rect class="cls-1" x="32" y="144" width="12" height="12"/><rect class="cls-1" x="32" y="160" width="12" height="12"/><rect class="cls-1" x="32" y="176" width="12" height="12"/><rect class="cls-2" x="32" y="192" width="12" height="12"/><rect class="cls-2" x="32" y="208" width="12" height="12"/><rect class="cls-2" x="31.99" y="240" width="12" height="12"/><rect class="cls-1" y="144" width="12" height="12"/><rect class="cls-1" y="160" width="12" height="12"/><rect class="cls-1" y="176" width="12" height="12"/><rect class="cls-2" y="192" width="12" height="12"/><rect class="cls-2" x="48" y="32" width="12" height="12"/><rect class="cls-2" x="48" y="48" width="12" height="12"/><rect class="cls-2" x="48" y="64" width="12" height="12"/><rect class="cls-1" x="48" y="160" width="12" height="12"/><rect class="cls-1" x="48" y="176" width="12" height="12"/><rect class="cls-2" x="48" y="192" width="12" height="12"/><rect class="cls-2" x="48" y="208" width="12" height="12"/><rect class="cls-2" x="48" y="224" width="12" height="12"/><rect class="cls-2" x="48" y="240" width="12" height="12"/><polyline class="cls-2" points="60 256 60 268 48 268 48 256"/><polyline class="cls-2" points="60 272 60 284 48 284 48 272"/><rect class="cls-2" x="64" y="32" width="12" height="12"/><rect class="cls-2" x="64" y="48" width="12" height="12"/><rect class="cls-2" x="64" y="64" width="12" height="12"/><rect class="cls-1" x="64" y="144" width="12" height="12"/><rect class="cls-1" x="48" y="144.38" width="12" height="12"/><rect class="cls-1" x="64" y="160" width="12" height="12"/><rect class="cls-2" x="80" y="48" width="12" height="12"/><rect class="cls-2" x="80" y="64" width="12" height="12"/><rect class="cls-1" x="80" y="80" width="12" height="12"/><rect class="cls-1" x="80" y="96" width="12" height="12"/><rect class="cls-1" x="80" y="112" width="12" height="12"/><rect class="cls-1" x="80" y="128" width="12" height="12"/><rect class="cls-1" x="80" y="144" width="12" height="12"/><rect class="cls-1" x="80" y="160" width="12" height="12"/><rect class="cls-1" x="64" y="176" width="12" height="12"/><rect class="cls-2" x="64" y="192" width="12" height="12"/><rect class="cls-2" x="64" y="224" width="12" height="12"/><rect class="cls-2" x="64" y="240" width="12" height="12"/><rect class="cls-2" x="64" y="256" width="12" height="12"/><rect class="cls-2" x="64" y="272" width="12" height="12"/><rect class="cls-2" x="64" y="288" width="12" height="12"/><rect class="cls-2" x="64" y="304" width="12" height="12"/><rect class="cls-2" x="64" y="320" width="12" height="12"/><rect class="cls-2" x="64" y="352" width="12" height="12"/><rect class="cls-2" x="64" y="368" width="12" height="12"/><rect class="cls-2" x="64" y="418" width="12" height="12"/><rect class="cls-1" x="80" y="272" width="12" height="12"/><rect class="cls-1" x="80" y="288" width="12" height="12"/><rect class="cls-1" x="96" width="12" height="12"/><rect class="cls-1" x="96" y="16" width="12" height="12"/><rect class="cls-1" x="96" y="32" width="12" height="12"/><rect class="cls-3" x="96" y="48" width="12" height="12"/><rect class="cls-3" x="96" y="64" width="12" height="12"/><rect class="cls-3" x="96" y="80" width="12" height="12"/><rect class="cls-3" x="96" y="96" width="12" height="12"/><rect class="cls-3" x="96" y="112" width="12" height="12"/><rect class="cls-3" x="96" y="128" width="12" height="12"/><rect class="cls-1" x="96" y="144" width="12" height="12"/><rect class="cls-1" x="96" y="160" width="12" height="12"/><rect class="cls-1" x="96" y="176" width="12" height="12"/><rect class="cls-1" x="96" y="192" width="12" height="12"/><rect class="cls-1" x="96" y="208" width="12" height="12"/><rect class="cls-1" x="96" y="224" width="12" height="12"/><rect class="cls-1" x="96" y="240" width="12" height="12"/><rect class="cls-1" x="80" y="176" width="12" height="12"/><rect class="cls-1" x="80" y="192" width="12" height="12"/><rect class="cls-1" x="80" y="208" width="12" height="12"/><rect class="cls-1" x="80" y="224" width="12" height="12"/><rect class="cls-1" x="80" y="240" width="12" height="12"/><rect class="cls-1" x="96" y="288" width="12" height="12"/><rect class="cls-1" x="112" width="12" height="12"/><rect class="cls-1" x="112" y="32" width="12" height="12"/><rect class="cls-3" x="112" y="48" width="12" height="12"/><rect class="cls-3" x="112" y="80" width="12" height="12"/><rect class="cls-3" x="112" y="96" width="12" height="12"/><rect class="cls-3" x="112" y="112" width="12" height="12"/><rect class="cls-3" x="112" y="128" width="12" height="12"/><rect class="cls-1" x="112" y="144" width="12" height="12"/><rect class="cls-1" x="112" y="160.38" width="12" height="12"/><rect class="cls-1" x="112" y="176" width="12" height="12"/><rect class="cls-3" x="112" y="224" width="12" height="12"/><rect class="cls-1" x="112" y="240" width="12" height="12"/><rect class="cls-1" x="112" y="256" width="12" height="12"/><rect class="cls-1" x="112" y="288.38" width="12" height="12"/><rect class="cls-1" x="96" y="352" width="12" height="12"/><rect class="cls-1" x="96" y="526" width="12" height="12"/><rect class="cls-1" x="96" y="256" width="12" height="12"/><rect class="cls-1" x="96" y="272.38" width="12" height="12"/><rect class="cls-1" x="80" y="256" width="12" height="12"/><rect class="cls-1" x="128" width="12" height="12"/><rect class="cls-1" x="128" y="16" width="12" height="12"/><rect class="cls-1" x="112" y="16" width="12" height="12"/><rect class="cls-1" x="144" y="16" width="12" height="12"/><rect class="cls-1" x="128" y="32" width="12" height="12"/><rect class="cls-3" x="128" y="48" width="12" height="12"/><rect class="cls-3" x="128" y="64" width="12" height="12"/><rect class="cls-3" x="128" y="80" width="12" height="12"/><rect class="cls-3" x="128" y="112" width="12" height="12"/><rect class="cls-3" x="128" y="128" width="12" height="12"/><rect class="cls-1" x="128" y="144" width="12" height="12"/><rect class="cls-1" x="128" y="160" width="12" height="12"/><rect class="cls-1" x="128" y="176" width="12" height="12"/><rect class="cls-3" x="128" y="224" width="12" height="12"/><rect class="cls-1" x="128" y="240" width="12" height="12"/><rect class="cls-1" x="128" y="256" width="12" height="12"/><rect class="cls-1" x="128" y="272" width="12" height="12"/><rect class="cls-1" x="128" y="288" width="12" height="12"/><rect class="cls-1" x="128" y="304" width="12" height="12"/><rect class="cls-1" x="144" width="12" height="12"/><rect class="cls-1" x="144" y="32" width="12" height="12"/><rect class="cls-1" x="144" y="48" width="12" height="12"/><rect class="cls-1" x="144" y="64" width="12" height="12"/><rect class="cls-1" x="144" y="80" width="12" height="12"/><rect class="cls-1" x="144" y="96" width="12" height="12"/><rect class="cls-1" x="144" y="112" width="12" height="12"/><rect class="cls-1" x="144" y="128" width="12" height="12"/><rect class="cls-1" x="144" y="144" width="12" height="12"/><rect class="cls-1" x="144" y="160" width="12" height="12"/><rect class="cls-1" x="144" y="176" width="12" height="12"/><rect class="cls-1" x="144" y="192" width="12" height="12"/><rect class="cls-1" x="144" y="208" width="12" height="12"/><rect class="cls-1" x="144" y="224" width="12" height="12"/><rect class="cls-3" x="144" y="240" width="12" height="12"/><rect class="cls-3" x="144" y="256" width="12" height="12"/><rect class="cls-3" x="144" y="272" width="12" height="12"/><rect class="cls-3" x="144" y="288" width="12" height="12"/><rect class="cls-3" x="144" y="304" width="12" height="12"/><rect class="cls-1" x="128" y="320" width="12" height="12"/><rect class="cls-1" x="128" y="352" width="12" height="12"/><rect class="cls-1" x="128" y="368" width="12" height="12"/><rect class="cls-3" x="144" y="368" width="12" height="12"/><rect class="cls-1" x="128" y="432" width="12" height="12"/><rect class="cls-1" x="128" y="448" width="12" height="12"/><rect class="cls-1" x="128" y="526" width="12" height="12"/><rect class="cls-1" x="128" y="542" width="12" height="12"/><rect class="cls-1" x="128" y="558" width="12" height="12"/><rect class="cls-1" x="128" y="574" width="12" height="12"/><path class="cls-4" d="M247.5,603.5"/></g></g></svg>