<svg xmlns="http://www.w3.org/2000/svg" viewBox="0 0 62 62"><defs><style>.cls-1{fill:#fff;stroke-miterlimit:10;stroke-width:4px;}.cls-1,.cls-3{stroke:#c00;}.cls-2{fill:#c00;}.cls-3{fill:none;stroke-linejoin:round;stroke-width:1.5px;}</style></defs><title>Storbyen-icon</title><g id="Layer_2" data-name="Layer 2"><g id="Storbyen"><circle class="cls-1" cx="31" cy="31" r="29"/><path class="cls-2" d="M22.63,20.23a.72.72,0,0,0-.72.72V47.74a.72.72,0,0,0,.72.72H39.37a.72.72,0,0,0,.72-.72V21a.72.72,0,0,0-.72-.72H37.58V17.61a.72.72,0,0,0-.72-.72H35.49V14.26a.72.72,0,0,0-.72-.72H27.23a.72.72,0,0,0-.72.72v2.63H25.14a.72.72,0,0,0-.72.72v2.63ZM38.65,47H33.4V44.39a.72.72,0,0,0-.72-.72H29.33a.72.72,0,0,0-.72.72V47H23.35V21.68H38.65ZM32,47H30v-1.9H32Zm4.18-26.78H25.86v-1.9H36.14ZM34,16.89H28V15H34Z"/><rect class="cls-3" x="25.48" y="23.72" width="3.68" height="3.68"/><rect class="cls-3" x="32.84" y="23.72" width="3.68" height="3.68"/><rect class="cls-3" x="25.48" y="30.16" width="3.68" height="3.68"/><rect class="cls-3" x="32.84" y="30.16" width="3.68" height="3.68"/><rect class="cls-3" x="32.84" y="36.61" width="3.68" height="3.68"/><rect class="cls-3" x="25.48" y="36.61" width="3.68" height="3.68"/></g></g></svg>