<svg width="732" height="524" viewBox="0 0 732 524" fill="none" xmlns="http://www.w3.org/2000/svg">
<rect x="608" y="144" width="12" height="12" fill="#AE0000"/>
<rect x="624" y="144" width="12" height="12" fill="#AE0000"/>
<rect x="640" y="144" width="12" height="12" fill="#990000"/>
<rect x="656" y="144" width="12" height="12" fill="#AE0000"/>
<rect x="672" y="144" width="12" height="12" fill="#990000"/>
<rect x="688" y="144" width="12" height="12" fill="#990000"/>
<rect x="704" y="144" width="12" height="12" fill="#990000"/>
<rect x="720" y="144" width="12" height="12" fill="#AE0000"/>
<rect x="608" y="176" width="12" height="12" fill="#AE0000"/>
<rect x="624" y="176" width="12" height="12" fill="#990000"/>
<rect x="640" y="176" width="12" height="12" fill="#990000"/>
<rect x="656" y="176" width="12" height="12" fill="#AE0000"/>
<rect x="672" y="176" width="12" height="12" fill="#990000"/>
<rect x="688" y="176" width="12" height="12" fill="#990000"/>
<rect x="704" y="176" width="12" height="12" fill="#990000"/>
<rect x="720" y="176" width="12" height="12" fill="#990000"/>
<rect x="608" y="208" width="12" height="12" fill="#990000"/>
<rect x="624" y="208" width="12" height="12" fill="#990000"/>
<rect x="640" y="208" width="12" height="12" fill="#990000"/>
<rect x="656" y="208" width="12" height="12" fill="#990000"/>
<rect x="672" y="208" width="12" height="12" fill="#990000"/>
<rect x="688" y="208" width="12" height="12" fill="#990000"/>
<rect x="704" y="208" width="12" height="12" fill="#990000"/>
<rect x="720" y="208" width="12" height="12" fill="#990000"/>
<rect x="320" y="112" width="12" height="12" fill="#990000"/>
<rect x="464" y="240" width="12" height="12" fill="#990000"/>
<rect x="336" y="96" width="12" height="12" fill="#990000"/>
<rect x="384" width="12" height="12" fill="#990000"/>
<rect x="448" y="112" width="12" height="12" fill="#990000"/>
<rect x="448" y="16" width="12" height="12" fill="#990000"/>
<rect x="384" y="16" width="12" height="12" fill="#990000"/>
<rect x="480" y="240" width="12" height="12" fill="#990000"/>
<rect x="400" width="12" height="12" fill="#990000"/>
<rect x="496" y="240" width="12" height="12" fill="#990000"/>
<rect x="496" y="224" width="12" height="12" fill="#AE0000"/>
<rect x="496" y="208" width="12" height="12" fill="#990000"/>
<rect x="416" width="12" height="12" fill="#990000"/>
<rect x="512" y="240" width="12" height="12" fill="#990000"/>
<rect x="352" y="96" width="12" height="12" fill="#990000"/>
<rect x="432" width="12" height="12" fill="#990000"/>
<rect x="368" y="96" width="12" height="12" fill="#990000"/>
<rect x="368" y="112" width="12" height="12" fill="#990000"/>
<rect x="608" y="240" width="12" height="12" fill="#990000"/>
<rect x="640" y="240" width="12" height="12" fill="#990000"/>
<rect x="656" y="240" width="12" height="12" fill="#990000"/>
<rect x="672" y="240" width="12" height="12" fill="#990000"/>
<rect x="688" y="240" width="12" height="12" fill="#990000"/>
<rect x="704" y="240" width="12" height="12" fill="#990000"/>
<rect x="720" y="240" width="12" height="12" fill="#990000"/>
<rect x="320" y="144" width="12" height="12" fill="#990000"/>
<rect x="464" y="272" width="12" height="12" fill="#990000"/>
<rect x="432" y="272" width="12" height="12" fill="#990000"/>
<rect x="448" y="144" width="12" height="12" fill="#990000"/>
<rect x="448" y="48" width="12" height="12" fill="#990000"/>
<rect x="384" y="48" width="12" height="12" fill="#990000"/>
<rect x="480" y="272" width="12" height="12" fill="#990000"/>
<rect x="496" y="272" width="12" height="12" fill="#AE0000"/>
<rect x="512" y="272" width="12" height="12" fill="#990000"/>
<rect x="608" y="272" width="12" height="12" fill="#990000"/>
<rect x="624" y="272" width="12" height="12" fill="#990000"/>
<rect x="640" y="272" width="12" height="12" fill="#990000"/>
<rect x="656" y="272" width="12" height="12" fill="#AE0000"/>
<rect x="672" y="272" width="12" height="12" fill="#990000"/>
<rect x="688" y="272" width="12" height="12" fill="#990000"/>
<rect x="704" y="272" width="12" height="12" fill="#990000"/>
<rect x="720" y="272" width="12" height="12" fill="#990000"/>
<rect x="192" y="176" width="12" height="12" fill="#AE0000"/>
<rect x="320" y="176" width="12" height="12" fill="#990000"/>
<rect x="464" y="304" width="12" height="12" fill="#AE0000"/>
<rect x="448" y="176" width="12" height="12" fill="#990000"/>
<rect x="448" y="80" width="12" height="12" fill="#990000"/>
<rect x="384" y="80" width="12" height="12" fill="#AE0000"/>
<rect x="480" y="304" width="12" height="12" fill="#AE0000"/>
<rect x="496" y="304" width="12" height="12" fill="#AE0000"/>
<rect x="512" y="304" width="12" height="12" fill="#AE0000"/>
<rect x="528" y="304" width="12" height="12" fill="#AE0000"/>
<rect x="544" y="304" width="12" height="12" fill="#990000"/>
<rect x="560" y="304" width="12" height="12" fill="#990000"/>
<rect x="576" y="304" width="12" height="12" fill="#990000"/>
<rect x="592" y="304" width="12" height="12" fill="#990000"/>
<rect x="608" y="304" width="12" height="12" fill="#990000"/>
<rect x="624" y="304" width="12" height="12" fill="#990000"/>
<rect x="640" y="304" width="12" height="12" fill="#990000"/>
<rect x="656" y="304" width="12" height="12" fill="#990000"/>
<rect x="672" y="304" width="12" height="12" fill="#990000"/>
<rect x="688" y="304" width="12" height="12" fill="#990000"/>
<rect x="704" y="304" width="12" height="12" fill="#990000"/>
<rect x="720" y="304" width="12" height="12" fill="#990000"/>
<rect x="192" y="208" width="12" height="12" fill="#990000"/>
<rect x="288" y="208" width="12" height="12" fill="#990000"/>
<rect x="320" y="208" width="12" height="12" fill="#990000"/>
<rect x="464" y="336" width="12" height="12" fill="#AE0000"/>
<rect x="448" y="208" width="12" height="12" fill="#990000"/>
<rect x="480" y="336" width="12" height="12" fill="#AE0000"/>
<rect x="512" y="336" width="12" height="12" fill="#AE0000"/>
<rect x="528" y="336" width="12" height="12" fill="#AE0000"/>
<rect x="544" y="336" width="12" height="12" fill="#990000"/>
<rect x="560" y="336" width="12" height="12" fill="#990000"/>
<rect x="576" y="336" width="12" height="12" fill="#990000"/>
<rect x="592" y="336" width="12" height="12" fill="#990000"/>
<rect x="608" y="336" width="12" height="12" fill="#AE0000"/>
<rect x="624" y="336" width="12" height="12" fill="#990000"/>
<rect x="640" y="336" width="12" height="12" fill="#990000"/>
<rect x="656" y="336" width="12" height="12" fill="#990000"/>
<rect x="688" y="336" width="12" height="12" fill="#990000"/>
<rect x="704" y="336" width="12" height="12" fill="#990000"/>
<rect x="720" y="336" width="12" height="12" fill="#990000"/>
<rect x="192" y="240" width="12" height="12" fill="#AE0000"/>
<rect x="288" y="240" width="12" height="12" fill="#990000"/>
<rect x="320" y="240" width="12" height="12" fill="#990000"/>
<rect x="464" y="368" width="12" height="12" fill="#AE0000"/>
<rect x="448" y="240" width="12" height="12" fill="#990000"/>
<rect x="320" y="96" width="12" height="12" fill="#990000"/>
<rect x="480" y="368" width="12" height="12" fill="#AE0000"/>
<rect x="496" y="368" width="12" height="12" fill="#AE0000"/>
<rect x="512" y="368" width="12" height="12" fill="#AE0000"/>
<rect x="528" y="368" width="12" height="12" fill="#AE0000"/>
<rect x="544" y="368" width="12" height="12" fill="#AE0000"/>
<rect x="560" y="368" width="12" height="12" fill="#AE0000"/>
<rect x="576" y="368" width="12" height="12" fill="#990000"/>
<rect x="592" y="368" width="12" height="12" fill="#990000"/>
<rect x="608" y="368" width="12" height="12" fill="#990000"/>
<rect x="624" y="368" width="12" height="12" fill="#AE0000"/>
<rect x="640" y="368" width="12" height="12" fill="#990000"/>
<rect x="656" y="368" width="12" height="12" fill="#990000"/>
<rect x="672" y="368" width="12" height="12" fill="#990000"/>
<rect x="688" y="368" width="12" height="12" fill="#990000"/>
<rect x="704" y="368" width="12" height="12" fill="#990000"/>
<rect x="720" y="368" width="12" height="12" fill="#AE0000"/>
<rect x="192" y="272" width="12" height="12" fill="#990000"/>
<rect x="288" y="272" width="12" height="12" fill="#990000"/>
<rect x="304" y="272" width="12" height="12" fill="#AE0000"/>
<rect x="320" y="272" width="12" height="12" fill="#990000"/>
<rect x="464" y="400" width="12" height="12" fill="#AE0000"/>
<rect x="448" y="272" width="12" height="12" fill="#990000"/>
<rect x="416" y="272" width="12" height="12" fill="#990000"/>
<rect x="432" y="32" width="12" height="12" fill="#990000"/>
<rect x="400" y="32" width="12" height="12" fill="#990000"/>
<rect x="480" y="400" width="12" height="12" fill="#AE0000"/>
<rect x="496" y="400" width="12" height="12" fill="#AE0000"/>
<rect x="512" y="400" width="12" height="12" fill="#AE0000"/>
<rect x="528" y="400" width="12" height="12" fill="#AE0000"/>
<rect x="544" y="400" width="12" height="12" fill="#AE0000"/>
<rect x="560" y="400" width="12" height="12" fill="#AE0000"/>
<rect x="576" y="400" width="12" height="12" fill="#990000"/>
<rect x="592" y="400" width="12" height="12" fill="#990000"/>
<rect x="608" y="400" width="12" height="12" fill="#990000"/>
<rect x="624" y="400" width="12" height="12" fill="#990000"/>
<rect x="640" y="400" width="12" height="12" fill="#990000"/>
<rect x="656" y="400" width="12" height="12" fill="#990000"/>
<rect x="672" y="400" width="12" height="12" fill="#990000"/>
<rect x="688" y="400" width="12" height="12" fill="#990000"/>
<rect x="704" y="400" width="12" height="12" fill="#990000"/>
<rect x="720" y="400" width="12" height="12" fill="#AE0000"/>
<rect x="192" y="304" width="12" height="12" fill="#990000"/>
<rect x="464" y="432" width="12" height="12" fill="#AE0000"/>
<rect x="416" y="432" width="12" height="12" fill="#AE0000"/>
<rect x="448" y="304" width="12" height="12" fill="#AE0000"/>
<rect x="432" y="64" width="12" height="12" fill="#990000"/>
<rect x="400" y="64" width="12" height="12" fill="#AE0000"/>
<rect x="480" y="432" width="12" height="12" fill="#AE0000"/>
<rect x="496" y="432" width="12" height="12" fill="#AE0000"/>
<rect x="512" y="432" width="12" height="12" fill="#AE0000"/>
<rect x="528" y="432" width="12" height="12" fill="#AE0000"/>
<rect x="544" y="432" width="12" height="12" fill="#AE0000"/>
<rect x="560" y="432" width="12" height="12" fill="#AE0000"/>
<rect x="576" y="432" width="12" height="12" fill="#990000"/>
<rect x="592" y="432" width="12" height="12" fill="#990000"/>
<rect x="608" y="432" width="12" height="12" fill="#990000"/>
<rect x="624" y="432" width="12" height="12" fill="#990000"/>
<rect x="640" y="432" width="12" height="12" fill="#990000"/>
<rect x="656" y="432" width="12" height="12" fill="#990000"/>
<rect x="672" y="432" width="12" height="12" fill="#990000"/>
<rect x="688" y="432" width="12" height="12" fill="#990000"/>
<rect x="704" y="432" width="12" height="12" fill="#AE0000"/>
<rect x="720" y="432" width="12" height="12" fill="#AE0000"/>
<rect x="64" y="336" width="12" height="12" fill="#990000"/>
<rect x="320" y="336" width="12" height="12" fill="#990000"/>
<rect x="192" y="336" width="12" height="12" fill="#990000"/>
<rect x="448" y="336" width="12" height="12" fill="#AE0000"/>
<rect x="432" y="96" width="12" height="12" fill="#990000"/>
<rect x="400" y="96" width="12" height="12" fill="#AE0000"/>
<rect x="480" y="464" width="12" height="12" fill="#AE0000"/>
<rect x="496" y="464" width="12" height="12" fill="#AE0000"/>
<rect x="512" y="464" width="12" height="12" fill="#AE0000"/>
<rect x="528" y="464" width="12" height="12" fill="#AE0000"/>
<rect x="544" y="464" width="12" height="12" fill="#990000"/>
<rect x="560" y="464" width="12" height="12" fill="#990000"/>
<rect x="576" y="464" width="12" height="12" fill="#990000"/>
<rect x="592" y="464" width="12" height="12" fill="#990000"/>
<rect x="608" y="464" width="12" height="12" fill="#990000"/>
<rect x="624" y="464" width="12" height="12" fill="#990000"/>
<rect x="640" y="464" width="12" height="12" fill="#990000"/>
<rect x="688" y="464" width="12" height="12" fill="#AE0000"/>
<rect x="704" y="464" width="12" height="12" fill="#AE0000"/>
<rect x="720" y="464" width="12" height="12" fill="#AE0000"/>
<rect x="64" y="368" width="12" height="12" fill="#990000"/>
<rect x="320" y="368" width="12" height="12" fill="#990000"/>
<rect x="192" y="368" width="12" height="12" fill="#990000"/>
<rect x="464" y="496" width="12" height="12" fill="#990000"/>
<rect x="448" y="368" width="12" height="12" fill="#AE0000"/>
<rect x="432" y="128" width="12" height="12" fill="#990000"/>
<rect x="400" y="128" width="12" height="12" fill="#AE0000"/>
<rect x="384" y="144" width="12" height="12" fill="#AE0000"/>
<rect x="480" y="496" width="12" height="12" fill="#990000"/>
<rect x="416" y="496" width="12" height="12" fill="#990000"/>
<rect x="496" y="496" width="12" height="12" fill="#990000"/>
<rect x="432" y="496" width="12" height="12" fill="#990000"/>
<rect x="512" y="496" width="12" height="12" fill="#990000"/>
<rect x="448" y="496" width="12" height="12" fill="#990000"/>
<rect x="528" y="496" width="12" height="12" fill="#990000"/>
<rect x="544" y="496" width="12" height="12" fill="#990000"/>
<rect x="560" y="496" width="12" height="12" fill="#990000"/>
<rect x="576" y="496" width="12" height="12" fill="#990000"/>
<rect x="592" y="496" width="12" height="12" fill="#990000"/>
<rect x="608" y="496" width="12" height="12" fill="#990000"/>
<rect x="624" y="496" width="12" height="12" fill="#990000"/>
<rect x="640" y="496" width="12" height="12" fill="#990000"/>
<rect x="688" y="496" width="12" height="12" fill="#990000"/>
<rect x="704" y="496" width="12" height="12" fill="#AE0000"/>
<rect x="720" y="496" width="12" height="12" fill="#AE0000"/>
<rect x="64" y="400" width="12" height="12" fill="#990000"/>
<rect x="320" y="400" width="12" height="12" fill="#990000"/>
<rect x="192" y="400" width="12" height="12" fill="#990000"/>
<rect x="64" y="464" width="12" height="12" fill="#990000"/>
<rect x="320" y="464" width="12" height="12" fill="#990000"/>
<rect y="464" width="12" height="12" fill="#990000"/>
<rect x="16" y="464" width="12" height="12" fill="#AE0000"/>
<rect x="32" y="464" width="12" height="12" fill="#990000"/>
<rect x="64" y="432" width="12" height="12" fill="#990000"/>
<rect x="320" y="432" width="12" height="12" fill="#990000"/>
<rect x="192" y="432" width="12" height="12" fill="#AE0000"/>
<rect y="432" width="12" height="12" fill="#990000"/>
<rect x="16" y="432" width="12" height="12" fill="#AE0000"/>
<rect x="32" y="432" width="12" height="12" fill="#990000"/>
<rect x="176" y="496" width="12" height="12" fill="#AE0000"/>
<rect x="192" y="496" width="12" height="12" fill="#AE0000"/>
<rect x="208" y="496" width="12" height="12" fill="#AE0000"/>
<rect y="496" width="12" height="12" fill="#990000"/>
<rect x="16" y="496" width="12" height="12" fill="#AE0000"/>
<rect x="32" y="496" width="12" height="12" fill="#990000"/>
<rect x="608" y="160" width="12" height="12" fill="#990000"/>
<rect x="624" y="160" width="12" height="12" fill="#990000"/>
<rect x="640" y="160" width="12" height="12" fill="#990000"/>
<rect x="656" y="160" width="12" height="12" fill="#990000"/>
<rect x="672" y="160" width="12" height="12" fill="#990000"/>
<rect x="688" y="160" width="12" height="12" fill="#990000"/>
<rect x="720" y="160" width="12" height="12" fill="#990000"/>
<rect x="608" y="192" width="12" height="12" fill="#990000"/>
<rect x="624" y="192" width="12" height="12" fill="#990000"/>
<rect x="640" y="192" width="12" height="12" fill="#990000"/>
<rect x="656" y="192" width="12" height="12" fill="#990000"/>
<rect x="688" y="192" width="12" height="12" fill="#AE0000"/>
<rect x="704" y="192" width="12" height="12" fill="#990000"/>
<rect x="720" y="192" width="12" height="12" fill="#990000"/>
<rect x="448" y="96" width="12" height="12" fill="#990000"/>
<rect x="416" y="80" width="12" height="12" fill="#AE0000"/>
<rect x="384" y="96" width="12" height="12" fill="#AE0000"/>
<rect x="448" width="12" height="12" fill="#990000"/>
<rect x="608" y="224" width="12" height="12" fill="#990000"/>
<rect x="624" y="224" width="12" height="12" fill="#990000"/>
<rect x="640" y="224" width="12" height="12" fill="#990000"/>
<rect x="656" y="224" width="12" height="12" fill="#990000"/>
<rect x="672" y="224" width="12" height="12" fill="#990000"/>
<rect x="688" y="224" width="12" height="12" fill="#AE0000"/>
<rect x="704" y="224" width="12" height="12" fill="#990000"/>
<rect x="720" y="224" width="12" height="12" fill="#990000"/>
<rect x="320" y="128" width="12" height="12" fill="#990000"/>
<rect x="464" y="256" width="12" height="12" fill="#990000"/>
<rect x="448" y="128" width="12" height="12" fill="#990000"/>
<rect x="416" y="112" width="12" height="12" fill="#990000"/>
<rect x="448" y="32" width="12" height="12" fill="#990000"/>
<rect x="416" y="16" width="12" height="12" fill="#990000"/>
<rect x="384" y="32" width="12" height="12" fill="#990000"/>
<rect x="480" y="256" width="12" height="12" fill="#990000"/>
<rect x="496" y="256" width="12" height="12" fill="#990000"/>
<rect x="512" y="256" width="12" height="12" fill="#990000"/>
<rect x="608" y="256" width="12" height="12" fill="#990000"/>
<rect x="624" y="256" width="12" height="12" fill="#990000"/>
<rect x="640" y="256" width="12" height="12" fill="#990000"/>
<rect x="656" y="256" width="12" height="12" fill="#990000"/>
<rect x="672" y="256" width="12" height="12" fill="#AE0000"/>
<rect x="688" y="256" width="12" height="12" fill="#990000"/>
<rect x="704" y="256" width="12" height="12" fill="#990000"/>
<rect x="720" y="256" width="12" height="12" fill="#990000"/>
<rect x="320" y="160" width="12" height="12" fill="#990000"/>
<rect x="464" y="288" width="12" height="12" fill="#990000"/>
<rect x="416" y="288" width="12" height="12" fill="#990000"/>
<rect x="448" y="160" width="12" height="12" fill="#990000"/>
<rect x="416" y="160" width="12" height="12" fill="#990000"/>
<rect x="448" y="64" width="12" height="12" fill="#990000"/>
<rect x="416" y="48" width="12" height="12" fill="#990000"/>
<rect x="384" y="64" width="12" height="12" fill="#990000"/>
<rect x="480" y="288" width="12" height="12" fill="#AE0000"/>
<rect x="432" y="288" width="12" height="12" fill="#990000"/>
<rect x="496" y="288" width="12" height="12" fill="#990000"/>
<rect x="512" y="288" width="12" height="12" fill="#990000"/>
<rect x="528" y="288" width="12" height="12" fill="#990000"/>
<rect x="544" y="288" width="12" height="12" fill="#990000"/>
<rect x="560" y="288" width="12" height="12" fill="#990000"/>
<rect x="576" y="288" width="12" height="12" fill="#990000"/>
<rect x="592" y="288" width="12" height="12" fill="#990000"/>
<rect x="608" y="288" width="12" height="12" fill="#990000"/>
<rect x="624" y="288" width="12" height="12" fill="#AE0000"/>
<rect x="640" y="288" width="12" height="12" fill="#AE0000"/>
<rect x="656" y="288" width="12" height="12" fill="#990000"/>
<rect x="672" y="288" width="12" height="12" fill="#990000"/>
<rect x="688" y="288" width="12" height="12" fill="#990000"/>
<rect x="704" y="288" width="12" height="12" fill="#990000"/>
<rect x="720" y="288" width="12" height="12" fill="#990000"/>
<rect x="192" y="192" width="12" height="12" fill="#990000"/>
<rect x="288" y="192" width="12" height="12" fill="#990000"/>
<rect x="320" y="192" width="12" height="12" fill="#990000"/>
<rect x="464" y="320" width="12" height="12" fill="#AE0000"/>
<rect x="448" y="192" width="12" height="12" fill="#990000"/>
<rect x="416" y="192" width="12" height="12" fill="#AE0000"/>
<rect x="480" y="320" width="12" height="12" fill="#AE0000"/>
<rect x="496" y="320" width="12" height="12" fill="#AE0000"/>
<rect x="512" y="320" width="12" height="12" fill="#AE0000"/>
<rect x="528" y="320" width="12" height="12" fill="#AE0000"/>
<rect x="544" y="320" width="12" height="12" fill="#990000"/>
<rect x="560" y="320" width="12" height="12" fill="#990000"/>
<rect x="576" y="320" width="12" height="12" fill="#990000"/>
<rect x="592" y="320" width="12" height="12" fill="#990000"/>
<rect x="608" y="320" width="12" height="12" fill="#990000"/>
<rect x="624" y="320" width="12" height="12" fill="#990000"/>
<rect x="640" y="320" width="12" height="12" fill="#990000"/>
<rect x="656" y="320" width="12" height="12" fill="#990000"/>
<rect x="672" y="320" width="12" height="12" fill="#990000"/>
<rect x="688" y="320" width="12" height="12" fill="#990000"/>
<rect x="704" y="320" width="12" height="12" fill="#990000"/>
<rect x="720" y="320" width="12" height="12" fill="#990000"/>
<rect x="192" y="224" width="12" height="12" fill="#990000"/>
<rect x="288" y="224" width="12" height="12" fill="#990000"/>
<rect x="320" y="224" width="12" height="12" fill="#990000"/>
<rect x="464" y="352" width="12" height="12" fill="#AE0000"/>
<rect x="448" y="224" width="12" height="12" fill="#990000"/>
<rect x="416" y="224" width="12" height="12" fill="#990000"/>
<rect x="480" y="352" width="12" height="12" fill="#AE0000"/>
<rect x="496" y="352" width="12" height="12" fill="#AE0000"/>
<rect x="512" y="352" width="12" height="12" fill="#AE0000"/>
<rect x="528" y="352" width="12" height="12" fill="#AE0000"/>
<rect x="544" y="352" width="12" height="12" fill="#990000"/>
<rect x="576" y="352" width="12" height="12" fill="#990000"/>
<rect x="592" y="352" width="12" height="12" fill="#990000"/>
<rect x="608" y="352" width="12" height="12" fill="#990000"/>
<rect x="624" y="352" width="12" height="12" fill="#990000"/>
<rect x="640" y="352" width="12" height="12" fill="#990000"/>
<rect x="656" y="352" width="12" height="12" fill="#990000"/>
<rect x="672" y="352" width="12" height="12" fill="#990000"/>
<rect x="688" y="352" width="12" height="12" fill="#990000"/>
<rect x="704" y="352" width="12" height="12" fill="#990000"/>
<rect x="720" y="352" width="12" height="12" fill="#990000"/>
<rect x="192" y="256" width="12" height="12" fill="#990000"/>
<rect x="288" y="256" width="12" height="12" fill="#AE0000"/>
<rect x="320" y="256" width="12" height="12" fill="#AE0000"/>
<rect x="448" y="256" width="12" height="12" fill="#990000"/>
<rect x="432" y="16" width="12" height="12" fill="#990000"/>
<rect x="400" y="16" width="12" height="12" fill="#990000"/>
<rect x="512" y="384" width="12" height="12" fill="#AE0000"/>
<rect x="528" y="384" width="12" height="12" fill="#AE0000"/>
<rect x="544" y="384" width="12" height="12" fill="#990000"/>
<rect x="560" y="384" width="12" height="12" fill="#AE0000"/>
<rect x="576" y="384" width="12" height="12" fill="#990000"/>
<rect x="608" y="384" width="12" height="12" fill="#AE0000"/>
<rect x="624" y="384" width="12" height="12" fill="#990000"/>
<rect x="640" y="384" width="12" height="12" fill="#990000"/>
<rect x="656" y="384" width="12" height="12" fill="#990000"/>
<rect x="672" y="384" width="12" height="12" fill="#990000"/>
<rect x="688" y="384" width="12" height="12" fill="#AE0000"/>
<rect x="720" y="384" width="12" height="12" fill="#990000"/>
<rect x="192" y="288" width="12" height="12" fill="#990000"/>
<rect x="448" y="288" width="12" height="12" fill="#990000"/>
<rect x="400" y="288" width="12" height="12" fill="#990000"/>
<rect x="368" y="288" width="12" height="12" fill="#990000"/>
<rect x="432" y="48" width="12" height="12" fill="#990000"/>
<rect x="400" y="48" width="12" height="12" fill="#990000"/>
<rect x="480" y="416" width="12" height="12" fill="#AE0000"/>
<rect x="496" y="416" width="12" height="12" fill="#AE0000"/>
<rect x="512" y="416" width="12" height="12" fill="#AE0000"/>
<rect x="528" y="416" width="12" height="12" fill="#AE0000"/>
<rect x="544" y="416" width="12" height="12" fill="#990000"/>
<rect x="560" y="416" width="12" height="12" fill="#AE0000"/>
<rect x="576" y="416" width="12" height="12" fill="#990000"/>
<rect x="592" y="416" width="12" height="12" fill="#990000"/>
<rect x="608" y="416" width="12" height="12" fill="#990000"/>
<rect x="624" y="416" width="12" height="12" fill="#990000"/>
<rect x="640" y="416" width="12" height="12" fill="#990000"/>
<rect x="656" y="416" width="12" height="12" fill="#990000"/>
<rect x="672" y="416" width="12" height="12" fill="#AE0000"/>
<rect x="688" y="416" width="12" height="12" fill="#990000"/>
<rect x="704" y="416" width="12" height="12" fill="#990000"/>
<rect x="720" y="416" width="12" height="12" fill="#AE0000"/>
<rect x="64" y="320" width="12" height="12" fill="#AE0000"/>
<rect x="80" y="320" width="12" height="12" fill="#990000"/>
<rect x="112" y="320" width="12" height="12" fill="#990000"/>
<rect x="96" y="320" width="12" height="12" fill="#990000"/>
<rect x="128" y="320" width="12" height="12" fill="#990000"/>
<rect x="144" y="320" width="12" height="12" fill="#990000"/>
<rect x="192" y="320" width="12" height="12" fill="#990000"/>
<rect x="208" y="176" width="12" height="12" fill="#990000"/>
<rect x="160" y="320" width="12" height="12" fill="#990000"/>
<rect x="224" y="176" width="12" height="12" fill="#990000"/>
<rect x="224" y="240" width="12" height="12" fill="#990000"/>
<rect x="240" y="176" width="12" height="12" fill="#990000"/>
<rect x="256" y="176" width="12" height="12" fill="#990000"/>
<rect x="256" y="208" width="12" height="12" fill="#AE0000"/>
<rect x="272" y="176" width="12" height="12" fill="#990000"/>
<rect x="272" y="160" width="12" height="12" fill="#AE0000"/>
<rect x="272" y="144" width="12" height="12" fill="#AE0000"/>
<rect x="224" y="320" width="12" height="12" fill="#990000"/>
<rect x="288" y="176" width="12" height="12" fill="#990000"/>
<rect x="240" y="320" width="12" height="12" fill="#990000"/>
<rect x="256" y="320" width="12" height="12" fill="#990000"/>
<rect x="272" y="320" width="12" height="12" fill="#990000"/>
<rect x="288" y="320" width="12" height="12" fill="#990000"/>
<rect x="304" y="320" width="12" height="12" fill="#990000"/>
<rect x="320" y="320" width="12" height="12" fill="#AE0000"/>
<rect x="448" y="320" width="12" height="12" fill="#AE0000"/>
<rect x="432" y="320" width="12" height="12" fill="#AE0000"/>
<rect x="400" y="320" width="12" height="12" fill="#AE0000"/>
<rect x="432" y="80" width="12" height="12" fill="#990000"/>
<rect x="400" y="80" width="12" height="12" fill="#AE0000"/>
<rect x="496" y="448" width="12" height="12" fill="#AE0000"/>
<rect x="528" y="448" width="12" height="12" fill="#AE0000"/>
<rect x="544" y="448" width="12" height="12" fill="#AE0000"/>
<rect x="560" y="448" width="12" height="12" fill="#990000"/>
<rect x="576" y="448" width="12" height="12" fill="#990000"/>
<rect x="592" y="448" width="12" height="12" fill="#990000"/>
<rect x="608" y="448" width="12" height="12" fill="#990000"/>
<rect x="624" y="448" width="12" height="12" fill="#990000"/>
<rect x="640" y="448" width="12" height="12" fill="#990000"/>
<rect x="656" y="448" width="12" height="12" fill="#990000"/>
<rect x="672" y="448" width="12" height="12" fill="#AE0000"/>
<rect x="688" y="448" width="12" height="12" fill="#AE0000"/>
<rect x="704" y="448" width="12" height="12" fill="#AE0000"/>
<rect x="720" y="448" width="12" height="12" fill="#AE0000"/>
<rect x="64" y="352" width="12" height="12" fill="#990000"/>
<rect x="320" y="352" width="12" height="12" fill="#990000"/>
<rect x="192" y="352" width="12" height="12" fill="#990000"/>
<rect x="464" y="480" width="12" height="12" fill="#990000"/>
<rect x="432" y="112" width="12" height="12" fill="#990000"/>
<rect x="400" y="112" width="12" height="12" fill="#AE0000"/>
<rect x="480" y="480" width="12" height="12" fill="#990000"/>
<rect x="496" y="480" width="12" height="12" fill="#990000"/>
<rect x="528" y="480" width="12" height="12" fill="#990000"/>
<rect x="560" y="480" width="12" height="12" fill="#990000"/>
<rect x="592" y="480" width="12" height="12" fill="#AE0000"/>
<rect x="624" y="480" width="12" height="12" fill="#990000"/>
<rect x="640" y="480" width="12" height="12" fill="#AE0000"/>
<rect x="688" y="480" width="12" height="12" fill="#990000"/>
<rect x="704" y="480" width="12" height="12" fill="#AE0000"/>
<rect x="720" y="480" width="12" height="12" fill="#AE0000"/>
<rect x="64" y="384" width="12" height="12" fill="#990000"/>
<rect x="320" y="384" width="12" height="12" fill="#990000"/>
<rect x="192" y="384" width="12" height="12" fill="#990000"/>
<rect x="464" y="512" width="12" height="12" fill="#990000"/>
<rect x="400" y="512" width="12" height="12" fill="#990000"/>
<rect x="368" y="512" width="12" height="12" fill="#990000"/>
<rect x="480" y="512" width="12" height="12" fill="#990000"/>
<rect x="416" y="512" width="12" height="12" fill="#990000"/>
<rect x="496" y="512" width="12" height="12" fill="#990000"/>
<rect x="432" y="512" width="12" height="12" fill="#990000"/>
<rect x="512" y="512" width="12" height="12" fill="#990000"/>
<rect x="448" y="512" width="12" height="12" fill="#990000"/>
<rect x="528" y="512" width="12" height="12" fill="#990000"/>
<rect x="544" y="512" width="12" height="12" fill="#990000"/>
<rect x="560" y="512" width="12" height="12" fill="#990000"/>
<rect x="576" y="512" width="12" height="12" fill="#990000"/>
<rect x="592" y="512" width="12" height="12" fill="#990000"/>
<rect x="608" y="512" width="12" height="12" fill="#990000"/>
<rect x="624" y="512" width="12" height="12" fill="#990000"/>
<rect x="640" y="512" width="12" height="12" fill="#990000"/>
<rect x="688" y="512" width="12" height="12" fill="#990000"/>
<rect x="704" y="512" width="12" height="12" fill="#AE0000"/>
<rect x="720" y="512" width="12" height="12" fill="#AE0000"/>
<rect x="64" y="416" width="12" height="12" fill="#990000"/>
<rect x="320" y="416" width="12" height="12" fill="#990000"/>
<rect x="64" y="480" width="12" height="12" fill="#AE0000"/>
<rect x="80" y="480" width="12" height="12" fill="#990000"/>
<rect x="96" y="480" width="12" height="12" fill="#990000"/>
<rect x="112" y="480" width="12" height="12" fill="#990000"/>
<rect x="128" y="480" width="12" height="12" fill="#990000"/>
<rect x="144" y="480" width="12" height="12" fill="#990000"/>
<rect x="160" y="480" width="12" height="12" fill="#990000"/>
<rect x="176" y="480" width="12" height="12" fill="#990000"/>
<rect x="192" y="480" width="12" height="12" fill="#990000"/>
<rect x="208" y="480" width="12" height="12" fill="#990000"/>
<rect x="224" y="480" width="12" height="12" fill="#990000"/>
<rect x="240" y="480" width="12" height="12" fill="#990000"/>
<rect x="256" y="480" width="12" height="12" fill="#990000"/>
<rect x="272" y="480" width="12" height="12" fill="#990000"/>
<rect x="288" y="480" width="12" height="12" fill="#990000"/>
<rect x="304" y="480" width="12" height="12" fill="#990000"/>
<rect x="320" y="480" width="12" height="12" fill="#AE0000"/>
<rect y="480" width="12" height="12" fill="#AE0000"/>
<rect x="16" y="480" width="12" height="12" fill="#990000"/>
<rect x="32" y="480" width="12" height="12" fill="#AE0000"/>
<rect x="64" y="448" width="12" height="12" fill="#990000"/>
<rect x="320" y="448" width="12" height="12" fill="#990000"/>
<rect y="448" width="12" height="12" fill="#AE0000"/>
<rect x="16" y="448" width="12" height="12" fill="#990000"/>
<rect x="32" y="448" width="12" height="12" fill="#AE0000"/>
<rect x="160" y="512" width="12" height="12" fill="#AE0000"/>
<rect x="176" y="512" width="12" height="12" fill="#AE0000"/>
<rect x="192" y="512" width="12" height="12" fill="#AE0000"/>
<rect x="208" y="512" width="12" height="12" fill="#AE0000"/>
<rect x="224" y="512" width="12" height="12" fill="#AE0000"/>
<rect y="512" width="12" height="12" fill="#AE0000"/>
<rect x="16" y="512" width="12" height="12" fill="#990000"/>
<rect x="32" y="512" width="12" height="12" fill="#AE0000"/>
</svg>
