<svg xmlns="http://www.w3.org/2000/svg" viewBox="0 0 62 62"><defs><style>.cls-1,.cls-2{fill:#fff;stroke:#c00;stroke-miterlimit:10;}.cls-1{stroke-width:4px;}.cls-2{stroke-linecap:round;stroke-width:1.3px;}</style></defs><title>Åbneland-icon</title><g id="Layer_2" data-name="Layer 2"><g id="Det_åbne_land" data-name="Det åbne land"><circle class="cls-1" cx="31" cy="31" r="29"/><line class="cls-2" x1="30.54" y1="15.35" x2="30.54" y2="46.65"/><path class="cls-2" d="M25,20s5.52,1.3,5.52,4.51v3.69A5.42,5.42,0,0,1,25,23.43V14.89"/><path class="cls-2" d="M25,26.71S30.54,28,30.54,31.1v3.59A5.34,5.34,0,0,1,25,30V26.85"/><path class="cls-2" d="M36.06,26.71S30.54,28,30.54,31.1v3.59A5.34,5.34,0,0,0,36.06,30V26.85"/><path class="cls-2" d="M36.06,33.16s-5.52,1.27-5.52,4.39v3.59a5.34,5.34,0,0,0,5.52-4.68V33.29"/><path class="cls-2" d="M25,33.16s5.52,1.27,5.52,4.39v3.59A5.34,5.34,0,0,1,25,36.45V33.29"/><path class="cls-2" d="M36.06,20s-5.52,1.3-5.52,4.51v3.69a5.42,5.42,0,0,0,5.52-4.81V14.89"/></g></g></svg>