<svg xmlns="http://www.w3.org/2000/svg" viewBox="0 0 62 62"><defs><style>.cls-1{fill:#fff;stroke-width:4px;}.cls-1,.cls-3{stroke:#c00;stroke-miterlimit:10;}.cls-2{fill:#c00;}.cls-3{fill:none;stroke-linecap:round;stroke-width:1.2px;}</style></defs><title>Havnen-icon</title><g id="Layer_2" data-name="Layer 2"><g id="Havnen"><circle class="cls-1" cx="31" cy="31" r="29"/><path class="cls-2" d="M45.52,42.45H15.57A5.14,5.14,0,0,1,12,40.92a4.86,4.86,0,0,1-1.47-3.62v-.85a2.86,2.86,0,0,1,.06-1c.17-.34.33-.4.73-.4H51a.93.93,0,0,1,.85.57,1,1,0,0,1-.11.9l-1.64,3.11A5.2,5.2,0,0,1,45.52,42.45Zm-33.9-6.22v1.07a3.8,3.8,0,0,0,1.19,2.83,4,4,0,0,0,2.83,1.19H45.57a3.88,3.88,0,0,0,3.5-2.15l1.53-2.94Z"/><path class="cls-2" d="M49.42,36.23H41.5V29.45h7.91ZM42.63,35.1h5.65V30.58H42.63Z"/><path class="cls-2" d="M49.42,30.58H41.5v-4H49a.46.46,0,0,1,.46.46Zm-6.78-1.13h5.65v-1.7H42.63Z"/><path class="cls-2" d="M42.63,30.58H34.72v-4h7.91Zm-6.78-1.13H41.5v-1.7H35.85Z"/><path class="cls-2" d="M42.63,27.76H34.72v-4h7.45a.46.46,0,0,1,.46.46Zm-6.78-1.13H41.5v-1.7H35.85Z"/><path class="cls-2" d="M29.05,36.23H21.14V29.45h7.91ZM22.27,35.1h5.65V30.58H22.27Z"/><path class="cls-2" d="M35.9,30.58H28v-4H35.9Zm-6.78-1.13h5.65v-1.7H29.12Z"/><path class="cls-2" d="M29.05,30.58H21.14v-3.5a.46.46,0,0,1,.46-.46h7.45Zm-6.78-1.13h5.65v-1.7H22.27Z"/><path class="cls-2" d="M35.9,27.76H28v-3.5a.46.46,0,0,1,.46-.46H35.9Zm-6.78-1.13h5.65v-1.7H29.12Z"/><rect class="cls-2" x="11.39" y="38.14" width="38.31" height="1.13"/><path class="cls-2" d="M19.78,36.23H13.57V26A.46.46,0,0,1,14,25.5h5.76ZM14.7,35.1h4V26.63h-4Z"/><path class="cls-2" d="M19.78,26.63H14.7V21.54h4.63a.46.46,0,0,1,.46.46Zm-4-1.13h2.83V22.67H15.83Z"/><path class="cls-2" d="M18.09,22.67H14.7V19.28h2.93a.46.46,0,0,1,.46.46Zm-2.26-1.13H17V20.41H15.83Z"/><line class="cls-3" x1="17.32" y1="19.83" x2="12.71" y2="19.83"/></g></g></svg>