<svg xmlns="http://www.w3.org/2000/svg" viewBox="0 0 4700.5 197"><defs><style>.cls-1{fill:none;stroke:#fff;stroke-miterlimit:10;stroke-width:2.5px;}</style></defs><title>Right-line</title><g id="Layer_2" data-name="Layer 2"><g id="Line_right" data-name="Line right"><path class="cls-1" d="M416.5,151.25c12.94,0,12.94,16,25.87,16s12.93-16,25.87-16,12.94,16,25.87,16,12.93-16,25.87-16,12.94,16,25.87,16,12.93-16,25.87-16,12.94,16,25.87,16,12.94-16,25.87-16,12.94,16,25.87,16,12.94-16,25.87-16,12.94,16,25.88,16,12.94-16,25.87-16,12.94,16,25.87,16,12.94-16,25.87-16,12.94,16,25.87,16,12.94-16,25.87-16,12.94,16,25.88,16,12.94-16,25.87-16,12.94,16,25.88,16,12.94-16,25.88-16,12.94,16,25.88,16,12.94-16,25.88-16,12.94,16,25.88,16,12.94-16,25.87-16,12.94,16,25.88,16,12.94-16,25.88-16,12.94,16,25.88,16,12.94-16,25.88-16,12.94,16,25.88,16,12.94-16,25.88-16,12.94,16,25.88,16,12.94-16,25.88-16"/><path class="cls-1" d="M1244.5,151.63H3179.36a42.38,42.38,0,0,1,29.46,11.92l20.28,19.39A46.2,46.2,0,0,0,3261,195.75H4700.5"/><path class="cls-1" d="M418.5,151.25H360.68c-45.07,0-86.18,4.27-105.87-36.27L203.94,22.29c-12.94-21-37.66-21-65.56-21H0"/></g></g></svg>