<svg xmlns="http://www.w3.org/2000/svg" viewBox="0 0 62 62"><defs><style>.cls-1{fill:#fff;stroke:#c00;stroke-miterlimit:10;stroke-width:4px;}.cls-2{fill:#c00;}</style></defs><title>Offshore-icon</title><g id="Layer_2" data-name="Layer 2"><g id="Offshore"><circle class="cls-1" cx="31" cy="31" r="29"/><path class="cls-2" d="M39.29,16.79h0Zm1.13.77h0ZM33.21,24a1,1,0,0,0,1.4,0l5.63-6.22L39.47,17,33.25,22.6a1,1,0,0,0,0,1.4Zm.68,1.33a2,2,0,0,1-1.35-3.5L39,16A.77.77,0,0,1,40,16l1.14,1.14a.77.77,0,0,1,0,1.07l-5.8,6.41a2,2,0,0,1-1.44.66Z"/><path class="cls-2" d="M22.71,16.79h0Zm-1.13.77h0Zm.17.19L27.38,24a1,1,0,1,0,1.37-1.37L22.53,17Zm7.4,6.63h0Zm-1.05,1h-.05a2,2,0,0,1-1.44-.66l-5.8-6.41a.77.77,0,0,1,0-1.06L22,16A.77.77,0,0,1,23,16l6.41,5.8a2,2,0,0,1-1.35,3.5Z"/><path class="cls-2" d="M31,24.16a2.09,2.09,0,1,0,2.09,2.09A2.09,2.09,0,0,0,31,24.16m0,5.22a3.13,3.13,0,1,1,3.13-3.13A3.13,3.13,0,0,1,31,29.38"/><path class="cls-2" d="M21.92,34.87l.77.77L28.92,30a1,1,0,1,0-1.37-1.37Zm.77,1.84a1,1,0,0,1-.7-.29l-.86-.86a1,1,0,0,1,0-1.35l5.67-6.26a2,2,0,1,1,2.84,2.84l-6.26,5.67a1,1,0,0,1-.66.25Z"/><path class="cls-2" d="M33.06,28.61a1,1,0,0,0,0,1.4l6.22,5.63.77-.77-5.63-6.22a1,1,0,0,0-1.4,0Zm6.3,7.07h0Zm0,1a1,1,0,0,1-.66-.25L32.4,30.79a2,2,0,1,1,2.84-2.84l5.67,6.26a1,1,0,0,1,0,1.35l-.86.86a1,1,0,0,1-.7.29Z"/><path class="cls-2" d="M33,42.67,31.71,29.29a3,3,0,0,1-1.43,0L29,42c-.15,1-.58,1-.58,1a.52.52,0,0,1-.52-.57l1.44-14a.52.52,0,0,1,.75-.42,2,2,0,0,0,1.87,0,.52.52,0,0,1,.75.42l1.44,14.62a.52.52,0,0,1-.13.4,1,1,0,0,1-.39.17A1.47,1.47,0,0,1,33,42.67Z"/><path class="cls-2" d="M39.38,43.74c.41,0,.59.13,1,.59a2.16,2.16,0,0,0,1.79.95.62.62,0,0,0,0-1.23c-.41,0-.59-.13-1-.59a2.17,2.17,0,0,0-3.58,0c-.41.45-.6.59-1,.59s-.59-.13-1-.59a2.17,2.17,0,0,0-3.58,0c-.41.45-.6.59-1,.59s-.59-.13-1-.59a2.17,2.17,0,0,0-3.58,0c-.41.45-.6.59-1,.59s-.59-.13-1-.59a2.17,2.17,0,0,0-3.58,0c-.41.45-.6.59-1,.59a.62.62,0,0,0,0,1.23,2.16,2.16,0,0,0,1.79-.95c.41-.45.6-.59,1-.59s.59.13,1,.59a2.17,2.17,0,0,0,3.58,0c.41-.45.6-.59,1-.59s.59.13,1,.59a2.17,2.17,0,0,0,3.58,0c.41-.45.6-.59,1-.59s.59.13,1,.59a2.17,2.17,0,0,0,3.58,0C38.8,43.87,39,43.74,39.38,43.74Z"/></g></g></svg>