<svg xmlns="http://www.w3.org/2000/svg" viewBox="0 0 62 62"><defs><style>.cls-1,.cls-3{fill:#fff;}.cls-1{stroke:#c00;stroke-miterlimit:10;stroke-width:4px;}.cls-2{fill:#c00;}</style></defs><title>Byggepladsen-icon</title><g id="Layer_2" data-name="Layer 2"><g id="Byggepladsen"><circle class="cls-1" cx="31" cy="31" r="29"/><path class="cls-2" d="M19.45,44.08a.62.62,0,0,0,0,1.25H37.68a.62.62,0,1,0,0-1.25h-2l0-.1L32.37,25.28V19.83H42.85v4.38l-.06,0-5.43,2.92a.62.62,0,0,0-.3.53v7.09a.63.63,0,0,0,.63.62H49.27a.63.63,0,0,0,.62-.62V27.7a.62.62,0,0,0-.3-.53h0L44.1,24.21v-5a.63.63,0,0,0-.63-.62H36.58V17.16a.63.63,0,0,0-.32-.55l-4.59-2.53a.63.63,0,0,0-.3-.08h-7a.63.63,0,0,0-.62.62v3.94H19.45a.63.63,0,0,0-.62.62V21a.63.63,0,0,0,1.25,0v-1.2H23.7v5.43L20.41,44.08Zm14.57,0h-12l.22-.2L28,38.72Zm.1-1.59L29,37.88l3.75-3.36ZM22,42.5l1.4-8,3.75,3.36ZM28,37,24.62,34h6.83Zm20.61-2.88H38.31V28.32H48.64ZM31.48,32.72H24.59L28,29.57Zm.75-1-3.27-3,2.37-2.17Zm-8.39,0,.9-5.16,2.37,2.17-.09.08ZM28,27.88,25.93,26h4.2Zm18.75-.81H40.17l3.31-1.78ZM31.12,24.7H26.18L31.12,21ZM25,24.07V19.83h5.58Zm10.38-5.49H25V15.26h6.26l4.12,2.27Z"/><path class="cls-2" d="M27.14,17.1a.24.24,0,0,1,0-.48h3.21a.24.24,0,0,1,0,.48Z"/><path class="cls-3" d="M30.36,16.12H27.14a.74.74,0,0,0,0,1.48h3.21a.74.74,0,1,0,0-1.48Z"/></g></g></svg>