<svg width="826" height="476" viewBox="0 0 826 476" fill="none" xmlns="http://www.w3.org/2000/svg">
<rect x="718" y="16" width="12" height="12" fill="#AE0000"/>
<rect x="798" y="16" width="12" height="12" fill="#990000"/>
<rect x="718" y="48" width="12" height="12" fill="#AE0000"/>
<rect x="766" y="48" width="12" height="12" fill="#990000"/>
<rect x="798" y="48" width="12" height="12" fill="#AE0000"/>
<rect x="718" y="80" width="12" height="12" fill="#AE0000"/>
<rect x="734" y="80" width="12" height="12" fill="#AE0000"/>
<rect x="750" y="80" width="12" height="12" fill="#AE0000"/>
<rect x="766" y="80" width="12" height="12" fill="#AE0000"/>
<rect x="782" y="80" width="12" height="12" fill="#AE0000"/>
<rect x="798" y="80" width="12" height="12" fill="#AE0000"/>
<rect x="718" y="-3.05176e-05" width="12" height="12" fill="#AE0000"/>
<rect x="734" y="-3.05176e-05" width="12" height="12" fill="#AE0000"/>
<rect x="750" y="-3.05176e-05" width="12" height="12" fill="#AE0000"/>
<rect x="766" y="-3.05176e-05" width="12" height="12" fill="#AE0000"/>
<rect x="782" y="-3.05176e-05" width="12" height="12" fill="#AE0000"/>
<rect x="814" y="-3.05176e-05" width="12" height="12" fill="#990000"/>
<rect x="718" y="32" width="12" height="12" fill="#AE0000"/>
<rect x="750" y="32" width="12" height="12" fill="#990000"/>
<rect x="782" y="32" width="12" height="12" fill="#990000"/>
<rect x="718" y="64" width="12" height="12" fill="#AE0000"/>
<rect x="798" y="64" width="12" height="12" fill="#AE0000"/>
<rect x="590" y="48" width="12" height="12" fill="#AE0000"/>
<rect x="606" y="48" width="12" height="12" fill="#990000"/>
<rect x="622" y="48" width="12" height="12" fill="#990000"/>
<rect x="638" y="48" width="12" height="12" fill="#990000"/>
<rect x="654" y="48" width="12" height="12" fill="#990000"/>
<rect x="670" y="48" width="12" height="12" fill="#990000"/>
<rect x="686" y="48" width="12" height="12" fill="#990000"/>
<rect x="702" y="48" width="12" height="12" fill="#990000"/>
<rect x="590" y="80" width="12" height="12" fill="#990000"/>
<rect x="622" y="80" width="12" height="12" fill="#AE0000"/>
<rect x="638" y="80" width="12" height="12" fill="#990000"/>
<rect x="654" y="80" width="12" height="12" fill="#990000"/>
<rect x="670" y="80" width="12" height="12" fill="#990000"/>
<rect x="686" y="80" width="12" height="12" fill="#AE0000"/>
<rect x="590" y="112" width="12" height="12" fill="#990000"/>
<rect x="622" y="112" width="12" height="12" fill="#990000"/>
<rect x="638" y="112" width="12" height="12" fill="#990000"/>
<rect x="654" y="112" width="12" height="12" fill="#AE0000"/>
<rect x="670" y="112" width="12" height="12" fill="#990000"/>
<rect x="686" y="112" width="12" height="12" fill="#990000"/>
<rect x="702" y="112" width="12" height="12" fill="#990000"/>
<rect x="718" y="112" width="12" height="12" fill="#990000"/>
<rect x="750" y="112" width="12" height="12" fill="#990000"/>
<rect x="590" y="144" width="12" height="12" fill="#990000"/>
<rect x="622" y="144" width="12" height="12" fill="#AE0000"/>
<rect x="638" y="144" width="12" height="12" fill="#990000"/>
<rect x="654" y="144" width="12" height="12" fill="#990000"/>
<rect x="670" y="144" width="12" height="12" fill="#AE0000"/>
<rect x="686" y="144" width="12" height="12" fill="#990000"/>
<rect x="702" y="144" width="12" height="12" fill="#990000"/>
<rect x="718" y="144" width="12" height="12" fill="#990000"/>
<rect x="750" y="144" width="12" height="12" fill="#990000"/>
<rect x="590" y="176" width="12" height="12" fill="#990000"/>
<rect x="622" y="176" width="12" height="12" fill="#990000"/>
<rect x="638" y="176" width="12" height="12" fill="#990000"/>
<rect x="654" y="176" width="12" height="12" fill="#990000"/>
<rect x="670" y="176" width="12" height="12" fill="#990000"/>
<rect x="686" y="176" width="12" height="12" fill="#990000"/>
<rect x="702" y="176" width="12" height="12" fill="#990000"/>
<rect x="718" y="176" width="12" height="12" fill="#AE0000"/>
<rect x="750" y="176" width="12" height="12" fill="#990000"/>
<rect x="590" y="208" width="12" height="12" fill="#990000"/>
<rect x="622" y="208" width="12" height="12" fill="#990000"/>
<rect x="638" y="208" width="12" height="12" fill="#AE0000"/>
<rect x="654" y="208" width="12" height="12" fill="#990000"/>
<rect x="670" y="208" width="12" height="12" fill="#990000"/>
<rect x="750" y="208" width="12" height="12" fill="#990000"/>
<rect x="590" y="240" width="12" height="12" fill="#990000"/>
<rect x="750" y="240" width="12" height="12" fill="#990000"/>
<rect x="606" y="240" width="12" height="12" fill="#990000"/>
<rect x="622" y="240" width="12" height="12" fill="#990000"/>
<rect x="638" y="240" width="12" height="12" fill="#990000"/>
<rect x="654" y="240" width="12" height="12" fill="#990000"/>
<rect x="670" y="240" width="12" height="12" fill="#990000"/>
<rect x="686" y="240" width="12" height="12" fill="#990000"/>
<rect x="702" y="240" width="12" height="12" fill="#990000"/>
<rect x="718" y="240" width="12" height="12" fill="#990000"/>
<rect x="734" y="240" width="12" height="12" fill="#990000"/>
<rect x="590" y="64" width="12" height="12" fill="#990000"/>
<rect x="590" y="96" width="12" height="12" fill="#990000"/>
<rect x="750" y="96" width="12" height="12" fill="#990000"/>
<rect x="590" y="128" width="12" height="12" fill="#990000"/>
<rect x="750" y="128" width="12" height="12" fill="#990000"/>
<rect x="590" y="160" width="12" height="12" fill="#990000"/>
<rect x="750" y="160" width="12" height="12" fill="#990000"/>
<rect x="590" y="192" width="12" height="12" fill="#990000"/>
<rect x="750" y="192" width="12" height="12" fill="#990000"/>
<rect x="590" y="224" width="12" height="12" fill="#990000"/>
<rect x="750" y="224" width="12" height="12" fill="#990000"/>
<rect width="12" height="12" transform="matrix(-1 0 0 1 316 303)" fill="#990000"/>
<rect width="12" height="12" transform="matrix(-1 0 0 1 300 303)" fill="#990000"/>
<rect width="12" height="12" transform="matrix(-1 0 0 1 220 303)" fill="#990000"/>
<rect width="12" height="12" transform="matrix(-1 0 0 1 204 303)" fill="#990000"/>
<rect width="12" height="12" transform="matrix(-1 0 0 1 124 303)" fill="#990000"/>
<rect width="12" height="12" transform="matrix(-1 0 0 1 108 303)" fill="#990000"/>
<rect width="12" height="12" transform="matrix(-1 0 0 1 28 303)" fill="#990000"/>
<rect width="12" height="12" transform="matrix(-1 0 0 1 12 303)" fill="#990000"/>
<rect width="12" height="12" transform="matrix(-1 0 0 1 348 335)" fill="#AE0000"/>
<rect width="12" height="12" transform="matrix(-1 0 0 1 332 335)" fill="#990000"/>
<rect width="12" height="12" transform="matrix(-1 0 0 1 300 335)" fill="#990000"/>
<rect width="12" height="12" transform="matrix(-1 0 0 1 252 335)" fill="#990000"/>
<rect width="12" height="12" transform="matrix(-1 0 0 1 236 335)" fill="#990000"/>
<rect width="12" height="12" transform="matrix(-1 0 0 1 220 335)" fill="#990000"/>
<rect width="12" height="12" transform="matrix(-1 0 0 1 204 335)" fill="#990000"/>
<rect width="12" height="12" transform="matrix(-1 0 0 1 156 335)" fill="#990000"/>
<rect width="12" height="12" transform="matrix(-1 0 0 1 140 335)" fill="#990000"/>
<rect width="12" height="12" transform="matrix(-1 0 0 1 124 335)" fill="#AE0000"/>
<rect width="12" height="12" transform="matrix(-1 0 0 1 108 335)" fill="#990000"/>
<rect width="12" height="12" transform="matrix(-1 0 0 1 60 335)" fill="#990000"/>
<rect width="12" height="12" transform="matrix(-1 0 0 1 44 335)" fill="#990000"/>
<rect width="12" height="12" transform="matrix(-1 0 0 1 28 335)" fill="#990000"/>
<rect width="12" height="12" transform="matrix(-1 0 0 1 12 335)" fill="#990000"/>
<rect width="12" height="12" transform="matrix(-1 0 0 1 348 239)" fill="#AE0000"/>
<rect width="12" height="12" transform="matrix(-1 0 0 1 380 271)" fill="#AE0000"/>
<rect width="12" height="12" transform="matrix(-1 0 0 1 252 239)" fill="#AE0000"/>
<rect width="12" height="12" transform="matrix(-1 0 0 1 156 239)" fill="#AE0000"/>
<rect width="12" height="12" transform="matrix(-1 0 0 1 60 239)" fill="#AE0000"/>
<rect width="12" height="12" transform="matrix(-1 0 0 1 380 367)" fill="#990000"/>
<rect width="12" height="12" transform="matrix(-1 0 0 1 364 367)" fill="#990000"/>
<rect width="12" height="12" transform="matrix(-1 0 0 1 348 367)" fill="#990000"/>
<rect width="12" height="12" transform="matrix(-1 0 0 1 332 367)" fill="#990000"/>
<rect width="12" height="12" transform="matrix(-1 0 0 1 316 367)" fill="#990000"/>
<rect width="12" height="12" transform="matrix(-1 0 0 1 300 367)" fill="#990000"/>
<rect width="12" height="12" transform="matrix(-1 0 0 1 284 367)" fill="#990000"/>
<rect width="12" height="12" transform="matrix(-1 0 0 1 268 367)" fill="#990000"/>
<rect width="12" height="12" transform="matrix(-1 0 0 1 252 367)" fill="#990000"/>
<rect width="12" height="12" transform="matrix(-1 0 0 1 220 367)" fill="#990000"/>
<rect width="12" height="12" transform="matrix(-1 0 0 1 204 367)" fill="#990000"/>
<rect width="12" height="12" transform="matrix(-1 0 0 1 188 367)" fill="#990000"/>
<rect width="12" height="12" transform="matrix(-1 0 0 1 172 367)" fill="#990000"/>
<rect width="12" height="12" transform="matrix(-1 0 0 1 156 367)" fill="#990000"/>
<rect width="12" height="12" transform="matrix(-1 0 0 1 140 367)" fill="#990000"/>
<rect width="12" height="12" transform="matrix(-1 0 0 1 124 367)" fill="#990000"/>
<rect width="12" height="12" transform="matrix(-1 0 0 1 108 367)" fill="#990000"/>
<rect width="12" height="12" transform="matrix(-1 0 0 1 92 367)" fill="#990000"/>
<rect width="12" height="12" transform="matrix(-1 0 0 1 76 255)" fill="#AE0000"/>
<rect width="12" height="12" transform="matrix(-1 0 0 1 188 271)" fill="#AE0000"/>
<rect width="12" height="12" transform="matrix(-1 0 0 1 268 255)" fill="#AE0000"/>
<rect width="12" height="12" transform="matrix(-1 0 0 1 76 367)" fill="#990000"/>
<rect width="12" height="12" transform="matrix(-1 0 0 1 60 367)" fill="#990000"/>
<rect width="12" height="12" transform="matrix(-1 0 0 1 44 367)" fill="#990000"/>
<rect width="12" height="12" transform="matrix(-1 0 0 1 28 367)" fill="#990000"/>
<rect width="12" height="12" transform="matrix(-1 0 0 1 12 367)" fill="#990000"/>
<rect width="12" height="12" transform="matrix(-1 0 0 1 316 271)" fill="#AE0000"/>
<rect width="12" height="12" transform="matrix(-1 0 0 1 220 271)" fill="#AE0000"/>
<rect width="12" height="12" transform="matrix(-1 0 0 1 124 271)" fill="#AE0000"/>
<rect width="12" height="12" transform="matrix(-1 0 0 1 28 271)" fill="#AE0000"/>
<rect width="12" height="12" transform="matrix(-1 0 0 1 380 399)" fill="#990000"/>
<rect width="12" height="12" transform="matrix(-1 0 0 1 348 399)" fill="#990000"/>
<rect width="12" height="12" transform="matrix(-1 0 0 1 332 399)" fill="#990000"/>
<rect width="12" height="12" transform="matrix(-1 0 0 1 316 399)" fill="#990000"/>
<rect width="12" height="12" transform="matrix(-1 0 0 1 300 399)" fill="#990000"/>
<rect width="12" height="12" transform="matrix(-1 0 0 1 284 399)" fill="#990000"/>
<rect width="12" height="12" transform="matrix(-1 0 0 1 268 399)" fill="#990000"/>
<rect width="12" height="12" transform="matrix(-1 0 0 1 252 399)" fill="#990000"/>
<rect width="12" height="12" transform="matrix(-1 0 0 1 236 399)" fill="#990000"/>
<rect width="12" height="12" transform="matrix(-1 0 0 1 220 399)" fill="#990000"/>
<rect width="12" height="12" transform="matrix(-1 0 0 1 204 399)" fill="#990000"/>
<rect width="12" height="12" transform="matrix(-1 0 0 1 172 399)" fill="#990000"/>
<rect width="12" height="12" transform="matrix(-1 0 0 1 156 399)" fill="#990000"/>
<rect width="12" height="12" transform="matrix(-1 0 0 1 140 399)" fill="#990000"/>
<rect width="12" height="12" transform="matrix(-1 0 0 1 124 399)" fill="#990000"/>
<rect width="12" height="12" transform="matrix(-1 0 0 1 108 399)" fill="#990000"/>
<rect width="12" height="12" transform="matrix(-1 0 0 1 92 399)" fill="#990000"/>
<rect width="12" height="12" transform="matrix(-1 0 0 1 76 399)" fill="#990000"/>
<rect width="12" height="12" transform="matrix(-1 0 0 1 44 399)" fill="#990000"/>
<rect width="12" height="12" transform="matrix(-1 0 0 1 28 399)" fill="#990000"/>
<rect width="12" height="12" transform="matrix(-1 0 0 1 12 399)" fill="#990000"/>
<rect width="12" height="12" transform="matrix(-1 0 0 1 380 463)" fill="#AE0000"/>
<rect width="12" height="12" transform="matrix(-1 0 0 1 364 463)" fill="#AE0000"/>
<rect width="12" height="12" transform="matrix(-1 0 0 1 348 463)" fill="#AE0000"/>
<rect width="12" height="12" transform="matrix(-1 0 0 1 316 463)" fill="#AE0000"/>
<rect width="12" height="12" transform="matrix(-1 0 0 1 300 463)" fill="#AE0000"/>
<rect width="12" height="12" transform="matrix(-1 0 0 1 284 463)" fill="#AE0000"/>
<rect width="12" height="12" transform="matrix(-1 0 0 1 268 463)" fill="#AE0000"/>
<rect width="12" height="12" transform="matrix(-1 0 0 1 252 463)" fill="#AE0000"/>
<rect width="12" height="12" transform="matrix(-1 0 0 1 236 463)" fill="#AE0000"/>
<rect width="12" height="12" transform="matrix(-1 0 0 1 220 463)" fill="#AE0000"/>
<rect width="12" height="12" transform="matrix(-1 0 0 1 188 463)" fill="#AE0000"/>
<rect width="12" height="12" transform="matrix(-1 0 0 1 172 463)" fill="#AE0000"/>
<rect width="12" height="12" transform="matrix(-1 0 0 1 156 463)" fill="#AE0000"/>
<rect width="12" height="12" transform="matrix(-1 0 0 1 140 463)" fill="#AE0000"/>
<rect width="12" height="12" transform="matrix(-1 0 0 1 108 463)" fill="#AE0000"/>
<rect width="12" height="12" transform="matrix(-1 0 0 1 92 463)" fill="#AE0000"/>
<rect width="12" height="12" transform="matrix(-1 0 0 1 76 463)" fill="#AE0000"/>
<rect width="12" height="12" transform="matrix(-1 0 0 1 44 463)" fill="#AE0000"/>
<rect width="12" height="12" transform="matrix(-1 0 0 1 12 463)" fill="#AE0000"/>
<rect width="12" height="12" transform="matrix(-1 0 0 1 380 431)" fill="#AE0000"/>
<rect width="12" height="12" transform="matrix(-1 0 0 1 364 431)" fill="#990000"/>
<rect width="12" height="12" transform="matrix(-1 0 0 1 332 431)" fill="#990000"/>
<rect width="12" height="12" transform="matrix(-1 0 0 1 316 431)" fill="#AE0000"/>
<rect width="12" height="12" transform="matrix(-1 0 0 1 300 431)" fill="#990000"/>
<rect width="12" height="12" transform="matrix(-1 0 0 1 284 431)" fill="#990000"/>
<rect width="12" height="12" transform="matrix(-1 0 0 1 268 431)" fill="#AE0000"/>
<rect width="12" height="12" transform="matrix(-1 0 0 1 252 431)" fill="#990000"/>
<rect width="12" height="12" transform="matrix(-1 0 0 1 236 431)" fill="#990000"/>
<rect width="12" height="12" transform="matrix(-1 0 0 1 220 431)" fill="#AE0000"/>
<rect width="12" height="12" transform="matrix(-1 0 0 1 204 431)" fill="#990000"/>
<rect width="12" height="12" transform="matrix(-1 0 0 1 188 431)" fill="#990000"/>
<rect width="12" height="12" transform="matrix(-1 0 0 1 172 431)" fill="#990000"/>
<rect width="12" height="12" transform="matrix(-1 0 0 1 156 431)" fill="#AE0000"/>
<rect width="12" height="12" transform="matrix(-1 0 0 1 140 431)" fill="#990000"/>
<rect width="12" height="12" transform="matrix(-1 0 0 1 124 431)" fill="#990000"/>
<rect width="12" height="12" transform="matrix(-1 0 0 1 108 431)" fill="#990000"/>
<rect width="12" height="12" transform="matrix(-1 0 0 1 92 431)" fill="#990000"/>
<rect width="12" height="12" transform="matrix(-1 0 0 1 76 431)" fill="#AE0000"/>
<rect width="12" height="12" transform="matrix(-1 0 0 1 44 431)" fill="#990000"/>
<rect width="12" height="12" transform="matrix(-1 0 0 1 28 431)" fill="#AE0000"/>
<rect width="12" height="12" transform="matrix(-1 0 0 1 12 431)" fill="#990000"/>
<rect width="12" height="12" transform="matrix(-1 0 0 1 300 287)" fill="#990000"/>
<rect width="12" height="12" transform="matrix(-1 0 0 1 204 287)" fill="#990000"/>
<rect width="12" height="12" transform="matrix(-1 0 0 1 108 287)" fill="#990000"/>
<rect width="12" height="12" transform="matrix(-1 0 0 1 12 287)" fill="#990000"/>
<rect width="12" height="12" transform="matrix(-1 0 0 1 332 319)" fill="#990000"/>
<rect width="12" height="12" transform="matrix(-1 0 0 1 316 319)" fill="#990000"/>
<rect width="12" height="12" transform="matrix(-1 0 0 1 300 319)" fill="#990000"/>
<rect width="12" height="12" transform="matrix(-1 0 0 1 236 319)" fill="#990000"/>
<rect width="12" height="12" transform="matrix(-1 0 0 1 220 319)" fill="#990000"/>
<rect width="12" height="12" transform="matrix(-1 0 0 1 204 319)" fill="#990000"/>
<rect width="12" height="12" transform="matrix(-1 0 0 1 140 319)" fill="#990000"/>
<rect width="12" height="12" transform="matrix(-1 0 0 1 108 319)" fill="#990000"/>
<rect width="12" height="12" transform="matrix(-1 0 0 1 44 319)" fill="#AE0000"/>
<rect width="12" height="12" transform="matrix(-1 0 0 1 28 319)" fill="#990000"/>
<rect width="12" height="12" transform="matrix(-1 0 0 1 12 319)" fill="#990000"/>
<rect width="12" height="12" transform="matrix(-1 0 0 1 364 255)" fill="#AE0000"/>
<rect width="12" height="12" transform="matrix(-1 0 0 1 172 255)" fill="#AE0000"/>
<rect width="12" height="12" transform="matrix(-1 0 0 1 364 351)" fill="#990000"/>
<rect width="12" height="12" transform="matrix(-1 0 0 1 348 351)" fill="#990000"/>
<rect width="12" height="12" transform="matrix(-1 0 0 1 332 351)" fill="#990000"/>
<rect width="12" height="12" transform="matrix(-1 0 0 1 316 351)" fill="#990000"/>
<rect width="12" height="12" transform="matrix(-1 0 0 1 300 351)" fill="#990000"/>
<rect width="12" height="12" transform="matrix(-1 0 0 1 268 351)" fill="#990000"/>
<rect width="12" height="12" transform="matrix(-1 0 0 1 252 351)" fill="#990000"/>
<rect width="12" height="12" transform="matrix(-1 0 0 1 236 351)" fill="#990000"/>
<rect width="12" height="12" transform="matrix(-1 0 0 1 220 351)" fill="#AE0000"/>
<rect width="12" height="12" transform="matrix(-1 0 0 1 204 351)" fill="#990000"/>
<rect width="12" height="12" transform="matrix(-1 0 0 1 172 351)" fill="#990000"/>
<rect width="12" height="12" transform="matrix(-1 0 0 1 156 351)" fill="#990000"/>
<rect width="12" height="12" transform="matrix(-1 0 0 1 140 351)" fill="#990000"/>
<rect width="12" height="12" transform="matrix(-1 0 0 1 124 351)" fill="#990000"/>
<rect width="12" height="12" transform="matrix(-1 0 0 1 108 351)" fill="#990000"/>
<rect width="12" height="12" transform="matrix(-1 0 0 1 76 351)" fill="#990000"/>
<rect width="12" height="12" transform="matrix(-1 0 0 1 60 351)" fill="#990000"/>
<rect width="12" height="12" transform="matrix(-1 0 0 1 44 351)" fill="#990000"/>
<rect width="12" height="12" transform="matrix(-1 0 0 1 28 351)" fill="#990000"/>
<rect width="12" height="12" transform="matrix(-1 0 0 1 12 351)" fill="#AE0000"/>
<rect width="12" height="12" transform="matrix(-1 0 0 1 332 255)" fill="#AE0000"/>
<rect width="12" height="12" transform="matrix(-1 0 0 1 236 255)" fill="#AE0000"/>
<rect width="12" height="12" transform="matrix(-1 0 0 1 140 255)" fill="#AE0000"/>
<rect width="12" height="12" transform="matrix(-1 0 0 1 44 255)" fill="#AE0000"/>
<rect width="12" height="12" transform="matrix(-1 0 0 1 380 383)" fill="#990000"/>
<rect width="12" height="12" transform="matrix(-1 0 0 1 364 383)" fill="#990000"/>
<rect width="12" height="12" transform="matrix(-1 0 0 1 348 383)" fill="#990000"/>
<rect width="12" height="12" transform="matrix(-1 0 0 1 332 383)" fill="#990000"/>
<rect width="12" height="12" transform="matrix(-1 0 0 1 316 383)" fill="#990000"/>
<rect width="12" height="12" transform="matrix(-1 0 0 1 300 383)" fill="#990000"/>
<rect width="12" height="12" transform="matrix(-1 0 0 1 284 383)" fill="#990000"/>
<rect width="12" height="12" transform="matrix(-1 0 0 1 268 383)" fill="#990000"/>
<rect width="12" height="12" transform="matrix(-1 0 0 1 252 383)" fill="#AE0000"/>
<rect width="12" height="12" transform="matrix(-1 0 0 1 236 383)" fill="#990000"/>
<rect width="12" height="12" transform="matrix(-1 0 0 1 220 383)" fill="#990000"/>
<rect width="12" height="12" transform="matrix(-1 0 0 1 204 383)" fill="#990000"/>
<rect width="12" height="12" transform="matrix(-1 0 0 1 188 383)" fill="#990000"/>
<rect width="12" height="12" transform="matrix(-1 0 0 1 172 383)" fill="#990000"/>
<rect width="12" height="12" transform="matrix(-1 0 0 1 156 383)" fill="#990000"/>
<rect width="12" height="12" transform="matrix(-1 0 0 1 140 383)" fill="#990000"/>
<rect width="12" height="12" transform="matrix(-1 0 0 1 124 383)" fill="#990000"/>
<rect width="12" height="12" transform="matrix(-1 0 0 1 108 383)" fill="#990000"/>
<rect width="12" height="12" transform="matrix(-1 0 0 1 92 271)" fill="#AE0000"/>
<rect width="12" height="12" transform="matrix(-1 0 0 1 284 271)" fill="#AE0000"/>
<rect width="12" height="12" transform="matrix(-1 0 0 1 92 383)" fill="#990000"/>
<rect width="12" height="12" transform="matrix(-1 0 0 1 76 383)" fill="#990000"/>
<rect width="12" height="12" transform="matrix(-1 0 0 1 60 383)" fill="#990000"/>
<rect width="12" height="12" transform="matrix(-1 0 0 1 44 383)" fill="#990000"/>
<rect width="12" height="12" transform="matrix(-1 0 0 1 12 383)" fill="#990000"/>
<rect width="12" height="12" transform="matrix(-1 0 0 1 380 415)" fill="#990000"/>
<rect width="12" height="12" transform="matrix(-1 0 0 1 364 415)" fill="#990000"/>
<rect width="12" height="12" transform="matrix(-1 0 0 1 348 415)" fill="#990000"/>
<rect width="12" height="12" transform="matrix(-1 0 0 1 332 415)" fill="#AE0000"/>
<rect width="12" height="12" transform="matrix(-1 0 0 1 316 415)" fill="#990000"/>
<rect width="12" height="12" transform="matrix(-1 0 0 1 300 415)" fill="#990000"/>
<rect width="12" height="12" transform="matrix(-1 0 0 1 284 415)" fill="#990000"/>
<rect width="12" height="12" transform="matrix(-1 0 0 1 268 415)" fill="#990000"/>
<rect width="12" height="12" transform="matrix(-1 0 0 1 252 415)" fill="#AE0000"/>
<rect width="12" height="12" transform="matrix(-1 0 0 1 236 415)" fill="#990000"/>
<rect width="12" height="12" transform="matrix(-1 0 0 1 220 415)" fill="#990000"/>
<rect width="12" height="12" transform="matrix(-1 0 0 1 204 415)" fill="#990000"/>
<rect width="12" height="12" transform="matrix(-1 0 0 1 188 415)" fill="#990000"/>
<rect width="12" height="12" transform="matrix(-1 0 0 1 172 415)" fill="#AE0000"/>
<rect width="12" height="12" transform="matrix(-1 0 0 1 156 415)" fill="#990000"/>
<rect width="12" height="12" transform="matrix(-1 0 0 1 140 415)" fill="#990000"/>
<rect width="12" height="12" transform="matrix(-1 0 0 1 124 415)" fill="#990000"/>
<rect width="12" height="12" transform="matrix(-1 0 0 1 108 415)" fill="#990000"/>
<rect width="12" height="12" transform="matrix(-1 0 0 1 92 415)" fill="#990000"/>
<rect width="12" height="12" transform="matrix(-1 0 0 1 76 415)" fill="#990000"/>
<rect width="12" height="12" transform="matrix(-1 0 0 1 60 415)" fill="#990000"/>
<rect width="12" height="12" transform="matrix(-1 0 0 1 44 415)" fill="#990000"/>
<rect width="12" height="12" transform="matrix(-1 0 0 1 28 415)" fill="#AE0000"/>
<rect width="12" height="12" transform="matrix(-1 0 0 1 12 415)" fill="#990000"/>
<rect width="12" height="12" transform="matrix(-1 0 0 1 380 447)" fill="#AE0000"/>
<rect width="12" height="12" transform="matrix(-1 0 0 1 364 447)" fill="#AE0000"/>
<rect width="12" height="12" transform="matrix(-1 0 0 1 348 447)" fill="#AE0000"/>
<rect width="12" height="12" transform="matrix(-1 0 0 1 316 447)" fill="#AE0000"/>
<rect width="12" height="12" transform="matrix(-1 0 0 1 300 447)" fill="#AE0000"/>
<rect width="12" height="12" transform="matrix(-1 0 0 1 284 447)" fill="#AE0000"/>
<rect width="12" height="12" transform="matrix(-1 0 0 1 268 447)" fill="#AE0000"/>
<rect width="12" height="12" transform="matrix(-1 0 0 1 252 447)" fill="#AE0000"/>
<rect width="12" height="12" transform="matrix(-1 0 0 1 236 447)" fill="#AE0000"/>
<rect width="12" height="12" transform="matrix(-1 0 0 1 220 447)" fill="#AE0000"/>
<rect width="12" height="12" transform="matrix(-1 0 0 1 188 447)" fill="#AE0000"/>
<rect width="12" height="12" transform="matrix(-1 0 0 1 172 447)" fill="#AE0000"/>
<rect width="12" height="12" transform="matrix(-1 0 0 1 156 447)" fill="#AE0000"/>
<rect width="12" height="12" transform="matrix(-1 0 0 1 124 447)" fill="#AE0000"/>
<rect width="12" height="12" transform="matrix(-1 0 0 1 108 447)" fill="#AE0000"/>
<rect width="12" height="12" transform="matrix(-1 0 0 1 92 447)" fill="#AE0000"/>
<rect width="12" height="12" transform="matrix(-1 0 0 1 76 447)" fill="#AE0000"/>
<rect width="12" height="12" transform="matrix(-1 0 0 1 44 447)" fill="#AE0000"/>
<rect width="12" height="12" transform="matrix(-1 0 0 1 28 447)" fill="#AE0000"/>
<rect width="12" height="12" transform="matrix(-1 0 0 1 12 447)" fill="#AE0000"/>
<rect width="12" height="12" transform="matrix(-1 0 0 1 460 367)" fill="#990000"/>
<rect width="12" height="12" transform="matrix(-1 0 0 1 460 207)" fill="#990000"/>
<rect width="12" height="12" transform="matrix(-1 0 0 1 525 144)" fill="#990000"/>
<rect width="12" height="12" transform="matrix(-1 0 0 1 476 367)" fill="#990000"/>
<rect width="12" height="12" transform="matrix(-1 0 0 1 541 288)" fill="#AE0000"/>
<rect width="12" height="12" transform="matrix(-1 0 0 1 476 207)" fill="#990000"/>
<rect width="12" height="12" transform="matrix(-1 0 0 1 444 367)" fill="#990000"/>
<rect width="12" height="12" transform="matrix(-1 0 0 1 444 207)" fill="#990000"/>
<rect width="12" height="12" transform="matrix(-1 0 0 1 509 144)" fill="#990000"/>
<rect width="12" height="12" transform="matrix(-1 0 0 1 428 207)" fill="#990000"/>
<rect width="12" height="12" transform="matrix(-1 0 0 1 493 144)" fill="#990000"/>
<rect width="12" height="12" transform="matrix(-1 0 0 1 412 367)" fill="#990000"/>
<rect width="12" height="12" transform="matrix(-1 0 0 1 412 207)" fill="#990000"/>
<rect width="12" height="12" transform="matrix(-1 0 0 1 477 144)" fill="#990000"/>
<rect width="12" height="12" transform="matrix(-1 0 0 1 396 367)" fill="#990000"/>
<rect width="12" height="12" transform="matrix(-1 0 0 1 396 207)" fill="#990000"/>
<rect width="12" height="12" transform="matrix(-1 0 0 1 460 399)" fill="#990000"/>
<rect width="12" height="12" transform="matrix(-1 0 0 1 460 239)" fill="#990000"/>
<rect width="12" height="12" transform="matrix(-1 0 0 1 476 399)" fill="#990000"/>
<rect width="12" height="12" transform="matrix(-1 0 0 1 541 320)" fill="#AE0000"/>
<rect width="12" height="12" transform="matrix(-1 0 0 1 476 239)" fill="#990000"/>
<rect width="12" height="12" transform="matrix(-1 0 0 1 541 160)" fill="#990000"/>
<rect width="12" height="12" transform="matrix(-1 0 0 1 444 399)" fill="#990000"/>
<rect width="12" height="12" transform="matrix(-1 0 0 1 428 399)" fill="#990000"/>
<rect width="12" height="12" transform="matrix(-1 0 0 1 412 399)" fill="#990000"/>
<rect width="12" height="12" transform="matrix(-1 0 0 1 412 239)" fill="#990000"/>
<rect width="12" height="12" transform="matrix(-1 0 0 1 396 399)" fill="#990000"/>
<rect width="12" height="12" transform="matrix(-1 0 0 1 396 239)" fill="#990000"/>
<rect width="12" height="12" transform="matrix(-1 0 0 1 460 303)" fill="#990000"/>
<rect width="12" height="12" transform="matrix(-1 0 0 1 476 463)" fill="#AE0000"/>
<rect width="12" height="12" transform="matrix(-1 0 0 1 541 384)" fill="#AE0000"/>
<rect width="12" height="12" transform="matrix(-1 0 0 1 541 464)" fill="#990000"/>
<rect width="12" height="12" transform="matrix(-1 0 0 1 476 303)" fill="#990000"/>
<rect width="12" height="12" transform="matrix(-1 0 0 1 541 224)" fill="#990000"/>
<rect width="12" height="12" transform="matrix(-1 0 0 1 444 463)" fill="#AE0000"/>
<rect width="12" height="12" transform="matrix(-1 0 0 1 444 303)" fill="#990000"/>
<rect width="12" height="12" transform="matrix(-1 0 0 1 428 463)" fill="#AE0000"/>
<rect width="12" height="12" transform="matrix(-1 0 0 1 428 303)" fill="#990000"/>
<rect width="12" height="12" transform="matrix(-1 0 0 1 412 463)" fill="#AE0000"/>
<rect width="12" height="12" transform="matrix(-1 0 0 1 412 303)" fill="#990000"/>
<rect width="12" height="12" transform="matrix(-1 0 0 1 396 303)" fill="#990000"/>
<rect width="12" height="12" transform="matrix(-1 0 0 1 460 271)" fill="#990000"/>
<rect width="12" height="12" transform="matrix(-1 0 0 1 476 431)" fill="#AE0000"/>
<rect width="12" height="12" transform="matrix(-1 0 0 1 541 352)" fill="#AE0000"/>
<rect width="12" height="12" transform="matrix(-1 0 0 1 476 271)" fill="#990000"/>
<rect width="12" height="12" transform="matrix(-1 0 0 1 541 192)" fill="#990000"/>
<rect width="12" height="12" transform="matrix(-1 0 0 1 444 431)" fill="#990000"/>
<rect width="12" height="12" transform="matrix(-1 0 0 1 444 271)" fill="#990000"/>
<rect width="12" height="12" transform="matrix(-1 0 0 1 428 431)" fill="#990000"/>
<rect width="12" height="12" transform="matrix(-1 0 0 1 428 271)" fill="#AE0000"/>
<rect width="12" height="12" transform="matrix(-1 0 0 1 412 431)" fill="#AE0000"/>
<rect width="12" height="12" transform="matrix(-1 0 0 1 412 271)" fill="#990000"/>
<rect width="12" height="12" transform="matrix(-1 0 0 1 396 431)" fill="#990000"/>
<rect width="12" height="12" transform="matrix(-1 0 0 1 396 271)" fill="#990000"/>
<rect width="12" height="12" transform="matrix(-1 0 0 1 460 335)" fill="#990000"/>
<rect width="12" height="12" transform="matrix(-1 0 0 1 476 335)" fill="#990000"/>
<rect width="12" height="12" transform="matrix(-1 0 0 1 541 256)" fill="#990000"/>
<rect width="12" height="12" transform="matrix(-1 0 0 1 444 335)" fill="#990000"/>
<rect width="12" height="12" transform="matrix(-1 0 0 1 428 335)" fill="#990000"/>
<rect width="12" height="12" transform="matrix(-1 0 0 1 412 335)" fill="#990000"/>
<rect width="12" height="12" transform="matrix(-1 0 0 1 396 335)" fill="#990000"/>
<rect width="12" height="12" transform="matrix(-1 0 0 1 460 383)" fill="#990000"/>
<rect width="12" height="12" transform="matrix(-1 0 0 1 460 223)" fill="#990000"/>
<rect width="12" height="12" transform="matrix(-1 0 0 1 476 383)" fill="#990000"/>
<rect width="12" height="12" transform="matrix(-1 0 0 1 541 304)" fill="#AE0000"/>
<rect width="12" height="12" transform="matrix(-1 0 0 1 476 223)" fill="#990000"/>
<rect width="12" height="12" transform="matrix(-1 0 0 1 444 383)" fill="#990000"/>
<rect width="12" height="12" transform="matrix(-1 0 0 1 444 223)" fill="#990000"/>
<rect width="12" height="12" transform="matrix(-1 0 0 1 428 383)" fill="#990000"/>
<rect width="12" height="12" transform="matrix(-1 0 0 1 428 223)" fill="#AE0000"/>
<rect width="12" height="12" transform="matrix(-1 0 0 1 412 383)" fill="#990000"/>
<rect width="12" height="12" transform="matrix(-1 0 0 1 412 223)" fill="#990000"/>
<rect width="12" height="12" transform="matrix(-1 0 0 1 525 160)" fill="#990000"/>
<rect width="12" height="12" transform="matrix(-1 0 0 1 493 192)" fill="#990000"/>
<rect width="12" height="12" transform="matrix(-1 0 0 1 541 144)" fill="#AE0000"/>
<rect width="12" height="12" transform="matrix(-1 0 0 1 509 176)" fill="#990000"/>
<rect width="12" height="12" transform="matrix(-1 0 0 1 444 160)" fill="#990000"/>
<rect width="12" height="12" transform="matrix(-1 0 0 1 412 192)" fill="#990000"/>
<rect width="12" height="12" transform="matrix(-1 0 0 1 460 144)" fill="#AE0000"/>
<rect width="12" height="12" transform="matrix(-1 0 0 1 428 176)" fill="#990000"/>
<rect width="12" height="12" transform="matrix(-1 0 0 1 396 383)" fill="#990000"/>
<rect width="12" height="12" transform="matrix(-1 0 0 1 396 223)" fill="#990000"/>
<rect width="12" height="12" transform="matrix(-1 0 0 1 460 255)" fill="#990000"/>
<rect width="12" height="12" transform="matrix(-1 0 0 1 476 415)" fill="#990000"/>
<rect width="12" height="12" transform="matrix(-1 0 0 1 541 336)" fill="#AE0000"/>
<rect width="12" height="12" transform="matrix(-1 0 0 1 541 416)" fill="#990000"/>
<rect width="12" height="12" transform="matrix(-1 0 0 1 476 255)" fill="#990000"/>
<rect width="12" height="12" transform="matrix(-1 0 0 1 541 176)" fill="#990000"/>
<rect width="12" height="12" transform="matrix(-1 0 0 1 444 415)" fill="#990000"/>
<rect width="12" height="12" transform="matrix(-1 0 0 1 428 415)" fill="#990000"/>
<rect width="12" height="12" transform="matrix(-1 0 0 1 412 415)" fill="#990000"/>
<rect width="12" height="12" transform="matrix(-1 0 0 1 412 255)" fill="#990000"/>
<rect width="12" height="12" transform="matrix(-1 0 0 1 396 415)" fill="#990000"/>
<rect width="12" height="12" transform="matrix(-1 0 0 1 396 255)" fill="#990000"/>
<rect width="12" height="12" transform="matrix(-1 0 0 1 444 319)" fill="#990000"/>
<rect width="12" height="12" transform="matrix(-1 0 0 1 476 319)" fill="#990000"/>
<rect width="12" height="12" transform="matrix(-1 0 0 1 541 240)" fill="#990000"/>
<rect width="12" height="12" transform="matrix(-1 0 0 1 428 319)" fill="#AE0000"/>
<rect width="12" height="12" transform="matrix(-1 0 0 1 412 319)" fill="#990000"/>
<rect width="12" height="12" transform="matrix(-1 0 0 1 396 319)" fill="#990000"/>
<rect width="12" height="12" transform="matrix(-1 0 0 1 460 287)" fill="#AE0000"/>
<rect width="12" height="12" transform="matrix(-1 0 0 1 476 447)" fill="#AE0000"/>
<rect width="12" height="12" transform="matrix(-1 0 0 1 541 368)" fill="#AE0000"/>
<rect width="12" height="12" transform="matrix(-1 0 0 1 476 287)" fill="#990000"/>
<rect width="12" height="12" transform="matrix(-1 0 0 1 541 208)" fill="#AE0000"/>
<rect width="12" height="12" transform="matrix(-1 0 0 1 444 447)" fill="#AE0000"/>
<rect width="12" height="12" transform="matrix(-1 0 0 1 444 287)" fill="#990000"/>
<rect width="12" height="12" transform="matrix(-1 0 0 1 428 287)" fill="#990000"/>
<rect width="12" height="12" transform="matrix(-1 0 0 1 412 447)" fill="#AE0000"/>
<rect width="12" height="12" transform="matrix(-1 0 0 1 412 287)" fill="#990000"/>
<rect width="12" height="12" transform="matrix(-1 0 0 1 396 447)" fill="#AE0000"/>
<rect width="12" height="12" transform="matrix(-1 0 0 1 396 287)" fill="#990000"/>
<rect width="12" height="12" transform="matrix(-1 0 0 1 460 351)" fill="#990000"/>
<rect width="12" height="12" transform="matrix(-1 0 0 1 476 351)" fill="#990000"/>
<rect width="12" height="12" transform="matrix(-1 0 0 1 541 272)" fill="#AE0000"/>
<rect width="12" height="12" transform="matrix(-1 0 0 1 444 351)" fill="#990000"/>
<rect width="12" height="12" transform="matrix(-1 0 0 1 428 351)" fill="#990000"/>
<rect width="12" height="12" transform="matrix(-1 0 0 1 412 351)" fill="#990000"/>
<rect width="12" height="12" transform="matrix(-1 0 0 1 396 351)" fill="#990000"/>
</svg>
