<svg xmlns="http://www.w3.org/2000/svg" viewBox="0 0 62 62"><defs><style>.cls-1,.cls-3{fill:#fff;}.cls-1,.cls-2{stroke:#c00;}.cls-1{stroke-miterlimit:10;stroke-width:4px;}.cls-2{fill:none;stroke-linejoin:round;stroke-width:1.3px;}.cls-4{fill:#c00;}</style></defs><title>Forsyninger-icon</title><g id="Layer_2" data-name="Layer 2"><g id="Forsyninger"><circle class="cls-1" cx="31" cy="31" r="29"/><path class="cls-2" d="M42.51,21.33H34.42c-12.49,0-11.53,11-11.53,11h3.8c.5-5.52,5.44-6.44,7.45-6.44h8.37Z"/><rect class="cls-2" x="33.3" y="17.65" width="2.76" height="3.68"/><rect class="cls-2" x="30.54" y="14.89" width="8.29" height="2.76"/><path class="cls-2" d="M27.32,38.83a2.3,2.3,0,0,1-4.6,0c0-1.27,2.3-4.6,2.3-4.6S27.32,37.55,27.32,38.83Z"/><path class="cls-3" d="M38.5,45.69c-.57,0-.85-.15-1.42-.78a1.63,1.63,0,0,0-2.74,0c-.57.63-.85.78-1.42.78s-.85-.15-1.42-.78a1.63,1.63,0,0,0-2.74,0c-.57.63-.85.78-1.42.78s-.85-.15-1.42-.78a1.63,1.63,0,0,0-2.74,0c-.57.63-.85.78-1.42.78s-.85-.15-1.42-.78a1.63,1.63,0,0,0-2.74,0c-.57.63-.85.78-1.42.78,0,0-.06,0-.06-.11s0-.11.06-.11a1.68,1.68,0,0,0,1.37-.75c.57-.63.85-.78,1.42-.78s.85.15,1.42.78a1.63,1.63,0,0,0,2.74,0c.57-.63.85-.78,1.42-.78s.85.15,1.42.78a1.63,1.63,0,0,0,2.74,0c.57-.63.85-.78,1.42-.78s.85.15,1.42.78a1.63,1.63,0,0,0,2.74,0c.57-.63.85-.78,1.42-.78s.85.15,1.42.78a1.69,1.69,0,0,0,1.37.75s.06,0,.06.11S38.51,45.69,38.5,45.69Z"/><path class="cls-4" d="M35.7,43.43a2.16,2.16,0,0,0-1.79.95c-.41.45-.6.59-1,.59s-.59-.13-1-.59a2.17,2.17,0,0,0-3.58,0c-.41.45-.6.59-1,.59s-.59-.13-1-.59a2.17,2.17,0,0,0-3.58,0c-.41.45-.6.59-1,.59s-.59-.13-1-.59a2.17,2.17,0,0,0-3.58,0c-.41.45-.6.59-1,.59a.62.62,0,0,0,0,1.23,2.16,2.16,0,0,0,1.79-.95c.41-.45.6-.59,1-.59s.59.13,1,.59a2.17,2.17,0,0,0,3.58,0c.42-.45.6-.59,1-.59s.59.13,1,.59a2.17,2.17,0,0,0,3.58,0c.42-.45.6-.59,1-.59s.59.13,1,.59a2.17,2.17,0,0,0,3.58,0c.41-.45.6-.59,1-.59s.59.13,1,.59a2.16,2.16,0,0,0,1.79.95.62.62,0,0,0,0-1.23c-.41,0-.59-.13-1-.59a2.16,2.16,0,0,0-1.79-.95Z"/></g></g></svg>