<svg xmlns="http://www.w3.org/2000/svg" viewBox="0 0 4703 216.38"><defs><style>.cls-1{fill:none;stroke:#fff;stroke-miterlimit:10;stroke-width:2.5px;}</style></defs><title>Left-line</title><g id="Layer_2" data-name="Layer 2"><g id="Line_left" data-name="Line left"><path class="cls-1" d="M1423,195.14c13.09,0,13.09,16,26.19,16s13.09-16,26.18-16,13.09,16,26.19,16,13.09-16,26.18-16,13.09,16,26.19,16,13.09-16,26.18-16,13.09,16,26.18,16,13.09-16,26.19-16,13.09,16,26.18,16,13.09-16,26.19-16,13.09,16,26.19,16,13.09-16,26.19-16,13.09,16,26.19,16,13.09-16,26.19-16,13.09,16,26.19,16,13.09-16,26.19-16,13.09,16,26.19,16,13.09-16,26.19-16,13.09,16,26.19,16,13.09-16,26.19-16,13.09,16,26.19,16,13.09-16,26.19-16,13.09,16,26.19,16,13.09-16,26.18-16,13.09,16,26.19,16,13.09-16,26.19-16,13.1,16,26.19,16,13.1-16,26.19-16,13.1,16,26.19,16,13.1-16,26.19-16,13.1,16,26.2,16,13.1-16,26.2-16"/><line class="cls-1" x1="1423" y1="195.13" y2="195.13"/><path class="cls-1" d="M3068,126.76H2282.43A11.43,11.43,0,0,0,2271,138.19V183a12,12,0,0,1-12,12"/><path class="cls-1" d="M3068,126.76h457.16c138.5,0,105,32.64,221,36.87h56A83.56,83.56,0,0,1,3830,168.4c36.12,12.76,134.88,46.73,162.5,46.73,34,0,66.48-1.9,94.44-21.3L4316.48,34.49A186.2,186.2,0,0,1,4422.66,1.25H4703"/></g></g></svg>