<?xml version="1.0" encoding="utf-8"?>
<!-- Generator: Adobe Illustrator 22.1.0, SVG Export Plug-In . SVG Version: 6.00 Build 0)  -->
<svg version="1.1" id="Layer_1" xmlns="http://www.w3.org/2000/svg" xmlns:xlink="http://www.w3.org/1999/xlink" x="0px" y="0px"
	 viewBox="0 0 62 62" style="enable-background:new 0 0 62 62;" xml:space="preserve">
<style type="text/css">
	.st0{fill:#FFFFFF;stroke:#CC0000;stroke-width:4;stroke-miterlimit:10;}
	.st1{fill:#CC0000;}
</style>
<title>Havnen-icon</title>
<circle class="st0" cx="31" cy="31" r="29"/>
<g>
	<path class="st1" d="M48.5,38.6V27.4c0-0.2-0.1-0.5-0.3-0.6l-4.6-3.3c-0.3-0.2-0.6-0.2-0.9,0l-4.5,3.3c-0.2,0.1-0.3,0.4-0.3,0.6
		v0.4h-7.5v-0.4c0-0.1,0-0.2,0-0.3l-3.2-8.7v-2.3c0-0.4-0.3-0.8-0.8-0.8s-0.8,0.3-0.8,0.8v2.3l-3.2,8.7c0,0.1,0,0.2,0,0.3v2.3
		l-3.4-2.4c-0.3-0.2-0.6-0.2-0.9,0l-4.5,3.3c-0.2,0.1-0.3,0.4-0.3,0.6v7.4h-2v1.5h39.3v-1.5H48.5z M34.1,35.8
		c-0.4,0-0.8,0.3-0.8,0.8v2.1h-3v-5.3h7.5v5.3h-3v-2.1C34.9,36.1,34.5,35.8,34.1,35.8z M18.5,35.7c-0.4,0-0.8,0.3-0.8,0.8v2.1h-3
		v-5.4h7.6v5.4h-3.1v-2.1C19.2,36.1,18.9,35.7,18.5,35.7z M23.8,29.3h5v9.3h-1.8v-2.1c0-0.4-0.3-0.8-0.8-0.8s-0.8,0.3-0.8,0.8v2.1
		h-1.7V29.3z M43.3,35.8c-0.4,0-0.8,0.3-0.8,0.8v2.1h-3.1v-9.3H47v9.3h-3v-2.1C44,36.1,43.7,35.8,43.3,35.8z M39.4,27.8l3.8-2.7
		l3.8,2.7v0.1L39.4,27.8L39.4,27.8z M37.9,29.3v2.5h-7.5v-2.5H37.9z M26.3,20.7l2.5,6.8v0.3h-5v-0.3L26.3,20.7z M18.5,28.8l3.8,2.7
		v0.1h-7.6v-0.1L18.5,28.8z"/>
	<path class="st1" d="M45,33.9c0.4,0,0.8-0.3,0.8-0.8v-1.5c0-0.4-0.3-0.8-0.8-0.8s-0.8,0.3-0.8,0.8v1.5C44.2,33.6,44.6,33.9,45,33.9
		z"/>
	<path class="st1" d="M41.5,30.9c-0.4,0-0.8,0.3-0.8,0.8v1.5c0,0.4,0.3,0.8,0.8,0.8s0.8-0.3,0.8-0.8v-1.5
		C42.3,31.2,41.9,30.9,41.5,30.9z"/>
</g>
</svg>
