<svg xmlns="http://www.w3.org/2000/svg" viewBox="0 0 62 62"><defs><style>.cls-1{fill:#fff;stroke:#c00;stroke-miterlimit:10;stroke-width:4px;}.cls-2{fill:#c00;}</style></defs><title>Villa-icon</title><g id="Layer_2" data-name="Layer 2"><g id="Villakvarter"><circle class="cls-1" cx="31" cy="31" r="29"/><path class="cls-2" d="M15.64,40.3a.76.76,0,0,0,0,1.51H47.2a.76.76,0,0,0,0-1.51H45.49V29H47.2a.76.76,0,0,0,.69-1.07L42,15.1a.76.76,0,0,0-.69-.44H21.56a.76.76,0,0,0-.69.44L15,27.92A.76.76,0,0,0,15.64,29h1.71V40.3ZM44,40.3H41.55V32.18a.76.76,0,0,0-.76-.76H35.37a.76.76,0,0,0-.76.76V40.3H32.18V32.18a.76.76,0,0,0-.76-.76H22a.76.76,0,0,0-.76.76V40.3H18.86V29H44ZM40,40.3H36.12V32.94H40Zm-9.37,0H22.81V38.86h7.86Zm0-3H22.81V35.9h7.86Zm0-3H22.81V32.94h7.86ZM46,27.48H41.55V24a3.47,3.47,0,1,0-6.94,0v3.43H28.23V24a3.47,3.47,0,1,0-6.94,0v3.43H16.82l.06-.13L22,16.17H40.8l0,.05Zm-6,0H36.12V24A2,2,0,1,1,40,24Zm-13.32,0H22.81V24a2,2,0,1,1,3.91,0Z"/></g></g></svg>