<svg xmlns="http://www.w3.org/2000/svg" viewBox="0 0 62 62"><defs><style>.cls-1{fill:#fff;stroke:#c00;stroke-miterlimit:10;stroke-width:4px;}.cls-2{fill:#c00;}</style></defs><title>Broer, jernbaner, veje-icon</title><g id="Layer_2" data-name="Layer 2"><g id="Broer_jernbaner_veje" data-name="Broer, jernbaner, veje"><circle class="cls-1" cx="31" cy="31" r="29"/><path class="cls-2" d="M42,39.94c.53,0,.77.16,1.32.7a2.94,2.94,0,0,0,2.36,1.14.74.74,0,1,0,0-1.47c-.53,0-.77-.16-1.32-.7a3,3,0,0,0-4.72,0c-.55.55-.79.7-1.32.7s-.77-.16-1.32-.7a3,3,0,0,0-4.72,0c-.55.55-.79.7-1.32.7s-.77-.16-1.32-.7a3,3,0,0,0-4.72,0c-.55.55-.79.7-1.32.7s-.77-.16-1.32-.7a3,3,0,0,0-4.72,0c-.55.55-.79.7-1.32.7a.74.74,0,1,0,0,1.47,2.94,2.94,0,0,0,2.36-1.14c.55-.55.79-.7,1.32-.7s.77.16,1.32.7a3,3,0,0,0,4.72,0c.55-.55.79-.7,1.32-.7s.77.16,1.32.7a3,3,0,0,0,4.72,0c.55-.55.79-.7,1.32-.7s.77.16,1.32.7a3,3,0,0,0,4.72,0C41.27,40.1,41.51,39.94,42,39.94Zm-1.1-16.57h3.13V36.44a.74.74,0,0,0,1.47,0V22.63a.74.74,0,0,0-.74-.74H43.24v-2a.74.74,0,1,0-1.47,0v2H40.21a.74.74,0,0,0-.74.74v1.09l-.12,0A23.33,23.33,0,0,1,31,25.12a23.33,23.33,0,0,1-8.35-1.35l-.12,0V22.63a.74.74,0,0,0-.74-.74H20.23v-2a.74.74,0,1,0-1.47,0v2H17.19a.74.74,0,0,0-.74.74V36.44a.74.74,0,0,0,1.47,0V23.37h3.13V36a.74.74,0,0,0,1.47,0V33.5H39.47V36a.74.74,0,0,0,1.47,0ZM39.47,32H36.34V26.13l.15,0a19.47,19.47,0,0,0,2.74-.71l.24-.08Zm-4.6,0H31.74v-5.3l0-.14h.14c.94,0,1.86-.09,2.74-.2l.21,0Zm-4.6,0H27.13V26.36l.21,0c.88.1,1.81.17,2.74.2h.14l0,.19Zm-4.6,0H22.53V25.31l.24.08a19.47,19.47,0,0,0,2.74.71l.15,0Z"/></g></g></svg>